<svg xmlns="http://www.w3.org/2000/svg" width="24" height="21" viewBox="0 0 24 21" fill="none">
  <path d="M11.998 0C10.9373 0 9.92004 0.414828 9.17003 1.15323C8.42001 1.89162 7.99866 2.89311 7.99866 3.93736C7.99866 4.98161 8.42001 5.98309 9.17003 6.72149C9.92004 7.45989 10.9373 7.87471 11.998 7.87471C13.0586 7.87471 14.0759 7.45989 14.8259 6.72149C15.5759 5.98309 15.9972 4.98161 15.9972 3.93736C15.9972 2.89311 15.5759 1.89162 14.8259 1.15323C14.0759 0.414828 13.0586 0 11.998 0ZM5.40312 10.4944C5.3578 10.7079 5.33513 10.9284 5.33513 11.1558V15.7494C5.33426 16.7023 5.54459 17.6438 5.95144 18.5084C6.35828 19.3729 6.95185 20.1397 7.69072 20.7551L7.46276 20.8207C6.7863 20.9994 6.08073 21.0451 5.38634 20.9552C4.69195 20.8654 4.02233 20.6417 3.41575 20.2971C2.80916 19.9524 2.27747 19.4935 1.85107 18.9465C1.42466 18.3995 1.11187 17.7751 0.930581 17.1091L0.0680669 13.9396C0.000132999 13.6898 -0.0171698 13.4293 0.0171466 13.173C0.0514629 12.9167 0.136726 12.6695 0.268068 12.4457C0.39941 12.2218 0.574258 12.0256 0.782628 11.8682C0.990998 11.7109 1.22881 11.5954 1.48248 11.5286L5.40312 10.4944ZM16.3105 20.7551C17.0494 20.1397 17.643 19.3729 18.0498 18.5084C18.4566 17.6438 18.667 16.7023 18.6661 15.7494V11.1558C18.6652 10.9284 18.643 10.7079 18.5994 10.4944L22.5188 11.5286C23.0308 11.6639 23.4673 11.9939 23.7323 12.446C23.9973 12.8981 24.0691 13.4354 23.9318 13.9396L23.0693 17.1091C22.8828 17.794 22.5574 18.4346 22.1125 18.9922C21.6677 19.5499 21.1127 20.013 20.4811 20.3538C19.8495 20.6945 19.1543 20.9057 18.4376 20.9747C17.7208 21.0437 16.9972 20.969 16.3105 20.7551ZM20.6631 2.6249C19.7792 2.6249 18.9315 2.97059 18.3065 3.58593C17.6815 4.20126 17.3303 5.03583 17.3303 5.90604C17.3303 6.77625 17.6815 7.61081 18.3065 8.22614C18.9315 8.84148 19.7792 9.18717 20.6631 9.18717C21.547 9.18717 22.3947 8.84148 23.0197 8.22614C23.6447 7.61081 23.9958 6.77625 23.9958 5.90604C23.9958 5.03583 23.6447 4.20126 23.0197 3.58593C22.3947 2.97059 21.547 2.6249 20.6631 2.6249ZM3.33282 2.6249C2.44892 2.6249 1.60123 2.97059 0.976217 3.58593C0.351206 4.20126 7.89817e-05 5.03583 7.89817e-05 5.90604C7.89817e-05 6.77625 0.351206 7.61081 0.976217 8.22614C1.60123 8.84148 2.44892 9.18717 3.33282 9.18717C4.21672 9.18717 5.06442 8.84148 5.68943 8.22614C6.31444 7.61081 6.66556 6.77625 6.66556 5.90604C6.66556 5.03583 6.31444 4.20126 5.68943 3.58593C5.06442 2.97059 4.21672 2.6249 3.33282 2.6249ZM8.66521 9.18717C8.13487 9.18717 7.62625 9.39458 7.25125 9.76378C6.87624 10.133 6.66556 10.6337 6.66556 11.1558V15.7494C6.66556 17.1418 7.22737 18.4771 8.22738 19.4616C9.2274 20.4461 10.5837 20.9992 11.998 20.9992C13.4122 20.9992 14.7685 20.4461 15.7685 19.4616C16.7685 18.4771 17.3303 17.1418 17.3303 15.7494V11.1558C17.3303 10.6337 17.1197 10.133 16.7447 9.76378C16.3697 9.39458 15.861 9.18717 15.3307 9.18717H8.66521Z" fill="#222222"/>
</svg>