<svg xmlns="http://www.w3.org/2000/svg" width="52" height="53" viewBox="0 0 52 53" fill="none">
  <path d="M31.3538 0.423514C31.6246 0.694387 31.7767 1.06172 31.7767 1.44473C31.7767 1.82775 31.6246 2.19508 31.3538 2.46595L28.0417 5.77805L31.3538 9.09015C31.6169 9.36258 31.7625 9.72745 31.7592 10.1062C31.7559 10.4849 31.604 10.8472 31.3362 11.115C31.0684 11.3828 30.7061 11.5347 30.3274 11.538C29.9487 11.5413 29.5838 11.3957 29.3114 11.1326L25.9993 7.82049L22.6872 11.1326C22.553 11.2667 22.3937 11.3731 22.2184 11.4456C22.0431 11.5181 21.8552 11.5555 21.6654 11.5554C21.4757 11.5553 21.2879 11.5179 21.1126 11.4452C20.9374 11.3725 20.7781 11.2661 20.644 11.1319C20.5099 10.9977 20.4035 10.8384 20.331 10.6631C20.2585 10.4877 20.2212 10.2999 20.2212 10.1101C20.2213 9.92042 20.2587 9.73256 20.3314 9.5573C20.4041 9.38205 20.5105 9.22282 20.6447 9.08871L23.9568 5.77805L20.6447 2.46595C20.5106 2.33175 20.4043 2.17245 20.3317 1.99714C20.2592 1.82183 20.2219 1.63395 20.2219 1.44422C20.222 1.2545 20.2595 1.06664 20.3321 0.891386C20.4048 0.716128 20.5113 0.5569 20.6455 0.422792C20.7797 0.288683 20.939 0.182321 21.1143 0.109779C21.2896 0.0372359 21.4775 -6.69761e-05 21.6672 9.02725e-08C21.8569 6.71566e-05 22.0448 0.0375025 22.22 0.110169C22.3953 0.182836 22.5545 0.289311 22.6886 0.423514L25.9993 3.73562L29.3114 0.423514C29.5823 0.152723 29.9496 0.00060138 30.3326 0.00060138C30.7156 0.00060138 31.0829 0.152723 31.3538 0.423514ZM19.0631 38.6073C20.0302 38.9296 21.0721 38.9519 22.0522 38.6715C23.0322 38.391 23.9046 37.8208 24.5548 37.0357V52.0334L7.22156 45.5002V34.6611L19.0631 38.6073Z" fill="#C41E3A"/>
  <path fill-rule="evenodd" clip-rule="evenodd" d="M44.7771 45.5002L27.4439 52.0334V37.0358C28.0941 37.8208 28.9665 38.391 29.9465 38.6715C30.9266 38.9519 31.9685 38.9296 32.9356 38.6073L44.7771 34.6611V45.5002ZM39.4558 42.5376C39.8194 42.4166 40.12 42.156 40.2914 41.8134C40.4629 41.4707 40.4912 41.074 40.3702 40.7104C40.2491 40.3469 39.9886 40.0463 39.6459 39.8748C39.3032 39.7033 38.9065 39.675 38.5429 39.7961L32.043 41.9627C31.6794 42.0838 31.3788 42.3443 31.2074 42.687C31.0359 43.0297 31.0076 43.4264 31.1286 43.79C31.2497 44.1535 31.5102 44.4541 31.8529 44.6255C32.1955 44.797 32.5923 44.8253 32.9559 44.7043L39.4558 42.5376ZM26.4718 13.0797C26.1658 12.9738 25.8331 12.9738 25.5271 13.0797L6.75227 19.5797L6.71904 19.5898C6.46663 19.6837 6.24549 19.8463 6.0806 20.0592L0.317284 27.2641C0.171716 27.4458 0.0722047 27.6599 0.0272241 27.8883C-0.0177564 28.1167 -0.00687365 28.3526 0.0589465 28.5758C0.124767 28.7991 0.243574 29.0032 0.40525 29.1706C0.566926 29.3381 0.766682 29.464 0.987505 29.5377L20.4874 36.0376C20.7828 36.1358 21.1019 36.136 21.3973 36.0381C21.6927 35.9402 21.9486 35.7496 22.1269 35.4945L25.9994 29.9623L29.8705 35.4945C30.0489 35.7499 30.3051 35.9407 30.6008 36.0386C30.8965 36.1365 31.2159 36.1361 31.5114 36.0376L51.0114 29.5377C51.2323 29.4642 51.4322 29.3384 51.594 29.171C51.7559 29.0036 51.8748 28.7996 51.9408 28.5763C52.0068 28.353 52.0178 28.117 51.9729 27.8886C51.928 27.6601 51.8286 27.4459 51.683 27.2641L45.9197 20.0592C45.747 19.8367 45.5131 19.6695 45.2466 19.5783L26.4718 13.0797ZM25.9994 25.9165L40.3615 20.9447L25.9994 15.9729L11.6374 20.9447L25.9994 25.9165Z" fill="#C41E3A"/>
</svg>