<svg xmlns="http://www.w3.org/2000/svg" width="48" height="48" viewBox="0 0 48 48" fill="none">
  <path d="M23.976 0C10.728 0 0 10.752 0 24C0 37.248 10.728 48 23.976 48C37.248 48 48 37.248 48 24C48 10.752 37.248 0 23.976 0ZM31.728 36.936L24 32.28L16.272 36.936C16.0698 37.0587 15.836 37.1191 15.5997 37.1098C15.3634 37.1005 15.135 37.0219 14.9431 36.8837C14.7512 36.7455 14.6042 36.5539 14.5204 36.3327C14.4366 36.1116 14.4198 35.8707 14.472 35.64L16.512 26.856L9.72 20.976C9.54357 20.8188 9.41693 20.6135 9.35564 20.3854C9.29435 20.1572 9.3011 19.916 9.37505 19.6916C9.449 19.4672 9.58693 19.2693 9.77187 19.1223C9.95681 18.9753 10.1807 18.8855 10.416 18.864L19.392 18.096L22.896 9.816C23.304 8.832 24.696 8.832 25.104 9.816L28.608 18.072L37.584 18.84C37.8203 18.8603 38.0452 18.9501 38.2304 19.0982C38.4157 19.2462 38.5529 19.4458 38.6248 19.6718C38.6967 19.8977 38.7 20.1399 38.6344 20.3678C38.5688 20.5956 38.4371 20.7989 38.256 20.952L31.464 26.832L33.504 35.64C33.744 36.672 32.64 37.488 31.728 36.936Z" fill="#C41E3A"/>
</svg>