<svg xmlns="http://www.w3.org/2000/svg" width="48" height="47" viewBox="0 0 48 47" fill="none">
  <path d="M22 24.4792H16.5C16.3674 24.4792 16.2402 24.5307 16.1464 24.6226C16.0527 24.7144 16 24.8389 16 24.9688V32.3125C16 32.4943 15.9483 32.6726 15.8506 32.8273C15.753 32.982 15.6133 33.107 15.4472 33.1883C15.2811 33.2696 15.0951 33.304 14.9102 33.2877C14.7252 33.2714 14.5485 33.2049 14.4 33.0958L12.4 31.5488C12.3112 31.4907 12.2068 31.4596 12.1 31.4596C11.9932 31.4596 11.8888 31.4907 11.8 31.5488L9.79998 33.0958C9.65141 33.2049 9.47475 33.2714 9.28979 33.2877C9.10483 33.304 8.91888 33.2696 8.75277 33.1883C8.58667 33.107 8.44697 32.982 8.34933 32.8273C8.2517 32.6726 8.19999 32.4943 8.19999 32.3125V24.9688C8.19999 24.8389 8.14731 24.7144 8.05354 24.6226C7.95977 24.5307 7.83259 24.4792 7.69999 24.4792H2C1.46956 24.4792 0.960858 24.6855 0.585785 25.0527C0.210713 25.42 0 25.9181 0 26.4375L0 45.0417C0 45.5611 0.210713 46.0592 0.585785 46.4264C0.960858 46.7937 1.46956 47 2 47H22C22.5304 47 23.0391 46.7937 23.4142 46.4264C23.7892 46.0592 24 45.5611 24 45.0417V26.4375C24 25.9181 23.7892 25.42 23.4142 25.0527C23.0391 24.6855 22.5304 24.4792 22 24.4792ZM42.5999 16.3717C42.5199 16.3288 42.4522 16.2669 42.4033 16.1915C42.3543 16.1162 42.3256 16.03 42.3199 15.9408C42.3217 15.8532 42.3466 15.7675 42.3921 15.692C42.4377 15.6165 42.5024 15.5538 42.5799 15.51C43.8583 14.7736 44.9182 13.7232 45.6549 12.4627C46.3915 11.2022 46.7793 9.77521 46.7799 8.32292C46.729 6.1312 45.8172 4.04306 44.234 2.49288C42.6508 0.942704 40.5183 0.0498309 38.2799 0C36.702 0.0135041 35.1583 0.451832 33.8179 1.267C32.4774 2.08216 31.3918 3.24274 30.6799 4.62167C30.638 4.70558 30.5724 4.77599 30.4909 4.82457C30.4094 4.87315 30.3153 4.89788 30.2199 4.89583H27C26.4695 4.89583 25.9608 5.10216 25.5857 5.46942C25.2107 5.83667 25 6.33478 25 6.85417C25 7.37355 25.2107 7.87166 25.5857 8.23892C25.9608 8.60618 26.4695 8.8125 27 8.8125H29.3599C29.4793 8.81634 29.5933 8.8619 29.6814 8.94092C29.7694 9.01995 29.8257 9.12722 29.8399 9.24333C29.9922 10.4914 30.4312 11.6895 31.124 12.7477C31.8167 13.8059 32.7453 14.6968 33.8399 15.3533C33.9167 15.4013 33.9793 15.4681 34.0214 15.5471C34.0635 15.6262 34.0837 15.7147 34.0799 15.8038C34.0729 15.8925 34.0412 15.9777 33.9883 16.0502C33.9355 16.1227 33.8634 16.1796 33.7799 16.215C32.0571 17.0002 30.5985 18.2498 29.5748 19.8175C28.5512 21.3852 28.0049 23.206 28 25.0667V30.9417C28.0051 31.1998 28.1121 31.4459 28.2985 31.6285C28.4849 31.811 28.7363 31.9158 29 31.9208H31.9999C32.1224 31.9253 32.239 31.9736 32.3275 32.0566C32.416 32.1396 32.4702 32.2516 32.4799 32.3713L33.9999 45.8446C34.029 46.0853 34.1465 46.3074 34.3305 46.4695C34.5145 46.6317 34.7524 46.7228 34.9999 46.7258H40.9999C41.2487 46.7271 41.489 46.6374 41.6739 46.4745C41.8588 46.3115 41.9751 46.087 41.9999 45.8446L43.3799 32.4104C43.39 32.2875 43.4471 32.1728 43.5398 32.0893C43.6325 32.0058 43.754 31.9596 43.8799 31.96H46.9999C47.2635 31.955 47.5149 31.8502 47.7014 31.6677C47.8878 31.4851 47.9948 31.239 47.9999 30.9808V25.1058C48.0074 23.3045 47.5073 21.536 46.5546 19.995C45.6018 18.4541 44.2334 17.2003 42.5999 16.3717ZM42.4399 8.8125C42.5055 8.79592 42.5743 8.79592 42.6399 8.8125C42.6548 8.84655 42.6624 8.88319 42.6624 8.92021C42.6624 8.95723 42.6548 8.99387 42.6399 9.02792C42.4271 9.96903 41.9037 10.8153 41.1505 11.436C40.3974 12.0566 39.4564 12.4171 38.473 12.4617C37.4897 12.5063 36.5187 12.2325 35.7102 11.6826C34.9017 11.1327 34.3006 10.3374 33.9999 9.41958C33.9666 9.35596 33.9492 9.28547 33.9492 9.21396C33.9492 9.14244 33.9666 9.07196 33.9999 9.00833C34.0434 8.94904 34.1004 8.90048 34.1663 8.86649C34.2323 8.8325 34.3054 8.81401 34.3799 8.8125H42.4399Z" fill="#C41E3A"/>
</svg>