<svg xmlns="http://www.w3.org/2000/svg" width="64" height="63" viewBox="0 0 64 63" fill="none">
  <path d="M32.3733 0C31.8711 0 31.3688 0.0135194 30.8666 0.0365022L30.9752 2.46727C31.4367 2.44564 31.8982 2.43348 32.3733 2.43348C48.4988 2.43348 61.5567 15.4391 61.5567 31.5C61.5567 47.5609 48.4988 60.5665 32.3733 60.5665C20.2112 60.5665 9.79343 53.1715 5.40912 42.6399L9.15953 41.5178L2.58579 36.8807L0 44.2487L3.06087 43.3429C7.76144 54.8614 19.1253 63 32.3733 63C49.8291 63 64 48.8858 64 31.5C64 14.1142 49.8291 0 32.3733 0ZM28.1926 0.275794C26.3873 0.512382 24.6498 0.897682 22.9531 1.42223L23.7133 3.73268C25.2607 3.2541 26.8759 2.90124 28.5183 2.68494L28.1926 0.275794ZM20.4556 2.31991C18.7724 3.00264 17.1707 3.82326 15.6505 4.76961L16.94 6.8259C18.3381 5.95526 19.8176 5.19953 21.365 4.57223L20.4556 2.31991ZM13.4244 6.28648C11.9994 7.35025 10.6667 8.53149 9.44051 9.81773L11.2119 11.4779C12.3385 10.2923 13.5737 9.2053 14.8768 8.22515L14.2252 7.33693L13.4244 6.28648ZM22.8581 7.44644L22.2609 9.80421L51.7158 17.3047L52.313 14.9524L22.8581 7.44644ZM7.67864 11.8294C6.56696 13.2084 5.56929 14.6955 4.70057 16.2502L6.82486 17.4399C7.62706 15.9933 8.54736 14.6279 9.57489 13.3436L7.67864 11.8294ZM25.0028 13.0191C24.4734 16.5341 25.3828 20.4818 26.9302 23.7264C27.7989 25.538 28.8577 27.1333 29.9029 28.2959C30.473 28.9313 31.0431 29.418 31.5589 29.7695L30.8259 32.6356C30.2015 32.6897 29.4685 32.8519 28.6541 33.1358C27.1746 33.6496 25.4778 34.5418 23.849 35.718C20.9171 37.827 18.2295 40.8418 17.0078 44.1811L39.7438 49.9809C40.2732 46.4659 39.3637 42.5182 37.8163 39.2736C36.9476 37.462 35.8889 35.8667 34.8437 34.7041C34.2736 34.0687 33.7035 33.582 33.1877 33.2305L33.9207 30.3644C34.5315 30.2968 35.278 30.1481 36.0925 29.8642C37.572 29.3504 39.2687 28.4582 40.8976 27.282C43.8295 25.173 46.5171 22.1582 47.7387 18.8189L25.0028 13.0191ZM3.49387 18.6431C2.77039 20.2655 2.17722 21.9418 1.72929 23.6858L4.10197 24.2536C4.51326 22.6584 5.05756 21.1172 5.72403 19.63L3.49387 18.6431ZM1.18091 26.2951C0.897222 27.985 0.746554 29.729 0.746554 31.5V31.6217L3.18982 31.5946V31.5C3.18982 29.8642 3.32827 28.2554 3.59024 26.6871L1.18091 26.2951ZM13.0308 45.6953L12.4335 48.0476L41.8884 55.5509L42.4857 53.1985L13.0308 45.6953Z" fill="#C41E3A"/>
</svg>