<svg width="247" height="168" viewBox="0 0 247 168" fill="none" xmlns="http://www.w3.org/2000/svg">
<path d="M50.912 16.128C50.112 16.128 49.408 15.9733 48.8 15.664C48.192 15.344 47.7227 14.9013 47.392 14.336C47.0613 13.7707 46.896 13.1147 46.896 12.368V8.416C46.896 7.66933 47.0613 7.01333 47.392 6.448C47.7227 5.88267 48.192 5.44533 48.8 5.136C49.408 4.82667 50.112 4.672 50.912 4.672C51.7013 4.672 52.4 4.82133 53.008 5.12C53.616 5.41867 54.0853 5.84 54.416 6.384C54.7467 6.928 54.912 7.55733 54.912 8.272C54.912 8.32533 54.8907 8.37333 54.848 8.416C54.816 8.448 54.7733 8.464 54.72 8.464L53.248 8.544C53.12 8.544 53.056 8.48533 53.056 8.368C53.056 7.73867 52.8587 7.232 52.464 6.848C52.08 6.464 51.5627 6.272 50.912 6.272C50.2613 6.272 49.7387 6.464 49.344 6.848C48.9493 7.232 48.752 7.73867 48.752 8.368V12.448C48.752 13.0667 48.9493 13.568 49.344 13.952C49.7387 14.336 50.2613 14.528 50.912 14.528C51.5627 14.528 52.08 14.3413 52.464 13.968C52.8587 13.584 53.056 13.0773 53.056 12.448C53.056 12.3307 53.12 12.272 53.248 12.272L54.72 12.336C54.7733 12.336 54.816 12.352 54.848 12.384C54.8907 12.416 54.912 12.4533 54.912 12.496C54.912 13.2213 54.7467 13.8613 54.416 14.416C54.0853 14.96 53.616 15.3813 53.008 15.68C52.4 15.9787 51.7013 16.128 50.912 16.128ZM63.6901 16C63.5835 16 63.5141 15.9467 63.4821 15.84L62.9541 14.128C62.9328 14.0853 62.9061 14.064 62.8741 14.064H58.6501C58.6181 14.064 58.5915 14.0853 58.5701 14.128L58.0421 15.84C58.0101 15.9467 57.9408 16 57.8341 16H56.2341C56.1701 16 56.1221 15.984 56.0901 15.952C56.0581 15.9093 56.0528 15.8507 56.0741 15.776L59.5461 4.96C59.5781 4.85333 59.6475 4.8 59.7541 4.8H61.7541C61.8608 4.8 61.9301 4.85333 61.9621 4.96L65.4501 15.776C65.4608 15.7973 65.4661 15.824 65.4661 15.856C65.4661 15.952 65.4075 16 65.2901 16H63.6901ZM59.0661 12.512C59.0555 12.576 59.0768 12.608 59.1301 12.608H62.3781C62.4421 12.608 62.4635 12.576 62.4421 12.512L60.7941 7.152C60.7835 7.10933 60.7675 7.088 60.7461 7.088C60.7248 7.088 60.7088 7.10933 60.6981 7.152L59.0661 12.512ZM73.4091 16C73.3025 16 73.2278 15.952 73.1851 15.856L71.0731 11.248C71.0518 11.2053 71.0198 11.184 70.9771 11.184H69.0571C69.0038 11.184 68.9771 11.2107 68.9771 11.264V15.808C68.9771 15.8613 68.9558 15.9093 68.9131 15.952C68.8811 15.984 68.8385 16 68.7851 16H67.3131C67.2598 16 67.2118 15.984 67.1691 15.952C67.1371 15.9093 67.1211 15.8613 67.1211 15.808V4.992C67.1211 4.93867 67.1371 4.896 67.1691 4.864C67.2118 4.82133 67.2598 4.8 67.3131 4.8H71.7131C72.3638 4.8 72.9398 4.93867 73.4411 5.216C73.9425 5.48267 74.3318 5.86667 74.6091 6.368C74.8865 6.85867 75.0251 7.424 75.0251 8.064C75.0251 8.8 74.8331 9.42933 74.4491 9.952C74.0758 10.464 73.5531 10.8213 72.8811 11.024C72.8598 11.024 72.8438 11.0347 72.8331 11.056C72.8225 11.0773 72.8225 11.0987 72.8331 11.12L75.0891 15.776C75.1105 15.8187 75.1211 15.8507 75.1211 15.872C75.1211 15.9573 75.0625 16 74.9451 16H73.4091ZM69.0571 6.4C69.0038 6.4 68.9771 6.42667 68.9771 6.48V9.664C68.9771 9.71733 69.0038 9.744 69.0571 9.744H71.4571C71.9691 9.744 72.3798 9.59467 72.6891 9.296C73.0091 8.98667 73.1691 8.58133 73.1691 8.08C73.1691 7.57867 73.0091 7.17333 72.6891 6.864C72.3798 6.55467 71.9691 6.4 71.4571 6.4H69.0571ZM84.278 4.8C84.3313 4.8 84.374 4.82133 84.406 4.864C84.4487 4.896 84.47 4.93867 84.47 4.992V6.224C84.47 6.27733 84.4487 6.32533 84.406 6.368C84.374 6.4 84.3313 6.416 84.278 6.416H81.334C81.2807 6.416 81.254 6.44267 81.254 6.496V15.808C81.254 15.8613 81.2327 15.9093 81.19 15.952C81.158 15.984 81.1153 16 81.062 16H79.59C79.5367 16 79.4887 15.984 79.446 15.952C79.414 15.9093 79.398 15.8613 79.398 15.808V6.496C79.398 6.44267 79.3713 6.416 79.318 6.416H76.486C76.4327 6.416 76.3847 6.4 76.342 6.368C76.31 6.32533 76.294 6.27733 76.294 6.224V4.992C76.294 4.93867 76.31 4.896 76.342 4.864C76.3847 4.82133 76.4327 4.8 76.486 4.8H84.278ZM96.7468 4.8C96.8001 4.8 96.8428 4.82133 96.8748 4.864C96.9174 4.896 96.9388 4.93867 96.9388 4.992V6.224C96.9388 6.27733 96.9174 6.32533 96.8748 6.368C96.8428 6.4 96.8001 6.416 96.7468 6.416H93.8028C93.7494 6.416 93.7228 6.44267 93.7228 6.496V15.808C93.7228 15.8613 93.7014 15.9093 93.6588 15.952C93.6268 15.984 93.5841 16 93.5308 16H92.0588C92.0054 16 91.9574 15.984 91.9148 15.952C91.8828 15.9093 91.8668 15.8613 91.8668 15.808V6.496C91.8668 6.44267 91.8401 6.416 91.7868 6.416H88.9548C88.9014 6.416 88.8534 6.4 88.8108 6.368C88.7788 6.32533 88.7628 6.27733 88.7628 6.224V4.992C88.7628 4.93867 88.7788 4.896 88.8108 4.864C88.8534 4.82133 88.9014 4.8 88.9548 4.8H96.7468ZM101.882 16.16C101.082 16.16 100.373 16 99.7539 15.68C99.1352 15.3493 98.6552 14.8853 98.3139 14.288C97.9832 13.6907 97.8179 13.0027 97.8179 12.224V8.576C97.8179 7.808 97.9885 7.13067 98.3299 6.544C98.6712 5.94667 99.1459 5.488 99.7539 5.168C100.373 4.83733 101.082 4.672 101.882 4.672C102.693 4.672 103.402 4.83733 104.01 5.168C104.629 5.488 105.109 5.94667 105.45 6.544C105.791 7.13067 105.962 7.808 105.962 8.576V12.224C105.962 13.0027 105.791 13.6907 105.45 14.288C105.109 14.8853 104.629 15.3493 104.01 15.68C103.402 16 102.693 16.16 101.882 16.16ZM101.882 14.56C102.554 14.56 103.093 14.352 103.498 13.936C103.903 13.52 104.106 12.9707 104.106 12.288V8.56C104.106 7.86667 103.903 7.312 103.498 6.896C103.093 6.48 102.554 6.272 101.882 6.272C101.221 6.272 100.687 6.48 100.282 6.896C99.8765 7.312 99.6739 7.86667 99.6739 8.56V12.288C99.6739 12.9707 99.8765 13.52 100.282 13.936C100.687 14.352 101.221 14.56 101.882 14.56ZM115.023 16.16C114.223 16.16 113.513 16 112.895 15.68C112.276 15.3493 111.796 14.8853 111.455 14.288C111.124 13.6907 110.959 13.0027 110.959 12.224V8.576C110.959 7.808 111.129 7.13067 111.471 6.544C111.812 5.94667 112.287 5.488 112.895 5.168C113.513 4.83733 114.223 4.672 115.023 4.672C115.833 4.672 116.543 4.83733 117.151 5.168C117.769 5.488 118.249 5.94667 118.591 6.544C118.932 7.13067 119.102 7.808 119.102 8.576V12.224C119.102 13.0027 118.932 13.6907 118.591 14.288C118.249 14.8853 117.769 15.3493 117.151 15.68C116.543 16 115.833 16.16 115.023 16.16ZM115.023 14.56C115.695 14.56 116.233 14.352 116.639 13.936C117.044 13.52 117.247 12.9707 117.247 12.288V8.56C117.247 7.86667 117.044 7.312 116.639 6.896C116.233 6.48 115.695 6.272 115.023 6.272C114.361 6.272 113.828 6.48 113.423 6.896C113.017 7.312 112.815 7.86667 112.815 8.56V12.288C112.815 12.9707 113.017 13.52 113.423 13.936C113.828 14.352 114.361 14.56 115.023 14.56ZM127.456 16C127.349 16 127.275 15.952 127.232 15.856L125.12 11.248C125.099 11.2053 125.067 11.184 125.024 11.184H123.104C123.051 11.184 123.024 11.2107 123.024 11.264V15.808C123.024 15.8613 123.003 15.9093 122.96 15.952C122.928 15.984 122.885 16 122.832 16H121.36C121.307 16 121.259 15.984 121.216 15.952C121.184 15.9093 121.168 15.8613 121.168 15.808V4.992C121.168 4.93867 121.184 4.896 121.216 4.864C121.259 4.82133 121.307 4.8 121.36 4.8H125.76C126.411 4.8 126.987 4.93867 127.488 5.216C127.989 5.48267 128.379 5.86667 128.656 6.368C128.933 6.85867 129.072 7.424 129.072 8.064C129.072 8.8 128.88 9.42933 128.496 9.952C128.123 10.464 127.6 10.8213 126.928 11.024C126.907 11.024 126.891 11.0347 126.88 11.056C126.869 11.0773 126.869 11.0987 126.88 11.12L129.136 15.776C129.157 15.8187 129.168 15.8507 129.168 15.872C129.168 15.9573 129.109 16 128.992 16H127.456ZM123.104 6.4C123.051 6.4 123.024 6.42667 123.024 6.48V9.664C123.024 9.71733 123.051 9.744 123.104 9.744H125.504C126.016 9.744 126.427 9.59467 126.736 9.296C127.056 8.98667 127.216 8.58133 127.216 8.08C127.216 7.57867 127.056 7.17333 126.736 6.864C126.427 6.55467 126.016 6.4 125.504 6.4H123.104ZM131.173 16C131.119 16 131.071 15.984 131.029 15.952C130.997 15.9093 130.981 15.8613 130.981 15.808V4.992C130.981 4.93867 130.997 4.896 131.029 4.864C131.071 4.82133 131.119 4.8 131.173 4.8H135.077C135.834 4.8 136.501 4.93333 137.077 5.2C137.653 5.46667 138.095 5.85067 138.405 6.352C138.725 6.84267 138.885 7.41867 138.885 8.08V12.72C138.885 13.3813 138.725 13.9627 138.405 14.464C138.095 14.9547 137.653 15.3333 137.077 15.6C136.501 15.8667 135.834 16 135.077 16H131.173ZM132.837 14.32C132.837 14.3733 132.863 14.4 132.917 14.4H135.157C135.722 14.4 136.17 14.224 136.501 13.872C136.842 13.5093 137.018 13.0293 137.029 12.432V8.384C137.029 7.776 136.858 7.296 136.517 6.944C136.175 6.58133 135.717 6.4 135.141 6.4H132.917C132.863 6.4 132.837 6.42667 132.837 6.48V14.32ZM148.455 6.208C148.455 6.26133 148.434 6.30933 148.391 6.352C148.359 6.384 148.316 6.4 148.263 6.4H142.807C142.754 6.4 142.727 6.42667 142.727 6.48V9.472C142.727 9.52533 142.754 9.552 142.807 9.552H146.471C146.524 9.552 146.567 9.57333 146.599 9.616C146.642 9.648 146.663 9.69067 146.663 9.744V10.96C146.663 11.0133 146.642 11.0613 146.599 11.104C146.567 11.136 146.524 11.152 146.471 11.152H142.807C142.754 11.152 142.727 11.1787 142.727 11.232V14.32C142.727 14.3733 142.754 14.4 142.807 14.4H148.263C148.316 14.4 148.359 14.4213 148.391 14.464C148.434 14.496 148.455 14.5387 148.455 14.592V15.808C148.455 15.8613 148.434 15.9093 148.391 15.952C148.359 15.984 148.316 16 148.263 16H141.063C141.01 16 140.962 15.984 140.919 15.952C140.887 15.9093 140.871 15.8613 140.871 15.808V4.992C140.871 4.93867 140.887 4.896 140.919 4.864C140.962 4.82133 141.01 4.8 141.063 4.8H148.263C148.316 4.8 148.359 4.82133 148.391 4.864C148.434 4.896 148.455 4.93867 148.455 4.992V6.208ZM156.628 16C156.521 16 156.447 15.952 156.404 15.856L154.292 11.248C154.271 11.2053 154.239 11.184 154.196 11.184H152.276C152.223 11.184 152.196 11.2107 152.196 11.264V15.808C152.196 15.8613 152.175 15.9093 152.132 15.952C152.1 15.984 152.057 16 152.004 16H150.532C150.479 16 150.431 15.984 150.388 15.952C150.356 15.9093 150.34 15.8613 150.34 15.808V4.992C150.34 4.93867 150.356 4.896 150.388 4.864C150.431 4.82133 150.479 4.8 150.532 4.8H154.932C155.583 4.8 156.159 4.93867 156.66 5.216C157.161 5.48267 157.551 5.86667 157.828 6.368C158.105 6.85867 158.244 7.424 158.244 8.064C158.244 8.8 158.052 9.42933 157.668 9.952C157.295 10.464 156.772 10.8213 156.1 11.024C156.079 11.024 156.063 11.0347 156.052 11.056C156.041 11.0773 156.041 11.0987 156.052 11.12L158.308 15.776C158.329 15.8187 158.34 15.8507 158.34 15.872C158.34 15.9573 158.281 16 158.164 16H156.628ZM152.276 6.4C152.223 6.4 152.196 6.42667 152.196 6.48V9.664C152.196 9.71733 152.223 9.744 152.276 9.744H154.676C155.188 9.744 155.599 9.59467 155.908 9.296C156.228 8.98667 156.388 8.58133 156.388 8.08C156.388 7.57867 156.228 7.17333 155.908 6.864C155.599 6.55467 155.188 6.4 154.676 6.4H152.276Z" fill="#801426"/>
<path d="M164.332 17.536C164.225 17.536 164.15 17.4987 164.108 17.424C163.521 16.624 163.046 15.6533 162.684 14.512C162.332 13.36 162.155 12.096 162.155 10.72C162.155 9.33333 162.332 8.064 162.684 6.912C163.046 5.74933 163.526 4.76267 164.124 3.952C164.166 3.87733 164.241 3.84 164.348 3.84H165.756C165.83 3.84 165.878 3.86133 165.9 3.904C165.932 3.94667 165.932 4 165.9 4.064C165.409 4.91733 165.009 5.91467 164.7 7.056C164.39 8.18667 164.236 9.408 164.236 10.72C164.236 12.0213 164.39 13.232 164.7 14.352C165.009 15.472 165.409 16.4587 165.9 17.312C165.921 17.3547 165.932 17.3867 165.932 17.408C165.932 17.4933 165.873 17.536 165.756 17.536H164.332ZM172.162 16.128C171.362 16.128 170.658 15.9733 170.05 15.664C169.442 15.344 168.973 14.9013 168.642 14.336C168.311 13.7707 168.146 13.1147 168.146 12.368V8.416C168.146 7.66933 168.311 7.01333 168.642 6.448C168.973 5.88267 169.442 5.44533 170.05 5.136C170.658 4.82667 171.362 4.672 172.162 4.672C172.951 4.672 173.65 4.82133 174.258 5.12C174.866 5.41867 175.335 5.84 175.666 6.384C175.997 6.928 176.162 7.55733 176.162 8.272C176.162 8.32533 176.141 8.37333 176.098 8.416C176.066 8.448 176.023 8.464 175.97 8.464L174.498 8.544C174.37 8.544 174.306 8.48533 174.306 8.368C174.306 7.73867 174.109 7.232 173.714 6.848C173.33 6.464 172.813 6.272 172.162 6.272C171.511 6.272 170.989 6.464 170.594 6.848C170.199 7.232 170.002 7.73867 170.002 8.368V12.448C170.002 13.0667 170.199 13.568 170.594 13.952C170.989 14.336 171.511 14.528 172.162 14.528C172.813 14.528 173.33 14.3413 173.714 13.968C174.109 13.584 174.306 13.0773 174.306 12.448C174.306 12.3307 174.37 12.272 174.498 12.272L175.97 12.336C176.023 12.336 176.066 12.352 176.098 12.384C176.141 12.416 176.162 12.4533 176.162 12.496C176.162 13.2213 175.997 13.8613 175.666 14.416C175.335 14.96 174.866 15.3813 174.258 15.68C173.65 15.9787 172.951 16.128 172.162 16.128ZM180.264 14.304C180.243 14.3253 180.232 14.3467 180.232 14.368C180.243 14.3893 180.264 14.4 180.296 14.4H184.856C184.91 14.4 184.952 14.4213 184.984 14.464C185.027 14.496 185.048 14.5387 185.048 14.592V15.808C185.048 15.8613 185.027 15.9093 184.984 15.952C184.952 15.984 184.91 16 184.856 16H177.976C177.923 16 177.875 15.984 177.832 15.952C177.8 15.9093 177.784 15.8613 177.784 15.808V14.656C177.784 14.56 177.816 14.48 177.88 14.416C178.691 13.552 179.63 12.4907 180.696 11.232L181.448 10.352C182.43 9.21067 182.92 8.34667 182.92 7.76C182.92 7.32267 182.766 6.96533 182.456 6.688C182.147 6.41067 181.747 6.272 181.256 6.272C180.766 6.272 180.366 6.41067 180.056 6.688C179.758 6.96533 179.608 7.33333 179.608 7.792V8.208C179.608 8.26133 179.587 8.30933 179.544 8.352C179.512 8.384 179.47 8.4 179.416 8.4H177.928C177.875 8.4 177.827 8.384 177.784 8.352C177.752 8.30933 177.736 8.26133 177.736 8.208V7.52C177.758 6.944 177.923 6.44267 178.232 6.016C178.542 5.58933 178.958 5.25867 179.48 5.024C180.014 4.78933 180.606 4.672 181.256 4.672C181.971 4.672 182.595 4.80533 183.128 5.072C183.662 5.33867 184.072 5.70667 184.36 6.176C184.648 6.63467 184.792 7.152 184.792 7.728C184.792 8.60267 184.328 9.61067 183.4 10.752C182.888 11.392 182.046 12.352 180.872 13.632L180.264 14.304ZM190.757 16.16C189.957 16.16 189.248 16 188.629 15.68C188.01 15.3493 187.53 14.8853 187.189 14.288C186.858 13.6907 186.693 13.0027 186.693 12.224V8.576C186.693 7.808 186.864 7.13067 187.205 6.544C187.546 5.94667 188.021 5.488 188.629 5.168C189.248 4.83733 189.957 4.672 190.757 4.672C191.568 4.672 192.277 4.83733 192.885 5.168C193.504 5.488 193.984 5.94667 194.325 6.544C194.666 7.13067 194.837 7.808 194.837 8.576V12.224C194.837 13.0027 194.666 13.6907 194.325 14.288C193.984 14.8853 193.504 15.3493 192.885 15.68C192.277 16 191.568 16.16 190.757 16.16ZM190.757 14.56C191.429 14.56 191.968 14.352 192.373 13.936C192.778 13.52 192.981 12.9707 192.981 12.288V8.56C192.981 7.86667 192.778 7.312 192.373 6.896C191.968 6.48 191.429 6.272 190.757 6.272C190.096 6.272 189.562 6.48 189.157 6.896C188.752 7.312 188.549 7.86667 188.549 8.56V12.288C188.549 12.9707 188.752 13.52 189.157 13.936C189.562 14.352 190.096 14.56 190.757 14.56ZM198.662 3.84C198.769 3.84 198.844 3.87733 198.886 3.952C199.473 4.752 199.942 5.728 200.294 6.88C200.657 8.02133 200.838 9.27467 200.838 10.64C200.838 12.016 200.657 13.2907 200.294 14.464C199.932 15.6267 199.452 16.6133 198.854 17.424C198.812 17.4987 198.737 17.536 198.63 17.536H197.222C197.148 17.536 197.094 17.5147 197.062 17.472C197.041 17.4293 197.046 17.376 197.078 17.312C197.569 16.4587 197.969 15.4667 198.278 14.336C198.588 13.1947 198.742 11.968 198.742 10.656C198.742 9.344 198.588 8.128 198.278 7.008C197.969 5.888 197.569 4.90667 197.078 4.064C197.057 4.02133 197.046 3.98933 197.046 3.968C197.046 3.88267 197.105 3.84 197.222 3.84H198.662Z" fill="#212121" fill-opacity="0.6"/>
<circle cx="4" cy="4" r="4" transform="matrix(-1 0 0 1 247 27)" fill="#C41E3A"/>
<line y1="-0.5" x2="239" y2="-0.5" transform="matrix(1 0 0 -1 0 31)" stroke="#7D1425" stroke-dasharray="3 3"/>
<path d="M24.5778 57C24.5031 57 24.4518 56.9673 24.4238 56.902L22.4638 52.716C22.4544 52.688 22.4358 52.674 22.4078 52.674H20.3918C20.3544 52.674 20.3358 52.6927 20.3358 52.73V56.86C20.3358 56.9533 20.2891 57 20.1958 57H19.1318C19.0384 57 18.9918 56.9533 18.9918 56.86V47.34C18.9918 47.2467 19.0384 47.2 19.1318 47.2H22.8978C23.4578 47.2 23.9478 47.3167 24.3678 47.55C24.7971 47.7833 25.1284 48.11 25.3618 48.53C25.5951 48.95 25.7118 49.4353 25.7118 49.986C25.7118 50.6393 25.5391 51.1947 25.1938 51.652C24.8578 52.1 24.3864 52.4033 23.7798 52.562C23.7424 52.5807 23.7331 52.604 23.7518 52.632L25.7818 56.832C25.7911 56.8507 25.7958 56.874 25.7958 56.902C25.7958 56.9673 25.7584 57 25.6838 57H24.5778ZM20.3918 48.362C20.3544 48.362 20.3358 48.3807 20.3358 48.418V51.554C20.3358 51.5913 20.3544 51.61 20.3918 51.61H22.7298C23.2244 51.61 23.6211 51.4653 23.9198 51.176C24.2184 50.8773 24.3678 50.4853 24.3678 50C24.3678 49.5053 24.2184 49.1087 23.9198 48.81C23.6211 48.5113 23.2244 48.362 22.7298 48.362H20.3918ZM33.123 52.548C33.1603 52.9307 33.1743 53.36 33.165 53.836C33.165 53.9293 33.1183 53.976 33.025 53.976H28.559C28.5217 53.976 28.503 53.9947 28.503 54.032C28.503 54.3493 28.531 54.592 28.587 54.76C28.6897 55.1333 28.895 55.4273 29.203 55.642C29.5203 55.8473 29.917 55.95 30.393 55.95C31.0837 55.95 31.6157 55.6653 31.989 55.096C32.0357 55.0027 32.0963 54.9887 32.171 55.054L32.969 55.586C33.0343 55.642 33.0483 55.7027 33.011 55.768C32.7497 56.188 32.3763 56.5193 31.891 56.762C31.415 57.0047 30.8737 57.126 30.267 57.126C29.5857 57.126 29.0117 56.9767 28.545 56.678C28.0783 56.3793 27.7283 55.9547 27.495 55.404C27.271 54.8533 27.159 54.186 27.159 53.402C27.159 52.7207 27.2103 52.2027 27.313 51.848C27.481 51.204 27.817 50.6953 28.321 50.322C28.825 49.9487 29.4363 49.762 30.155 49.762C31.0977 49.762 31.8023 50 32.269 50.476C32.7357 50.9427 33.0203 51.6333 33.123 52.548ZM30.155 50.924C29.7537 50.924 29.4223 51.0267 29.161 51.232C28.8997 51.428 28.7223 51.694 28.629 52.03C28.5637 52.2353 28.5217 52.4967 28.503 52.814C28.503 52.8513 28.5217 52.87 28.559 52.87H31.765C31.8023 52.87 31.821 52.8513 31.821 52.814C31.8023 52.506 31.7743 52.2773 31.737 52.128C31.6437 51.764 31.457 51.4747 31.177 51.26C30.9063 51.036 30.5657 50.924 30.155 50.924ZM42.2669 49.776C42.9762 49.776 43.5362 49.9907 43.9469 50.42C44.3575 50.84 44.5629 51.428 44.5629 52.184V56.86C44.5629 56.9533 44.5162 57 44.4229 57H43.3729C43.2795 57 43.2329 56.9533 43.2329 56.86V52.464C43.2329 51.9973 43.1022 51.6287 42.8409 51.358C42.5889 51.078 42.2482 50.938 41.8189 50.938C41.3895 50.938 41.0395 51.0733 40.7689 51.344C40.4982 51.6147 40.3629 51.9787 40.3629 52.436V56.86C40.3629 56.9533 40.3162 57 40.2229 57H39.1729C39.0795 57 39.0329 56.9533 39.0329 56.86V52.464C39.0329 51.9973 38.9022 51.6287 38.6409 51.358C38.3889 51.078 38.0482 50.938 37.6189 50.938C37.1895 50.938 36.8442 51.0733 36.5829 51.344C36.3309 51.6147 36.2049 51.9787 36.2049 52.436V56.86C36.2049 56.9533 36.1582 57 36.0649 57H35.0009C34.9075 57 34.8609 56.9533 34.8609 56.86V50.014C34.8609 49.9207 34.9075 49.874 35.0009 49.874H36.0649C36.1582 49.874 36.2049 49.9207 36.2049 50.014V50.49C36.2049 50.5087 36.2095 50.5227 36.2189 50.532C36.2375 50.5413 36.2562 50.5367 36.2749 50.518C36.6855 50.0233 37.2829 49.776 38.0669 49.776C38.5429 49.776 38.9489 49.8693 39.2849 50.056C39.6209 50.2333 39.8822 50.4993 40.0689 50.854C40.0969 50.8913 40.1249 50.8913 40.1529 50.854C40.3769 50.49 40.6709 50.2193 41.0349 50.042C41.4082 49.8647 41.8189 49.776 42.2669 49.776ZM49.2572 57.112C48.5666 57.112 47.9646 56.9393 47.4512 56.594C46.9379 56.2393 46.5786 55.7493 46.3732 55.124C46.2052 54.62 46.1212 54.0507 46.1212 53.416C46.1212 52.7533 46.2006 52.1933 46.3592 51.736C46.5646 51.12 46.9239 50.6393 47.4372 50.294C47.9506 49.9393 48.5619 49.762 49.2712 49.762C49.9432 49.762 50.5266 49.9393 51.0212 50.294C51.5252 50.6393 51.8846 51.1153 52.0992 51.722C52.2672 52.198 52.3512 52.758 52.3512 53.402C52.3512 54.0553 52.2672 54.6293 52.0992 55.124C51.8939 55.7493 51.5392 56.2393 51.0352 56.594C50.5312 56.9393 49.9386 57.112 49.2572 57.112ZM49.2572 55.95C49.6306 55.95 49.9572 55.8473 50.2372 55.642C50.5172 55.4273 50.7179 55.1287 50.8392 54.746C50.9419 54.3913 50.9932 53.9527 50.9932 53.43C50.9932 52.9073 50.9466 52.4733 50.8532 52.128C50.7319 51.7453 50.5312 51.4513 50.2512 51.246C49.9712 51.0313 49.6306 50.924 49.2292 50.924C48.8466 50.924 48.5152 51.0313 48.2352 51.246C47.9552 51.4513 47.7546 51.7453 47.6332 52.128C47.5306 52.4547 47.4792 52.8887 47.4792 53.43C47.4792 53.9713 47.5306 54.41 47.6332 54.746C47.7452 55.1287 47.9412 55.4273 48.2212 55.642C48.5106 55.8473 48.8559 55.95 49.2572 55.95ZM55.6587 57C55.5747 57 55.5187 56.9627 55.4907 56.888L53.2087 50.028L53.1947 49.972C53.1947 49.9067 53.2367 49.874 53.3207 49.874H54.4967C54.5807 49.874 54.6367 49.9113 54.6647 49.986L56.2047 55.054C56.2141 55.0727 56.2281 55.082 56.2467 55.082C56.2654 55.082 56.2794 55.0727 56.2887 55.054L57.8147 49.986C57.8427 49.9113 57.8987 49.874 57.9827 49.874L59.1587 49.888C59.2614 49.888 59.2987 49.9393 59.2707 50.042L57.0027 56.888C56.9747 56.9627 56.9187 57 56.8347 57H55.6587ZM61.4717 48.754C61.2104 48.754 60.9957 48.67 60.8277 48.502C60.6597 48.334 60.5757 48.1193 60.5757 47.858C60.5757 47.5967 60.6597 47.382 60.8277 47.214C60.9957 47.046 61.2104 46.962 61.4717 46.962C61.733 46.962 61.9477 47.046 62.1157 47.214C62.2837 47.382 62.3677 47.5967 62.3677 47.858C62.3677 48.1193 62.2837 48.334 62.1157 48.502C61.9477 48.67 61.733 48.754 61.4717 48.754ZM60.9117 56.986C60.8184 56.986 60.7717 56.9393 60.7717 56.846V50.014C60.7717 49.9207 60.8184 49.874 60.9117 49.874H61.9757C62.069 49.874 62.1157 49.9207 62.1157 50.014V56.846C62.1157 56.9393 62.069 56.986 61.9757 56.986H60.9117ZM67.406 49.776C68.1714 49.776 68.778 50 69.226 50.448C69.674 50.8867 69.898 51.484 69.898 52.24V56.86C69.898 56.9533 69.8514 57 69.758 57H68.694C68.6007 57 68.554 56.9533 68.554 56.86V52.506C68.554 52.0393 68.4187 51.6613 68.148 51.372C67.8774 51.0827 67.518 50.938 67.07 50.938C66.6314 50.938 66.272 51.0827 65.992 51.372C65.712 51.6613 65.572 52.0347 65.572 52.492V56.86C65.572 56.9533 65.5254 57 65.432 57H64.368C64.2747 57 64.228 56.9533 64.228 56.86V50.014C64.228 49.9207 64.2747 49.874 64.368 49.874H65.432C65.5254 49.874 65.572 49.9207 65.572 50.014V50.518C65.572 50.5367 65.5767 50.5507 65.586 50.56C65.6047 50.5693 65.6187 50.5647 65.628 50.546C66.0294 50.0327 66.622 49.776 67.406 49.776ZM76.1979 50.014C76.1979 49.9207 76.2446 49.874 76.3379 49.874H77.4019C77.4953 49.874 77.5419 49.9207 77.5419 50.014V56.636C77.5419 57.7653 77.2199 58.5727 76.5759 59.058C75.9413 59.5433 75.0873 59.786 74.0139 59.786C73.8646 59.786 73.6313 59.7767 73.3139 59.758C73.2206 59.7487 73.1739 59.6973 73.1739 59.604L73.2159 58.638C73.2159 58.6007 73.2299 58.568 73.2579 58.54C73.2859 58.512 73.3233 58.5027 73.3699 58.512C73.5006 58.5213 73.6919 58.526 73.9439 58.526C74.7373 58.526 75.3113 58.3767 75.6659 58.078C76.0206 57.7887 76.1979 57.294 76.1979 56.594V56.342C76.1979 56.3233 76.1886 56.3093 76.1699 56.3C76.1606 56.2907 76.1466 56.2953 76.1279 56.314C75.7359 56.7713 75.1619 57 74.4059 57C73.7993 57 73.2486 56.8413 72.7539 56.524C72.2686 56.2067 71.9326 55.74 71.7459 55.124C71.6246 54.7133 71.5639 54.144 71.5639 53.416C71.5639 52.6413 71.6339 52.044 71.7739 51.624C71.9513 51.064 72.2639 50.616 72.7119 50.28C73.1693 49.9347 73.7059 49.762 74.3219 49.762C75.0873 49.762 75.6893 49.9953 76.1279 50.462C76.1466 50.4807 76.1606 50.49 76.1699 50.49C76.1886 50.4807 76.1979 50.4667 76.1979 50.448V50.014ZM76.1139 54.718C76.1419 54.5687 76.1606 54.41 76.1699 54.242C76.1886 54.074 76.1979 53.794 76.1979 53.402C76.1979 53.01 76.1886 52.7347 76.1699 52.576C76.1606 52.408 76.1373 52.2493 76.0999 52.1C76.0253 51.7547 75.8573 51.4747 75.5959 51.26C75.3346 51.036 75.0079 50.924 74.6159 50.924C74.2239 50.924 73.8973 51.036 73.6359 51.26C73.3746 51.4747 73.1879 51.7547 73.0759 52.1C72.9733 52.38 72.9219 52.814 72.9219 53.402C72.9219 54.046 72.9686 54.4847 73.0619 54.718C73.1553 55.0633 73.3373 55.348 73.6079 55.572C73.8879 55.7867 74.2239 55.894 74.6159 55.894C75.0266 55.894 75.3579 55.7867 75.6099 55.572C75.8713 55.348 76.0393 55.0633 76.1139 54.718ZM85.3562 48.376C84.8896 48.376 84.5722 48.4647 84.4042 48.642C84.2362 48.8193 84.1522 49.1553 84.1522 49.65V49.818C84.1522 49.8553 84.1709 49.874 84.2082 49.874H85.6782C85.7716 49.874 85.8182 49.9207 85.8182 50.014V50.966C85.8182 51.0593 85.7716 51.106 85.6782 51.106H84.2082C84.1709 51.106 84.1522 51.1247 84.1522 51.162V56.86C84.1522 56.9533 84.1056 57 84.0122 57H82.9482C82.8549 57 82.8082 56.9533 82.8082 56.86V51.162C82.8082 51.1247 82.7896 51.106 82.7522 51.106H81.8142C81.7209 51.106 81.6742 51.0593 81.6742 50.966V50.014C81.6742 49.9207 81.7209 49.874 81.8142 49.874H82.7522C82.7896 49.874 82.8082 49.8553 82.8082 49.818V49.566C82.8082 48.95 82.8782 48.474 83.0182 48.138C83.1676 47.802 83.4149 47.564 83.7602 47.424C84.1056 47.2747 84.5909 47.2 85.2162 47.2H85.6922C85.7856 47.2 85.8322 47.2467 85.8322 47.34V48.236C85.8322 48.3293 85.7856 48.376 85.6922 48.376H85.3562ZM90.4829 49.804C90.7815 49.804 91.0522 49.8647 91.2949 49.986C91.3602 50.014 91.3835 50.07 91.3649 50.154L91.1409 51.204C91.1315 51.288 91.0755 51.316 90.9729 51.288C90.8142 51.2227 90.6275 51.19 90.4129 51.19L90.2169 51.204C89.7782 51.2227 89.4142 51.3767 89.1249 51.666C88.8449 51.946 88.7049 52.3147 88.7049 52.772V56.86C88.7049 56.9533 88.6582 57 88.5649 57H87.5009C87.4075 57 87.3609 56.9533 87.3609 56.86V50.014C87.3609 49.9207 87.4075 49.874 87.5009 49.874H88.5649C88.6582 49.874 88.7049 49.9207 88.7049 50.014V50.756C88.7049 50.784 88.7095 50.8027 88.7189 50.812C88.7375 50.812 88.7515 50.8027 88.7609 50.784C89.1809 50.1307 89.7549 49.804 90.4829 49.804ZM93.3682 48.754C93.1068 48.754 92.8922 48.67 92.7242 48.502C92.5562 48.334 92.4722 48.1193 92.4722 47.858C92.4722 47.5967 92.5562 47.382 92.7242 47.214C92.8922 47.046 93.1068 46.962 93.3682 46.962C93.6295 46.962 93.8442 47.046 94.0122 47.214C94.1802 47.382 94.2642 47.5967 94.2642 47.858C94.2642 48.1193 94.1802 48.334 94.0122 48.502C93.8442 48.67 93.6295 48.754 93.3682 48.754ZM92.8082 56.986C92.7148 56.986 92.6682 56.9393 92.6682 56.846V50.014C92.6682 49.9207 92.7148 49.874 92.8082 49.874H93.8722C93.9655 49.874 94.0122 49.9207 94.0122 50.014V56.846C94.0122 56.9393 93.9655 56.986 93.8722 56.986H92.8082ZM98.9805 57.112C98.2712 57.112 97.6645 56.9347 97.1605 56.58C96.6565 56.216 96.3112 55.726 96.1245 55.11C95.9845 54.6807 95.9145 54.116 95.9145 53.416C95.9145 52.772 95.9845 52.2073 96.1245 51.722C96.3112 51.1247 96.6565 50.6487 97.1605 50.294C97.6739 49.9393 98.2805 49.762 98.9805 49.762C99.6805 49.762 100.292 49.9393 100.815 50.294C101.337 50.6487 101.678 51.0967 101.837 51.638C101.893 51.7873 101.93 51.9413 101.949 52.1C101.949 52.1747 101.907 52.2213 101.823 52.24L100.773 52.394H100.745C100.679 52.394 100.633 52.352 100.605 52.268L100.563 52.044C100.488 51.7267 100.306 51.4607 100.017 51.246C99.7272 51.0313 99.3772 50.924 98.9665 50.924C98.5652 50.924 98.2245 51.0313 97.9445 51.246C97.6645 51.4607 97.4825 51.7453 97.3985 52.1C97.3145 52.436 97.2725 52.8793 97.2725 53.43C97.2725 53.9713 97.3145 54.41 97.3985 54.746C97.4919 55.1193 97.6739 55.4133 97.9445 55.628C98.2245 55.8427 98.5652 55.95 98.9665 55.95C99.3772 55.95 99.7272 55.8427 100.017 55.628C100.315 55.4133 100.502 55.1333 100.577 54.788C100.586 54.7787 100.586 54.7693 100.577 54.76C100.577 54.7413 100.581 54.7273 100.591 54.718V54.662C100.619 54.5873 100.67 54.5593 100.745 54.578L101.795 54.746C101.869 54.7647 101.907 54.802 101.907 54.858V54.914C101.907 54.998 101.883 55.1007 101.837 55.222C101.678 55.7913 101.337 56.2487 100.815 56.594C100.292 56.9393 99.6805 57.112 98.9805 57.112ZM107.008 50.84C107.008 50.9333 106.961 50.98 106.868 50.98H105.356C105.318 50.98 105.3 50.9987 105.3 51.036V54.746C105.3 55.138 105.388 55.4227 105.566 55.6C105.743 55.768 106.018 55.852 106.392 55.852H106.798C106.891 55.852 106.938 55.8987 106.938 55.992V56.86C106.938 56.9533 106.891 57 106.798 57C106.499 57.0187 106.284 57.028 106.154 57.028C105.444 57.028 104.908 56.902 104.544 56.65C104.189 56.3887 104.012 55.9127 104.012 55.222V51.036C104.012 50.9987 103.993 50.98 103.956 50.98H103.102C103.008 50.98 102.962 50.9333 102.962 50.84V50.014C102.962 49.9207 103.008 49.874 103.102 49.874H103.956C103.993 49.874 104.012 49.8553 104.012 49.818V48.166C104.012 48.0727 104.058 48.026 104.152 48.026H105.16C105.253 48.026 105.3 48.0727 105.3 48.166V49.818C105.3 49.8553 105.318 49.874 105.356 49.874H106.868C106.961 49.874 107.008 49.9207 107.008 50.014V50.84ZM109.474 48.754C109.212 48.754 108.998 48.67 108.83 48.502C108.662 48.334 108.578 48.1193 108.578 47.858C108.578 47.5967 108.662 47.382 108.83 47.214C108.998 47.046 109.212 46.962 109.474 46.962C109.735 46.962 109.95 47.046 110.118 47.214C110.286 47.382 110.37 47.5967 110.37 47.858C110.37 48.1193 110.286 48.334 110.118 48.502C109.95 48.67 109.735 48.754 109.474 48.754ZM108.914 56.986C108.82 56.986 108.774 56.9393 108.774 56.846V50.014C108.774 49.9207 108.82 49.874 108.914 49.874H109.978C110.071 49.874 110.118 49.9207 110.118 50.014V56.846C110.118 56.9393 110.071 56.986 109.978 56.986H108.914ZM115.142 57.112C114.451 57.112 113.849 56.9393 113.336 56.594C112.823 56.2393 112.463 55.7493 112.258 55.124C112.09 54.62 112.006 54.0507 112.006 53.416C112.006 52.7533 112.085 52.1933 112.244 51.736C112.449 51.12 112.809 50.6393 113.322 50.294C113.835 49.9393 114.447 49.762 115.156 49.762C115.828 49.762 116.411 49.9393 116.906 50.294C117.41 50.6393 117.769 51.1153 117.984 51.722C118.152 52.198 118.236 52.758 118.236 53.402C118.236 54.0553 118.152 54.6293 117.984 55.124C117.779 55.7493 117.424 56.2393 116.92 56.594C116.416 56.9393 115.823 57.112 115.142 57.112ZM115.142 55.95C115.515 55.95 115.842 55.8473 116.122 55.642C116.402 55.4273 116.603 55.1287 116.724 54.746C116.827 54.3913 116.878 53.9527 116.878 53.43C116.878 52.9073 116.831 52.4733 116.738 52.128C116.617 51.7453 116.416 51.4513 116.136 51.246C115.856 51.0313 115.515 50.924 115.114 50.924C114.731 50.924 114.4 51.0313 114.12 51.246C113.84 51.4513 113.639 51.7453 113.518 52.128C113.415 52.4547 113.364 52.8887 113.364 53.43C113.364 53.9713 113.415 54.41 113.518 54.746C113.63 55.1287 113.826 55.4273 114.106 55.642C114.395 55.8473 114.741 55.95 115.142 55.95ZM123.174 49.776C123.939 49.776 124.546 50 124.994 50.448C125.442 50.8867 125.666 51.484 125.666 52.24V56.86C125.666 56.9533 125.619 57 125.526 57H124.462C124.368 57 124.322 56.9533 124.322 56.86V52.506C124.322 52.0393 124.186 51.6613 123.916 51.372C123.645 51.0827 123.286 50.938 122.838 50.938C122.399 50.938 122.04 51.0827 121.76 51.372C121.48 51.6613 121.34 52.0347 121.34 52.492V56.86C121.34 56.9533 121.293 57 121.2 57H120.136C120.042 57 119.996 56.9533 119.996 56.86V50.014C119.996 49.9207 120.042 49.874 120.136 49.874H121.2C121.293 49.874 121.34 49.9207 121.34 50.014V50.518C121.34 50.5367 121.344 50.5507 121.354 50.56C121.372 50.5693 121.386 50.5647 121.396 50.546C121.797 50.0327 122.39 49.776 123.174 49.776ZM136.14 51.722C136.29 52.198 136.364 52.7627 136.364 53.416C136.364 54.116 136.276 54.7133 136.098 55.208C135.893 55.8147 135.566 56.286 135.118 56.622C134.68 56.9487 134.124 57.112 133.452 57.112C133.126 57.112 132.822 57.0467 132.542 56.916C132.262 56.7853 132.02 56.6033 131.814 56.37C131.796 56.3513 131.777 56.3467 131.758 56.356C131.749 56.3653 131.744 56.3793 131.744 56.398V56.86C131.744 56.9533 131.698 57 131.604 57H130.54C130.447 57 130.4 56.9533 130.4 56.86V47.34C130.4 47.2467 130.447 47.2 130.54 47.2H131.604C131.698 47.2 131.744 47.2467 131.744 47.34V50.462C131.744 50.4807 131.749 50.4947 131.758 50.504C131.777 50.5133 131.796 50.5087 131.814 50.49C132.02 50.2567 132.262 50.0793 132.542 49.958C132.832 49.8273 133.135 49.762 133.452 49.762C134.152 49.762 134.726 49.9347 135.174 50.28C135.622 50.6253 135.944 51.106 136.14 51.722ZM134.656 55.18C134.89 54.7413 135.006 54.1627 135.006 53.444C135.006 52.6787 134.857 52.0627 134.558 51.596C134.288 51.148 133.872 50.924 133.312 50.924C132.79 50.924 132.393 51.162 132.122 51.638C131.88 52.0673 131.758 52.6647 131.758 53.43C131.758 54.1953 131.87 54.7833 132.094 55.194C132.374 55.698 132.785 55.95 133.326 55.95C133.942 55.95 134.386 55.6933 134.656 55.18ZM143.811 52.548C143.848 52.9307 143.862 53.36 143.853 53.836C143.853 53.9293 143.806 53.976 143.713 53.976H139.247C139.209 53.976 139.191 53.9947 139.191 54.032C139.191 54.3493 139.219 54.592 139.275 54.76C139.377 55.1333 139.583 55.4273 139.891 55.642C140.208 55.8473 140.605 55.95 141.081 55.95C141.771 55.95 142.303 55.6653 142.677 55.096C142.723 55.0027 142.784 54.9887 142.859 55.054L143.657 55.586C143.722 55.642 143.736 55.7027 143.699 55.768C143.437 56.188 143.064 56.5193 142.579 56.762C142.103 57.0047 141.561 57.126 140.955 57.126C140.273 57.126 139.699 56.9767 139.233 56.678C138.766 56.3793 138.416 55.9547 138.183 55.404C137.959 54.8533 137.847 54.186 137.847 53.402C137.847 52.7207 137.898 52.2027 138.001 51.848C138.169 51.204 138.505 50.6953 139.009 50.322C139.513 49.9487 140.124 49.762 140.843 49.762C141.785 49.762 142.49 50 142.957 50.476C143.423 50.9427 143.708 51.6333 143.811 52.548ZM140.843 50.924C140.441 50.924 140.11 51.0267 139.849 51.232C139.587 51.428 139.41 51.694 139.317 52.03C139.251 52.2353 139.209 52.4967 139.191 52.814C139.191 52.8513 139.209 52.87 139.247 52.87H142.453C142.49 52.87 142.509 52.8513 142.509 52.814C142.49 52.506 142.462 52.2773 142.425 52.128C142.331 51.764 142.145 51.4747 141.865 51.26C141.594 51.036 141.253 50.924 140.843 50.924ZM148.575 48.376C148.108 48.376 147.791 48.4647 147.623 48.642C147.455 48.8193 147.371 49.1553 147.371 49.65V49.818C147.371 49.8553 147.39 49.874 147.427 49.874H148.897C148.99 49.874 149.037 49.9207 149.037 50.014V50.966C149.037 51.0593 148.99 51.106 148.897 51.106H147.427C147.39 51.106 147.371 51.1247 147.371 51.162V56.86C147.371 56.9533 147.324 57 147.231 57H146.167C146.074 57 146.027 56.9533 146.027 56.86V51.162C146.027 51.1247 146.008 51.106 145.971 51.106H145.033C144.94 51.106 144.893 51.0593 144.893 50.966V50.014C144.893 49.9207 144.94 49.874 145.033 49.874H145.971C146.008 49.874 146.027 49.8553 146.027 49.818V49.566C146.027 48.95 146.097 48.474 146.237 48.138C146.386 47.802 146.634 47.564 146.979 47.424C147.324 47.2747 147.81 47.2 148.435 47.2H148.911C149.004 47.2 149.051 47.2467 149.051 47.34V48.236C149.051 48.3293 149.004 48.376 148.911 48.376H148.575ZM152.917 57.112C152.227 57.112 151.625 56.9393 151.111 56.594C150.598 56.2393 150.239 55.7493 150.033 55.124C149.865 54.62 149.781 54.0507 149.781 53.416C149.781 52.7533 149.861 52.1933 150.019 51.736C150.225 51.12 150.584 50.6393 151.097 50.294C151.611 49.9393 152.222 49.762 152.931 49.762C153.603 49.762 154.187 49.9393 154.681 50.294C155.185 50.6393 155.545 51.1153 155.759 51.722C155.927 52.198 156.011 52.758 156.011 53.402C156.011 54.0553 155.927 54.6293 155.759 55.124C155.554 55.7493 155.199 56.2393 154.695 56.594C154.191 56.9393 153.599 57.112 152.917 57.112ZM152.917 55.95C153.291 55.95 153.617 55.8473 153.897 55.642C154.177 55.4273 154.378 55.1287 154.499 54.746C154.602 54.3913 154.653 53.9527 154.653 53.43C154.653 52.9073 154.607 52.4733 154.513 52.128C154.392 51.7453 154.191 51.4513 153.911 51.246C153.631 51.0313 153.291 50.924 152.889 50.924C152.507 50.924 152.175 51.0313 151.895 51.246C151.615 51.4513 151.415 51.7453 151.293 52.128C151.191 52.4547 151.139 52.8887 151.139 53.43C151.139 53.9713 151.191 54.41 151.293 54.746C151.405 55.1287 151.601 55.4273 151.881 55.642C152.171 55.8473 152.516 55.95 152.917 55.95ZM160.893 49.804C161.192 49.804 161.462 49.8647 161.705 49.986C161.77 50.014 161.794 50.07 161.775 50.154L161.551 51.204C161.542 51.288 161.486 51.316 161.383 51.288C161.224 51.2227 161.038 51.19 160.823 51.19L160.627 51.204C160.188 51.2227 159.824 51.3767 159.535 51.666C159.255 51.946 159.115 52.3147 159.115 52.772V56.86C159.115 56.9533 159.068 57 158.975 57H157.911C157.818 57 157.771 56.9533 157.771 56.86V50.014C157.771 49.9207 157.818 49.874 157.911 49.874H158.975C159.068 49.874 159.115 49.9207 159.115 50.014V50.756C159.115 50.784 159.12 50.8027 159.129 50.812C159.148 50.812 159.162 50.8027 159.171 50.784C159.591 50.1307 160.165 49.804 160.893 49.804ZM168.625 52.548C168.662 52.9307 168.676 53.36 168.667 53.836C168.667 53.9293 168.62 53.976 168.527 53.976H164.061C164.024 53.976 164.005 53.9947 164.005 54.032C164.005 54.3493 164.033 54.592 164.089 54.76C164.192 55.1333 164.397 55.4273 164.705 55.642C165.022 55.8473 165.419 55.95 165.895 55.95C166.586 55.95 167.118 55.6653 167.491 55.096C167.538 55.0027 167.598 54.9887 167.673 55.054L168.471 55.586C168.536 55.642 168.55 55.7027 168.513 55.768C168.252 56.188 167.878 56.5193 167.393 56.762C166.917 57.0047 166.376 57.126 165.769 57.126C165.088 57.126 164.514 56.9767 164.047 56.678C163.58 56.3793 163.23 55.9547 162.997 55.404C162.773 54.8533 162.661 54.186 162.661 53.402C162.661 52.7207 162.712 52.2027 162.815 51.848C162.983 51.204 163.319 50.6953 163.823 50.322C164.327 49.9487 164.938 49.762 165.657 49.762C166.6 49.762 167.304 50 167.771 50.476C168.238 50.9427 168.522 51.6333 168.625 52.548ZM165.657 50.924C165.256 50.924 164.924 51.0267 164.663 51.232C164.402 51.428 164.224 51.694 164.131 52.03C164.066 52.2353 164.024 52.4967 164.005 52.814C164.005 52.8513 164.024 52.87 164.061 52.87H167.267C167.304 52.87 167.323 52.8513 167.323 52.814C167.304 52.506 167.276 52.2773 167.239 52.128C167.146 51.764 166.959 51.4747 166.679 51.26C166.408 51.036 166.068 50.924 165.657 50.924ZM176.022 57.112C175.312 57.112 174.706 56.9347 174.202 56.58C173.698 56.216 173.352 55.726 173.166 55.11C173.026 54.6807 172.956 54.116 172.956 53.416C172.956 52.772 173.026 52.2073 173.166 51.722C173.352 51.1247 173.698 50.6487 174.202 50.294C174.715 49.9393 175.322 49.762 176.022 49.762C176.722 49.762 177.333 49.9393 177.856 50.294C178.378 50.6487 178.719 51.0967 178.878 51.638C178.934 51.7873 178.971 51.9413 178.99 52.1C178.99 52.1747 178.948 52.2213 178.864 52.24L177.814 52.394H177.786C177.72 52.394 177.674 52.352 177.646 52.268L177.604 52.044C177.529 51.7267 177.347 51.4607 177.058 51.246C176.768 51.0313 176.418 50.924 176.008 50.924C175.606 50.924 175.266 51.0313 174.986 51.246C174.706 51.4607 174.524 51.7453 174.44 52.1C174.356 52.436 174.314 52.8793 174.314 53.43C174.314 53.9713 174.356 54.41 174.44 54.746C174.533 55.1193 174.715 55.4133 174.986 55.628C175.266 55.8427 175.606 55.95 176.008 55.95C176.418 55.95 176.768 55.8427 177.058 55.628C177.356 55.4133 177.543 55.1333 177.618 54.788C177.627 54.7787 177.627 54.7693 177.618 54.76C177.618 54.7413 177.622 54.7273 177.632 54.718V54.662C177.66 54.5873 177.711 54.5593 177.786 54.578L178.836 54.746C178.91 54.7647 178.948 54.802 178.948 54.858V54.914C178.948 54.998 178.924 55.1007 178.878 55.222C178.719 55.7913 178.378 56.2487 177.856 56.594C177.333 56.9393 176.722 57.112 176.022 57.112ZM183.713 49.776C184.478 49.776 185.085 50 185.533 50.448C185.981 50.8867 186.205 51.484 186.205 52.24V56.86C186.205 56.9533 186.158 57 186.065 57H185.001C184.907 57 184.861 56.9533 184.861 56.86V52.506C184.861 52.0393 184.725 51.6613 184.455 51.372C184.184 51.0827 183.825 50.938 183.377 50.938C182.938 50.938 182.579 51.0827 182.299 51.372C182.019 51.6613 181.879 52.0347 181.879 52.492V56.86C181.879 56.9533 181.832 57 181.739 57H180.675C180.581 57 180.535 56.9533 180.535 56.86V47.34C180.535 47.2467 180.581 47.2 180.675 47.2H181.739C181.832 47.2 181.879 47.2467 181.879 47.34V50.518C181.879 50.5367 181.883 50.5507 181.893 50.56C181.911 50.5693 181.925 50.5647 181.935 50.546C182.336 50.0327 182.929 49.776 183.713 49.776ZM193.809 52.548C193.846 52.9307 193.86 53.36 193.851 53.836C193.851 53.9293 193.804 53.976 193.711 53.976H189.245C189.207 53.976 189.189 53.9947 189.189 54.032C189.189 54.3493 189.217 54.592 189.273 54.76C189.375 55.1333 189.581 55.4273 189.889 55.642C190.206 55.8473 190.603 55.95 191.079 55.95C191.769 55.95 192.301 55.6653 192.675 55.096C192.721 55.0027 192.782 54.9887 192.857 55.054L193.655 55.586C193.72 55.642 193.734 55.7027 193.697 55.768C193.435 56.188 193.062 56.5193 192.577 56.762C192.101 57.0047 191.559 57.126 190.953 57.126C190.271 57.126 189.697 56.9767 189.231 56.678C188.764 56.3793 188.414 55.9547 188.181 55.404C187.957 54.8533 187.845 54.186 187.845 53.402C187.845 52.7207 187.896 52.2027 187.999 51.848C188.167 51.204 188.503 50.6953 189.007 50.322C189.511 49.9487 190.122 49.762 190.841 49.762C191.783 49.762 192.488 50 192.955 50.476C193.421 50.9427 193.706 51.6333 193.809 52.548ZM190.841 50.924C190.439 50.924 190.108 51.0267 189.847 51.232C189.585 51.428 189.408 51.694 189.315 52.03C189.249 52.2353 189.207 52.4967 189.189 52.814C189.189 52.8513 189.207 52.87 189.245 52.87H192.451C192.488 52.87 192.507 52.8513 192.507 52.814C192.488 52.506 192.46 52.2773 192.423 52.128C192.329 51.764 192.143 51.4747 191.863 51.26C191.592 51.036 191.251 50.924 190.841 50.924ZM198.402 57.112C197.693 57.112 197.086 56.9347 196.582 56.58C196.078 56.216 195.733 55.726 195.546 55.11C195.406 54.6807 195.336 54.116 195.336 53.416C195.336 52.772 195.406 52.2073 195.546 51.722C195.733 51.1247 196.078 50.6487 196.582 50.294C197.096 49.9393 197.702 49.762 198.402 49.762C199.102 49.762 199.714 49.9393 200.236 50.294C200.759 50.6487 201.1 51.0967 201.258 51.638C201.314 51.7873 201.352 51.9413 201.37 52.1C201.37 52.1747 201.328 52.2213 201.244 52.24L200.194 52.394H200.166C200.101 52.394 200.054 52.352 200.026 52.268L199.984 52.044C199.91 51.7267 199.728 51.4607 199.438 51.246C199.149 51.0313 198.799 50.924 198.388 50.924C197.987 50.924 197.646 51.0313 197.366 51.246C197.086 51.4607 196.904 51.7453 196.82 52.1C196.736 52.436 196.694 52.8793 196.694 53.43C196.694 53.9713 196.736 54.41 196.82 54.746C196.914 55.1193 197.096 55.4133 197.366 55.628C197.646 55.8427 197.987 55.95 198.388 55.95C198.799 55.95 199.149 55.8427 199.438 55.628C199.737 55.4133 199.924 55.1333 199.998 54.788C200.008 54.7787 200.008 54.7693 199.998 54.76C199.998 54.7413 200.003 54.7273 200.012 54.718V54.662C200.04 54.5873 200.092 54.5593 200.166 54.578L201.216 54.746C201.291 54.7647 201.328 54.802 201.328 54.858V54.914C201.328 54.998 201.305 55.1007 201.258 55.222C201.1 55.7913 200.759 56.2487 200.236 56.594C199.714 56.9393 199.102 57.112 198.402 57.112ZM203.056 57C202.962 57 202.916 56.9533 202.916 56.86V47.34C202.916 47.2467 202.962 47.2 203.056 47.2H204.12C204.213 47.2 204.26 47.2467 204.26 47.34V52.73C204.26 52.7487 204.269 52.7627 204.288 52.772C204.306 52.7813 204.32 52.7767 204.33 52.758L206.92 49.944C206.957 49.8973 207.013 49.874 207.088 49.874H208.334C208.39 49.874 208.422 49.8927 208.432 49.93C208.45 49.958 208.441 49.9953 208.404 50.042L206.598 52.128C206.579 52.1653 206.574 52.1933 206.584 52.212L208.726 56.832L208.74 56.888C208.74 56.9627 208.698 57 208.614 57H207.494C207.419 57 207.368 56.9627 207.34 56.888L205.674 53.08C205.655 53.0333 205.632 53.0287 205.604 53.066L204.288 54.522C204.269 54.5593 204.26 54.5827 204.26 54.592V56.86C204.26 56.9533 204.213 57 204.12 57H203.056ZM212.581 57.112C211.891 57.112 211.289 56.9393 210.775 56.594C210.262 56.2393 209.903 55.7493 209.697 55.124C209.529 54.62 209.445 54.0507 209.445 53.416C209.445 52.7533 209.525 52.1933 209.683 51.736C209.889 51.12 210.248 50.6393 210.761 50.294C211.275 49.9393 211.886 49.762 212.595 49.762C213.267 49.762 213.851 49.9393 214.345 50.294C214.849 50.6393 215.209 51.1153 215.423 51.722C215.591 52.198 215.675 52.758 215.675 53.402C215.675 54.0553 215.591 54.6293 215.423 55.124C215.218 55.7493 214.863 56.2393 214.359 56.594C213.855 56.9393 213.263 57.112 212.581 57.112ZM212.581 55.95C212.955 55.95 213.281 55.8473 213.561 55.642C213.841 55.4273 214.042 55.1287 214.163 54.746C214.266 54.3913 214.317 53.9527 214.317 53.43C214.317 52.9073 214.271 52.4733 214.177 52.128C214.056 51.7453 213.855 51.4513 213.575 51.246C213.295 51.0313 212.955 50.924 212.553 50.924C212.171 50.924 211.839 51.0313 211.559 51.246C211.279 51.4513 211.079 51.7453 210.957 52.128C210.855 52.4547 210.803 52.8887 210.803 53.43C210.803 53.9713 210.855 54.41 210.957 54.746C211.069 55.1287 211.265 55.4273 211.545 55.642C211.835 55.8473 212.18 55.95 212.581 55.95ZM221.677 50.014C221.677 49.9207 221.724 49.874 221.817 49.874H222.867C222.96 49.874 223.007 49.9207 223.007 50.014V56.86C223.007 56.9533 222.96 57 222.867 57H221.817C221.724 57 221.677 56.9533 221.677 56.86V56.342C221.677 56.3233 221.668 56.314 221.649 56.314C221.64 56.3047 221.626 56.3093 221.607 56.328C221.234 56.8413 220.66 57.098 219.885 57.098C219.428 57.098 219.003 57.0093 218.611 56.832C218.228 56.6547 217.92 56.3933 217.687 56.048C217.454 55.7027 217.337 55.2827 217.337 54.788V50.014C217.337 49.9207 217.384 49.874 217.477 49.874H218.527C218.62 49.874 218.667 49.9207 218.667 50.014V54.368C218.667 54.8533 218.793 55.236 219.045 55.516C219.306 55.796 219.67 55.936 220.137 55.936C220.604 55.936 220.977 55.796 221.257 55.516C221.537 55.2267 221.677 54.844 221.677 54.368V50.014ZM228.482 50.84C228.482 50.9333 228.436 50.98 228.342 50.98H226.83C226.793 50.98 226.774 50.9987 226.774 51.036V54.746C226.774 55.138 226.863 55.4227 227.04 55.6C227.218 55.768 227.493 55.852 227.866 55.852H228.272C228.366 55.852 228.412 55.8987 228.412 55.992V56.86C228.412 56.9533 228.366 57 228.272 57C227.974 57.0187 227.759 57.028 227.628 57.028C226.919 57.028 226.382 56.902 226.018 56.65C225.664 56.3887 225.486 55.9127 225.486 55.222V51.036C225.486 50.9987 225.468 50.98 225.43 50.98H224.576C224.483 50.98 224.436 50.9333 224.436 50.84V50.014C224.436 49.9207 224.483 49.874 224.576 49.874H225.43C225.468 49.874 225.486 49.8553 225.486 49.818V48.166C225.486 48.0727 225.533 48.026 225.626 48.026H226.634C226.728 48.026 226.774 48.0727 226.774 48.166V49.818C226.774 49.8553 226.793 49.874 226.83 49.874H228.342C228.436 49.874 228.482 49.9207 228.482 50.014V50.84Z" fill="#212121" fill-opacity="0.7"/>
<path d="M44.172 165.112C43.4533 165.112 42.828 165 42.296 164.776C41.7733 164.552 41.3673 164.235 41.078 163.824C40.798 163.413 40.658 162.933 40.658 162.382V161.976C40.658 161.883 40.7047 161.836 40.798 161.836H41.82C41.9133 161.836 41.96 161.883 41.96 161.976V162.312C41.96 162.788 42.1653 163.18 42.576 163.488C42.9867 163.796 43.5513 163.95 44.27 163.95C44.914 163.95 45.3993 163.815 45.726 163.544C46.0527 163.273 46.216 162.919 46.216 162.48C46.216 162.191 46.132 161.943 45.964 161.738C45.796 161.533 45.5487 161.346 45.222 161.178C44.9047 161.001 44.438 160.791 43.822 160.548C43.1407 160.287 42.5993 160.049 42.198 159.834C41.806 159.619 41.4793 159.339 41.218 158.994C40.9567 158.639 40.826 158.196 40.826 157.664C40.826 156.861 41.1107 156.231 41.68 155.774C42.2587 155.317 43.038 155.088 44.018 155.088C44.7087 155.088 45.3153 155.205 45.838 155.438C46.3607 155.671 46.762 155.998 47.042 156.418C47.3313 156.838 47.476 157.323 47.476 157.874V158.154C47.476 158.247 47.4293 158.294 47.336 158.294H46.286C46.1927 158.294 46.146 158.247 46.146 158.154V157.944C46.146 157.459 45.95 157.057 45.558 156.74C45.1753 156.413 44.6433 156.25 43.962 156.25C43.3833 156.25 42.9353 156.371 42.618 156.614C42.3007 156.847 42.142 157.188 42.142 157.636C42.142 157.944 42.2213 158.196 42.38 158.392C42.5387 158.588 42.772 158.765 43.08 158.924C43.3973 159.073 43.878 159.269 44.522 159.512C45.1847 159.773 45.7213 160.016 46.132 160.24C46.5427 160.455 46.8833 160.744 47.154 161.108C47.4247 161.463 47.56 161.906 47.56 162.438C47.56 163.259 47.2567 163.913 46.65 164.398C46.0527 164.874 45.2267 165.112 44.172 165.112ZM52.3885 157.776C53.1538 157.776 53.7605 158 54.2085 158.448C54.6565 158.887 54.8805 159.484 54.8805 160.24V164.86C54.8805 164.953 54.8338 165 54.7405 165H53.6765C53.5831 165 53.5365 164.953 53.5365 164.86V160.506C53.5365 160.039 53.4011 159.661 53.1305 159.372C52.8598 159.083 52.5005 158.938 52.0525 158.938C51.6138 158.938 51.2545 159.083 50.9745 159.372C50.6945 159.661 50.5545 160.035 50.5545 160.492V164.86C50.5545 164.953 50.5078 165 50.4145 165H49.3505C49.2571 165 49.2105 164.953 49.2105 164.86V155.34C49.2105 155.247 49.2571 155.2 49.3505 155.2H50.4145C50.5078 155.2 50.5545 155.247 50.5545 155.34V158.518C50.5545 158.537 50.5591 158.551 50.5685 158.56C50.5871 158.569 50.6011 158.565 50.6105 158.546C51.0118 158.033 51.6045 157.776 52.3885 157.776ZM59.6283 165.112C58.9377 165.112 58.3357 164.939 57.8223 164.594C57.309 164.239 56.9497 163.749 56.7443 163.124C56.5763 162.62 56.4923 162.051 56.4923 161.416C56.4923 160.753 56.5717 160.193 56.7303 159.736C56.9357 159.12 57.295 158.639 57.8083 158.294C58.3217 157.939 58.933 157.762 59.6423 157.762C60.3143 157.762 60.8977 157.939 61.3923 158.294C61.8963 158.639 62.2557 159.115 62.4703 159.722C62.6383 160.198 62.7223 160.758 62.7223 161.402C62.7223 162.055 62.6383 162.629 62.4703 163.124C62.265 163.749 61.9103 164.239 61.4063 164.594C60.9023 164.939 60.3097 165.112 59.6283 165.112ZM59.6283 163.95C60.0017 163.95 60.3283 163.847 60.6083 163.642C60.8883 163.427 61.089 163.129 61.2103 162.746C61.313 162.391 61.3643 161.953 61.3643 161.43C61.3643 160.907 61.3177 160.473 61.2243 160.128C61.103 159.745 60.9023 159.451 60.6223 159.246C60.3423 159.031 60.0017 158.924 59.6003 158.924C59.2177 158.924 58.8863 159.031 58.6063 159.246C58.3263 159.451 58.1257 159.745 58.0043 160.128C57.9017 160.455 57.8503 160.889 57.8503 161.43C57.8503 161.971 57.9017 162.41 58.0043 162.746C58.1163 163.129 58.3123 163.427 58.5923 163.642C58.8817 163.847 59.227 163.95 59.6283 163.95ZM67.604 157.804C67.9026 157.804 68.1733 157.865 68.416 157.986C68.4813 158.014 68.5046 158.07 68.486 158.154L68.262 159.204C68.2526 159.288 68.1966 159.316 68.094 159.288C67.9353 159.223 67.7486 159.19 67.534 159.19L67.338 159.204C66.8993 159.223 66.5353 159.377 66.246 159.666C65.966 159.946 65.826 160.315 65.826 160.772V164.86C65.826 164.953 65.7793 165 65.686 165H64.622C64.5286 165 64.482 164.953 64.482 164.86V158.014C64.482 157.921 64.5286 157.874 64.622 157.874H65.686C65.7793 157.874 65.826 157.921 65.826 158.014V158.756C65.826 158.784 65.8306 158.803 65.84 158.812C65.8586 158.812 65.8726 158.803 65.882 158.784C66.302 158.131 66.876 157.804 67.604 157.804ZM73.3417 158.84C73.3417 158.933 73.295 158.98 73.2017 158.98H71.6897C71.6523 158.98 71.6337 158.999 71.6337 159.036V162.746C71.6337 163.138 71.7223 163.423 71.8997 163.6C72.077 163.768 72.3523 163.852 72.7257 163.852H73.1317C73.225 163.852 73.2717 163.899 73.2717 163.992V164.86C73.2717 164.953 73.225 165 73.1317 165C72.833 165.019 72.6183 165.028 72.4877 165.028C71.7783 165.028 71.2417 164.902 70.8777 164.65C70.523 164.389 70.3457 163.913 70.3457 163.222V159.036C70.3457 158.999 70.327 158.98 70.2897 158.98H69.4357C69.3423 158.98 69.2957 158.933 69.2957 158.84V158.014C69.2957 157.921 69.3423 157.874 69.4357 157.874H70.2897C70.327 157.874 70.3457 157.855 70.3457 157.818V156.166C70.3457 156.073 70.3923 156.026 70.4857 156.026H71.4937C71.587 156.026 71.6337 156.073 71.6337 156.166V157.818C71.6337 157.855 71.6523 157.874 71.6897 157.874H73.2017C73.295 157.874 73.3417 157.921 73.3417 158.014V158.84ZM80.5996 160.548C80.6369 160.931 80.6509 161.36 80.6416 161.836C80.6416 161.929 80.5949 161.976 80.5016 161.976H76.0356C75.9982 161.976 75.9796 161.995 75.9796 162.032C75.9796 162.349 76.0076 162.592 76.0636 162.76C76.1662 163.133 76.3716 163.427 76.6796 163.642C76.9969 163.847 77.3936 163.95 77.8696 163.95C78.5602 163.95 79.0922 163.665 79.4656 163.096C79.5122 163.003 79.5729 162.989 79.6476 163.054L80.4456 163.586C80.5109 163.642 80.5249 163.703 80.4876 163.768C80.2262 164.188 79.8529 164.519 79.3676 164.762C78.8916 165.005 78.3502 165.126 77.7436 165.126C77.0622 165.126 76.4882 164.977 76.0216 164.678C75.5549 164.379 75.2049 163.955 74.9716 163.404C74.7476 162.853 74.6356 162.186 74.6356 161.402C74.6356 160.721 74.6869 160.203 74.7896 159.848C74.9576 159.204 75.2936 158.695 75.7976 158.322C76.3016 157.949 76.9129 157.762 77.6316 157.762C78.5742 157.762 79.2789 158 79.7456 158.476C80.2122 158.943 80.4969 159.633 80.5996 160.548ZM77.6316 158.924C77.2302 158.924 76.8989 159.027 76.6376 159.232C76.3762 159.428 76.1989 159.694 76.1056 160.03C76.0402 160.235 75.9982 160.497 75.9796 160.814C75.9796 160.851 75.9982 160.87 76.0356 160.87H79.2416C79.2789 160.87 79.2976 160.851 79.2976 160.814C79.2789 160.506 79.2509 160.277 79.2136 160.128C79.1202 159.764 78.9336 159.475 78.6536 159.26C78.3829 159.036 78.0422 158.924 77.6316 158.924ZM85.5154 157.776C86.2808 157.776 86.8874 158 87.3354 158.448C87.7834 158.887 88.0074 159.484 88.0074 160.24V164.86C88.0074 164.953 87.9608 165 87.8674 165H86.8034C86.7101 165 86.6634 164.953 86.6634 164.86V160.506C86.6634 160.039 86.5281 159.661 86.2574 159.372C85.9868 159.083 85.6274 158.938 85.1794 158.938C84.7408 158.938 84.3814 159.083 84.1014 159.372C83.8214 159.661 83.6814 160.035 83.6814 160.492V164.86C83.6814 164.953 83.6348 165 83.5414 165H82.4774C82.3841 165 82.3374 164.953 82.3374 164.86V158.014C82.3374 157.921 82.3841 157.874 82.4774 157.874H83.5414C83.6348 157.874 83.6814 157.921 83.6814 158.014V158.518C83.6814 158.537 83.6861 158.551 83.6954 158.56C83.7141 158.569 83.7281 158.565 83.7374 158.546C84.1388 158.033 84.7314 157.776 85.5154 157.776ZM90.7373 156.754C90.476 156.754 90.2613 156.67 90.0933 156.502C89.9253 156.334 89.8413 156.119 89.8413 155.858C89.8413 155.597 89.9253 155.382 90.0933 155.214C90.2613 155.046 90.476 154.962 90.7373 154.962C90.9986 154.962 91.2133 155.046 91.3813 155.214C91.5493 155.382 91.6333 155.597 91.6333 155.858C91.6333 156.119 91.5493 156.334 91.3813 156.502C91.2133 156.67 90.9986 156.754 90.7373 156.754ZM90.1773 164.986C90.084 164.986 90.0373 164.939 90.0373 164.846V158.014C90.0373 157.921 90.084 157.874 90.1773 157.874H91.2413C91.3346 157.874 91.3813 157.921 91.3813 158.014V164.846C91.3813 164.939 91.3346 164.986 91.2413 164.986H90.1773ZM96.6717 157.776C97.437 157.776 98.0437 158 98.4917 158.448C98.9397 158.887 99.1637 159.484 99.1637 160.24V164.86C99.1637 164.953 99.117 165 99.0237 165H97.9597C97.8663 165 97.8197 164.953 97.8197 164.86V160.506C97.8197 160.039 97.6843 159.661 97.4137 159.372C97.143 159.083 96.7837 158.938 96.3357 158.938C95.897 158.938 95.5377 159.083 95.2577 159.372C94.9777 159.661 94.8377 160.035 94.8377 160.492V164.86C94.8377 164.953 94.791 165 94.6977 165H93.6337C93.5403 165 93.4937 164.953 93.4937 164.86V158.014C93.4937 157.921 93.5403 157.874 93.6337 157.874H94.6977C94.791 157.874 94.8377 157.921 94.8377 158.014V158.518C94.8377 158.537 94.8423 158.551 94.8517 158.56C94.8703 158.569 94.8843 158.565 94.8937 158.546C95.295 158.033 95.8877 157.776 96.6717 157.776ZM105.464 158.014C105.464 157.921 105.51 157.874 105.604 157.874H106.668C106.761 157.874 106.808 157.921 106.808 158.014V164.636C106.808 165.765 106.486 166.573 105.842 167.058C105.207 167.543 104.353 167.786 103.28 167.786C103.13 167.786 102.897 167.777 102.58 167.758C102.486 167.749 102.44 167.697 102.44 167.604L102.482 166.638C102.482 166.601 102.496 166.568 102.524 166.54C102.552 166.512 102.589 166.503 102.636 166.512C102.766 166.521 102.958 166.526 103.21 166.526C104.003 166.526 104.577 166.377 104.932 166.078C105.286 165.789 105.464 165.294 105.464 164.594V164.342C105.464 164.323 105.454 164.309 105.436 164.3C105.426 164.291 105.412 164.295 105.394 164.314C105.002 164.771 104.428 165 103.672 165C103.065 165 102.514 164.841 102.02 164.524C101.534 164.207 101.198 163.74 101.012 163.124C100.89 162.713 100.83 162.144 100.83 161.416C100.83 160.641 100.9 160.044 101.04 159.624C101.217 159.064 101.53 158.616 101.978 158.28C102.435 157.935 102.972 157.762 103.588 157.762C104.353 157.762 104.955 157.995 105.394 158.462C105.412 158.481 105.426 158.49 105.436 158.49C105.454 158.481 105.464 158.467 105.464 158.448V158.014ZM105.38 162.718C105.408 162.569 105.426 162.41 105.436 162.242C105.454 162.074 105.464 161.794 105.464 161.402C105.464 161.01 105.454 160.735 105.436 160.576C105.426 160.408 105.403 160.249 105.366 160.1C105.291 159.755 105.123 159.475 104.862 159.26C104.6 159.036 104.274 158.924 103.882 158.924C103.49 158.924 103.163 159.036 102.902 159.26C102.64 159.475 102.454 159.755 102.342 160.1C102.239 160.38 102.188 160.814 102.188 161.402C102.188 162.046 102.234 162.485 102.328 162.718C102.421 163.063 102.603 163.348 102.874 163.572C103.154 163.787 103.49 163.894 103.882 163.894C104.292 163.894 104.624 163.787 104.876 163.572C105.137 163.348 105.305 163.063 105.38 162.718ZM115 158.84C115 158.933 114.953 158.98 114.86 158.98H113.348C113.311 158.98 113.292 158.999 113.292 159.036V162.746C113.292 163.138 113.381 163.423 113.558 163.6C113.735 163.768 114.011 163.852 114.384 163.852H114.79C114.883 163.852 114.93 163.899 114.93 163.992V164.86C114.93 164.953 114.883 165 114.79 165C114.491 165.019 114.277 165.028 114.146 165.028C113.437 165.028 112.9 164.902 112.536 164.65C112.181 164.389 112.004 163.913 112.004 163.222V159.036C112.004 158.999 111.985 158.98 111.948 158.98H111.094C111.001 158.98 110.954 158.933 110.954 158.84V158.014C110.954 157.921 111.001 157.874 111.094 157.874H111.948C111.985 157.874 112.004 157.855 112.004 157.818V156.166C112.004 156.073 112.051 156.026 112.144 156.026H113.152C113.245 156.026 113.292 156.073 113.292 156.166V157.818C113.292 157.855 113.311 157.874 113.348 157.874H114.86C114.953 157.874 115 157.921 115 158.014V158.84ZM119.832 157.776C120.597 157.776 121.204 158 121.652 158.448C122.1 158.887 122.324 159.484 122.324 160.24V164.86C122.324 164.953 122.277 165 122.184 165H121.12C121.026 165 120.98 164.953 120.98 164.86V160.506C120.98 160.039 120.844 159.661 120.574 159.372C120.303 159.083 119.944 158.938 119.496 158.938C119.057 158.938 118.698 159.083 118.418 159.372C118.138 159.661 117.998 160.035 117.998 160.492V164.86C117.998 164.953 117.951 165 117.858 165H116.794C116.7 165 116.654 164.953 116.654 164.86V155.34C116.654 155.247 116.7 155.2 116.794 155.2H117.858C117.951 155.2 117.998 155.247 117.998 155.34V158.518C117.998 158.537 118.002 158.551 118.012 158.56C118.03 158.569 118.044 158.565 118.054 158.546C118.455 158.033 119.048 157.776 119.832 157.776ZM129.928 160.548C129.965 160.931 129.979 161.36 129.97 161.836C129.97 161.929 129.923 161.976 129.83 161.976H125.364C125.326 161.976 125.308 161.995 125.308 162.032C125.308 162.349 125.336 162.592 125.392 162.76C125.494 163.133 125.7 163.427 126.008 163.642C126.325 163.847 126.722 163.95 127.198 163.95C127.888 163.95 128.42 163.665 128.794 163.096C128.84 163.003 128.901 162.989 128.976 163.054L129.774 163.586C129.839 163.642 129.853 163.703 129.816 163.768C129.554 164.188 129.181 164.519 128.696 164.762C128.22 165.005 127.678 165.126 127.072 165.126C126.39 165.126 125.816 164.977 125.35 164.678C124.883 164.379 124.533 163.955 124.3 163.404C124.076 162.853 123.964 162.186 123.964 161.402C123.964 160.721 124.015 160.203 124.118 159.848C124.286 159.204 124.622 158.695 125.126 158.322C125.63 157.949 126.241 157.762 126.96 157.762C127.902 157.762 128.607 158 129.074 158.476C129.54 158.943 129.825 159.633 129.928 160.548ZM126.96 158.924C126.558 158.924 126.227 159.027 125.966 159.232C125.704 159.428 125.527 159.694 125.434 160.03C125.368 160.235 125.326 160.497 125.308 160.814C125.308 160.851 125.326 160.87 125.364 160.87H128.57C128.607 160.87 128.626 160.851 128.626 160.814C128.607 160.506 128.579 160.277 128.542 160.128C128.448 159.764 128.262 159.475 127.982 159.26C127.711 159.036 127.37 158.924 126.96 158.924ZM140.25 159.666C140.428 160.17 140.516 160.767 140.516 161.458C140.516 162.111 140.442 162.676 140.292 163.152C140.096 163.777 139.774 164.263 139.326 164.608C138.878 164.944 138.304 165.112 137.604 165.112C137.287 165.112 136.984 165.051 136.694 164.93C136.414 164.799 136.172 164.617 135.966 164.384C135.948 164.365 135.929 164.361 135.91 164.37C135.901 164.379 135.896 164.393 135.896 164.412V167.534C135.896 167.627 135.85 167.674 135.756 167.674H134.692C134.599 167.674 134.552 167.627 134.552 167.534V158.014C134.552 157.921 134.599 157.874 134.692 157.874H135.756C135.85 157.874 135.896 157.921 135.896 158.014V158.476C135.896 158.495 135.901 158.509 135.91 158.518C135.929 158.527 135.948 158.523 135.966 158.504C136.172 158.271 136.414 158.089 136.694 157.958C136.974 157.827 137.278 157.762 137.604 157.762C138.276 157.762 138.832 157.93 139.27 158.266C139.718 158.593 140.045 159.059 140.25 159.666ZM138.71 163.278C139.009 162.83 139.158 162.214 139.158 161.43C139.158 160.711 139.042 160.133 138.808 159.694C138.538 159.181 138.094 158.924 137.478 158.924C136.937 158.924 136.526 159.176 136.246 159.68C136.022 160.081 135.91 160.669 135.91 161.444C135.91 162.228 136.032 162.825 136.274 163.236C136.545 163.712 136.942 163.95 137.464 163.95C138.024 163.95 138.44 163.726 138.71 163.278ZM144.879 157.762C145.448 157.762 145.943 157.865 146.363 158.07C146.792 158.266 147.119 158.546 147.343 158.91C147.576 159.265 147.693 159.671 147.693 160.128V164.86C147.693 164.953 147.646 165 147.553 165H146.489C146.396 165 146.349 164.953 146.349 164.86V164.356C146.349 164.309 146.326 164.3 146.279 164.328C146.036 164.58 145.738 164.776 145.383 164.916C145.038 165.047 144.65 165.112 144.221 165.112C143.53 165.112 142.956 164.939 142.499 164.594C142.051 164.239 141.827 163.707 141.827 162.998C141.827 162.27 142.079 161.701 142.583 161.29C143.096 160.87 143.81 160.66 144.725 160.66H146.293C146.33 160.66 146.349 160.641 146.349 160.604V160.226C146.349 159.815 146.228 159.498 145.985 159.274C145.752 159.041 145.392 158.924 144.907 158.924C144.515 158.924 144.193 159.003 143.941 159.162C143.698 159.311 143.549 159.517 143.493 159.778C143.465 159.871 143.409 159.913 143.325 159.904L142.191 159.75C142.098 159.731 142.056 159.694 142.065 159.638C142.14 159.087 142.434 158.639 142.947 158.294C143.46 157.939 144.104 157.762 144.879 157.762ZM144.515 163.978C145.01 163.978 145.439 163.847 145.803 163.586C146.167 163.325 146.349 162.993 146.349 162.592V161.766C146.349 161.729 146.33 161.71 146.293 161.71H144.977C144.426 161.71 143.988 161.817 143.661 162.032C143.334 162.247 143.171 162.545 143.171 162.928C143.171 163.273 143.292 163.535 143.535 163.712C143.787 163.889 144.114 163.978 144.515 163.978ZM152.926 158.84C152.926 158.933 152.879 158.98 152.786 158.98H151.274C151.236 158.98 151.218 158.999 151.218 159.036V162.746C151.218 163.138 151.306 163.423 151.484 163.6C151.661 163.768 151.936 163.852 152.31 163.852H152.716C152.809 163.852 152.856 163.899 152.856 163.992V164.86C152.856 164.953 152.809 165 152.716 165C152.417 165.019 152.202 165.028 152.072 165.028C151.362 165.028 150.826 164.902 150.462 164.65C150.107 164.389 149.93 163.913 149.93 163.222V159.036C149.93 158.999 149.911 158.98 149.874 158.98H149.02C148.926 158.98 148.88 158.933 148.88 158.84V158.014C148.88 157.921 148.926 157.874 149.02 157.874H149.874C149.911 157.874 149.93 157.855 149.93 157.818V156.166C149.93 156.073 149.976 156.026 150.07 156.026H151.078C151.171 156.026 151.218 156.073 151.218 156.166V157.818C151.218 157.855 151.236 157.874 151.274 157.874H152.786C152.879 157.874 152.926 157.921 152.926 158.014V158.84ZM157.758 157.776C158.523 157.776 159.13 158 159.578 158.448C160.026 158.887 160.25 159.484 160.25 160.24V164.86C160.25 164.953 160.203 165 160.11 165H159.046C158.952 165 158.906 164.953 158.906 164.86V160.506C158.906 160.039 158.77 159.661 158.5 159.372C158.229 159.083 157.87 158.938 157.422 158.938C156.983 158.938 156.624 159.083 156.344 159.372C156.064 159.661 155.924 160.035 155.924 160.492V164.86C155.924 164.953 155.877 165 155.784 165H154.72C154.626 165 154.58 164.953 154.58 164.86V155.34C154.58 155.247 154.626 155.2 154.72 155.2H155.784C155.877 155.2 155.924 155.247 155.924 155.34V158.518C155.924 158.537 155.928 158.551 155.938 158.56C155.956 158.569 155.97 158.565 155.98 158.546C156.381 158.033 156.974 157.776 157.758 157.776ZM168.484 158.84C168.484 158.933 168.438 158.98 168.344 158.98H166.832C166.795 158.98 166.776 158.999 166.776 159.036V162.746C166.776 163.138 166.865 163.423 167.042 163.6C167.22 163.768 167.495 163.852 167.868 163.852H168.274C168.368 163.852 168.414 163.899 168.414 163.992V164.86C168.414 164.953 168.368 165 168.274 165C167.976 165.019 167.761 165.028 167.63 165.028C166.921 165.028 166.384 164.902 166.02 164.65C165.666 164.389 165.488 163.913 165.488 163.222V159.036C165.488 158.999 165.47 158.98 165.432 158.98H164.578C164.485 158.98 164.438 158.933 164.438 158.84V158.014C164.438 157.921 164.485 157.874 164.578 157.874H165.432C165.47 157.874 165.488 157.855 165.488 157.818V156.166C165.488 156.073 165.535 156.026 165.628 156.026H166.636C166.73 156.026 166.776 156.073 166.776 156.166V157.818C166.776 157.855 166.795 157.874 166.832 157.874H168.344C168.438 157.874 168.484 157.921 168.484 158.014V158.84ZM172.886 165.112C172.195 165.112 171.593 164.939 171.08 164.594C170.567 164.239 170.207 163.749 170.002 163.124C169.834 162.62 169.75 162.051 169.75 161.416C169.75 160.753 169.829 160.193 169.988 159.736C170.193 159.12 170.553 158.639 171.066 158.294C171.579 157.939 172.191 157.762 172.9 157.762C173.572 157.762 174.155 157.939 174.65 158.294C175.154 158.639 175.513 159.115 175.728 159.722C175.896 160.198 175.98 160.758 175.98 161.402C175.98 162.055 175.896 162.629 175.728 163.124C175.523 163.749 175.168 164.239 174.664 164.594C174.16 164.939 173.567 165.112 172.886 165.112ZM172.886 163.95C173.259 163.95 173.586 163.847 173.866 163.642C174.146 163.427 174.347 163.129 174.468 162.746C174.571 162.391 174.622 161.953 174.622 161.43C174.622 160.907 174.575 160.473 174.482 160.128C174.361 159.745 174.16 159.451 173.88 159.246C173.6 159.031 173.259 158.924 172.858 158.924C172.475 158.924 172.144 159.031 171.864 159.246C171.584 159.451 171.383 159.745 171.262 160.128C171.159 160.455 171.108 160.889 171.108 161.43C171.108 161.971 171.159 162.41 171.262 162.746C171.374 163.129 171.57 163.427 171.85 163.642C172.139 163.847 172.485 163.95 172.886 163.95ZM186.325 159.666C186.502 160.17 186.591 160.767 186.591 161.458C186.591 162.111 186.516 162.676 186.367 163.152C186.171 163.777 185.849 164.263 185.401 164.608C184.953 164.944 184.379 165.112 183.678 165.112C183.361 165.112 183.058 165.051 182.769 164.93C182.489 164.799 182.246 164.617 182.041 164.384C182.022 164.365 182.003 164.361 181.985 164.37C181.975 164.379 181.971 164.393 181.971 164.412V167.534C181.971 167.627 181.924 167.674 181.831 167.674H180.767C180.673 167.674 180.627 167.627 180.627 167.534V158.014C180.627 157.921 180.673 157.874 180.767 157.874H181.831C181.924 157.874 181.971 157.921 181.971 158.014V158.476C181.971 158.495 181.975 158.509 181.985 158.518C182.003 158.527 182.022 158.523 182.041 158.504C182.246 158.271 182.489 158.089 182.769 157.958C183.049 157.827 183.352 157.762 183.678 157.762C184.351 157.762 184.906 157.93 185.345 158.266C185.793 158.593 186.119 159.059 186.325 159.666ZM184.785 163.278C185.083 162.83 185.233 162.214 185.233 161.43C185.233 160.711 185.116 160.133 184.883 159.694C184.612 159.181 184.169 158.924 183.553 158.924C183.011 158.924 182.601 159.176 182.321 159.68C182.097 160.081 181.985 160.669 181.985 161.444C181.985 162.228 182.106 162.825 182.349 163.236C182.619 163.712 183.016 163.95 183.539 163.95C184.099 163.95 184.514 163.726 184.785 163.278ZM192.591 158.014C192.591 157.921 192.638 157.874 192.731 157.874H193.781C193.874 157.874 193.921 157.921 193.921 158.014V164.86C193.921 164.953 193.874 165 193.781 165H192.731C192.638 165 192.591 164.953 192.591 164.86V164.342C192.591 164.323 192.582 164.314 192.563 164.314C192.554 164.305 192.54 164.309 192.521 164.328C192.148 164.841 191.574 165.098 190.799 165.098C190.342 165.098 189.917 165.009 189.525 164.832C189.142 164.655 188.834 164.393 188.601 164.048C188.368 163.703 188.251 163.283 188.251 162.788V158.014C188.251 157.921 188.298 157.874 188.391 157.874H189.441C189.534 157.874 189.581 157.921 189.581 158.014V162.368C189.581 162.853 189.707 163.236 189.959 163.516C190.22 163.796 190.584 163.936 191.051 163.936C191.518 163.936 191.891 163.796 192.171 163.516C192.451 163.227 192.591 162.844 192.591 162.368V158.014ZM199.004 157.804C199.303 157.804 199.574 157.865 199.816 157.986C199.882 158.014 199.905 158.07 199.886 158.154L199.662 159.204C199.653 159.288 199.597 159.316 199.494 159.288C199.336 159.223 199.149 159.19 198.934 159.19L198.738 159.204C198.3 159.223 197.936 159.377 197.646 159.666C197.366 159.946 197.226 160.315 197.226 160.772V164.86C197.226 164.953 197.18 165 197.086 165H196.022C195.929 165 195.882 164.953 195.882 164.86V158.014C195.882 157.921 195.929 157.874 196.022 157.874H197.086C197.18 157.874 197.226 157.921 197.226 158.014V158.756C197.226 158.784 197.231 158.803 197.24 158.812C197.259 158.812 197.273 158.803 197.282 158.784C197.702 158.131 198.276 157.804 199.004 157.804ZM203.824 165.112C203.115 165.112 202.508 164.935 202.004 164.58C201.5 164.216 201.155 163.726 200.968 163.11C200.828 162.681 200.758 162.116 200.758 161.416C200.758 160.772 200.828 160.207 200.968 159.722C201.155 159.125 201.5 158.649 202.004 158.294C202.518 157.939 203.124 157.762 203.824 157.762C204.524 157.762 205.136 157.939 205.658 158.294C206.181 158.649 206.522 159.097 206.68 159.638C206.736 159.787 206.774 159.941 206.792 160.1C206.792 160.175 206.75 160.221 206.666 160.24L205.616 160.394H205.588C205.523 160.394 205.476 160.352 205.448 160.268L205.406 160.044C205.332 159.727 205.15 159.461 204.86 159.246C204.571 159.031 204.221 158.924 203.81 158.924C203.409 158.924 203.068 159.031 202.788 159.246C202.508 159.461 202.326 159.745 202.242 160.1C202.158 160.436 202.116 160.879 202.116 161.43C202.116 161.971 202.158 162.41 202.242 162.746C202.336 163.119 202.518 163.413 202.788 163.628C203.068 163.843 203.409 163.95 203.81 163.95C204.221 163.95 204.571 163.843 204.86 163.628C205.159 163.413 205.346 163.133 205.42 162.788C205.43 162.779 205.43 162.769 205.42 162.76C205.42 162.741 205.425 162.727 205.434 162.718V162.662C205.462 162.587 205.514 162.559 205.588 162.578L206.638 162.746C206.713 162.765 206.75 162.802 206.75 162.858V162.914C206.75 162.998 206.727 163.101 206.68 163.222C206.522 163.791 206.181 164.249 205.658 164.594C205.136 164.939 204.524 165.112 203.824 165.112ZM211.515 157.776C212.281 157.776 212.887 158 213.335 158.448C213.783 158.887 214.007 159.484 214.007 160.24V164.86C214.007 164.953 213.961 165 213.867 165H212.803C212.71 165 212.663 164.953 212.663 164.86V160.506C212.663 160.039 212.528 159.661 212.257 159.372C211.987 159.083 211.627 158.938 211.179 158.938C210.741 158.938 210.381 159.083 210.101 159.372C209.821 159.661 209.681 160.035 209.681 160.492V164.86C209.681 164.953 209.635 165 209.541 165H208.477C208.384 165 208.337 164.953 208.337 164.86V155.34C208.337 155.247 208.384 155.2 208.477 155.2H209.541C209.635 155.2 209.681 155.247 209.681 155.34V158.518C209.681 158.537 209.686 158.551 209.695 158.56C209.714 158.569 209.728 158.565 209.737 158.546C210.139 158.033 210.731 157.776 211.515 157.776ZM218.529 157.762C219.099 157.762 219.593 157.865 220.013 158.07C220.443 158.266 220.769 158.546 220.993 158.91C221.227 159.265 221.343 159.671 221.343 160.128V164.86C221.343 164.953 221.297 165 221.203 165H220.139C220.046 165 219.999 164.953 219.999 164.86V164.356C219.999 164.309 219.976 164.3 219.929 164.328C219.687 164.58 219.388 164.776 219.033 164.916C218.688 165.047 218.301 165.112 217.871 165.112C217.181 165.112 216.607 164.939 216.149 164.594C215.701 164.239 215.477 163.707 215.477 162.998C215.477 162.27 215.729 161.701 216.233 161.29C216.747 160.87 217.461 160.66 218.375 160.66H219.943C219.981 160.66 219.999 160.641 219.999 160.604V160.226C219.999 159.815 219.878 159.498 219.635 159.274C219.402 159.041 219.043 158.924 218.557 158.924C218.165 158.924 217.843 159.003 217.591 159.162C217.349 159.311 217.199 159.517 217.143 159.778C217.115 159.871 217.059 159.913 216.975 159.904L215.841 159.75C215.748 159.731 215.706 159.694 215.715 159.638C215.79 159.087 216.084 158.639 216.597 158.294C217.111 157.939 217.755 157.762 218.529 157.762ZM218.165 163.978C218.66 163.978 219.089 163.847 219.453 163.586C219.817 163.325 219.999 162.993 219.999 162.592V161.766C219.999 161.729 219.981 161.71 219.943 161.71H218.627C218.077 161.71 217.638 161.817 217.311 162.032C216.985 162.247 216.821 162.545 216.821 162.928C216.821 163.273 216.943 163.535 217.185 163.712C217.437 163.889 217.764 163.978 218.165 163.978ZM225.664 165.084C225.104 165.084 224.609 165 224.18 164.832C223.76 164.664 223.433 164.435 223.2 164.146C222.966 163.847 222.85 163.521 222.85 163.166V163.012C222.85 162.919 222.896 162.872 222.99 162.872H223.998C224.091 162.872 224.138 162.919 224.138 163.012V163.082C224.138 163.343 224.278 163.572 224.558 163.768C224.847 163.964 225.211 164.062 225.65 164.062C226.07 164.062 226.41 163.973 226.672 163.796C226.933 163.609 227.064 163.376 227.064 163.096C227.064 162.825 226.942 162.625 226.7 162.494C226.457 162.354 226.065 162.209 225.524 162.06C224.992 161.911 224.544 161.761 224.18 161.612C223.825 161.453 223.522 161.234 223.27 160.954C223.027 160.665 222.906 160.296 222.906 159.848C222.906 159.223 223.148 158.728 223.634 158.364C224.128 157.991 224.782 157.804 225.594 157.804C226.135 157.804 226.611 157.893 227.022 158.07C227.442 158.238 227.764 158.476 227.988 158.784C228.212 159.092 228.324 159.437 228.324 159.82V159.862C228.324 159.955 228.277 160.002 228.184 160.002H227.204C227.11 160.002 227.064 159.955 227.064 159.862V159.82C227.064 159.549 226.928 159.325 226.658 159.148C226.396 158.961 226.037 158.868 225.58 158.868C225.169 158.868 224.833 158.947 224.572 159.106C224.32 159.265 224.194 159.479 224.194 159.75C224.194 160.021 224.315 160.226 224.558 160.366C224.81 160.506 225.211 160.655 225.762 160.814C226.303 160.963 226.751 161.113 227.106 161.262C227.47 161.402 227.778 161.617 228.03 161.906C228.282 162.186 228.408 162.555 228.408 163.012C228.408 163.647 228.156 164.151 227.652 164.524C227.157 164.897 226.494 165.084 225.664 165.084ZM235.748 160.548C235.785 160.931 235.799 161.36 235.79 161.836C235.79 161.929 235.743 161.976 235.65 161.976H231.184C231.147 161.976 231.128 161.995 231.128 162.032C231.128 162.349 231.156 162.592 231.212 162.76C231.315 163.133 231.52 163.427 231.828 163.642C232.145 163.847 232.542 163.95 233.018 163.95C233.709 163.95 234.241 163.665 234.614 163.096C234.661 163.003 234.721 162.989 234.796 163.054L235.594 163.586C235.659 163.642 235.673 163.703 235.636 163.768C235.375 164.188 235.001 164.519 234.516 164.762C234.04 165.005 233.499 165.126 232.892 165.126C232.211 165.126 231.637 164.977 231.17 164.678C230.703 164.379 230.353 163.955 230.12 163.404C229.896 162.853 229.784 162.186 229.784 161.402C229.784 160.721 229.835 160.203 229.938 159.848C230.106 159.204 230.442 158.695 230.946 158.322C231.45 157.949 232.061 157.762 232.78 157.762C233.723 157.762 234.427 158 234.894 158.476C235.361 158.943 235.645 159.633 235.748 160.548ZM232.78 158.924C232.379 158.924 232.047 159.027 231.786 159.232C231.525 159.428 231.347 159.694 231.254 160.03C231.189 160.235 231.147 160.497 231.128 160.814C231.128 160.851 231.147 160.87 231.184 160.87H234.39C234.427 160.87 234.446 160.851 234.446 160.814C234.427 160.506 234.399 160.277 234.362 160.128C234.269 159.764 234.082 159.475 233.802 159.26C233.531 159.036 233.191 158.924 232.78 158.924Z" fill="#212121" fill-opacity="0.7"/>
<circle cx="243" cy="139" r="4" transform="rotate(180 243 139)" fill="#C41E3A"/>
<line x1="40" y1="138.5" x2="239" y2="138.5" stroke="#7D1425" stroke-dasharray="3 3"/>
<path d="M72.2512 112.928C72.3045 112.843 72.3792 112.8 72.4752 112.8H73.9472C74.0005 112.8 74.0432 112.821 74.0752 112.864C74.1179 112.896 74.1392 112.939 74.1392 112.992V123.808C74.1392 123.861 74.1179 123.909 74.0752 123.952C74.0432 123.984 74.0005 124 73.9472 124H72.4752C72.4219 124 72.3739 123.984 72.3312 123.952C72.2992 123.909 72.2832 123.861 72.2832 123.808V116.176C72.2832 116.144 72.2672 116.123 72.2352 116.112C72.2139 116.101 72.1979 116.112 72.1872 116.144L70.1872 119.216C70.1339 119.301 70.0592 119.344 69.9632 119.344H69.2272C69.1312 119.344 69.0565 119.301 69.0032 119.216L66.9872 116.16C66.9765 116.128 66.9552 116.117 66.9232 116.128C66.9019 116.139 66.8912 116.16 66.8912 116.192V123.808C66.8912 123.861 66.8699 123.909 66.8272 123.952C66.7952 123.984 66.7525 124 66.6992 124H65.2272C65.1739 124 65.1259 123.984 65.0832 123.952C65.0512 123.909 65.0352 123.861 65.0352 123.808V112.992C65.0352 112.939 65.0512 112.896 65.0832 112.864C65.1259 112.821 65.1739 112.8 65.2272 112.8H66.6992C66.7952 112.8 66.8699 112.843 66.9232 112.928L69.5312 116.88C69.5525 116.901 69.5739 116.912 69.5952 116.912C69.6165 116.912 69.6325 116.901 69.6432 116.88L72.2512 112.928ZM84.0567 114.208C84.0567 114.261 84.0354 114.309 83.9927 114.352C83.9607 114.384 83.918 114.4 83.8647 114.4H78.4087C78.3554 114.4 78.3287 114.427 78.3287 114.48V117.472C78.3287 117.525 78.3554 117.552 78.4087 117.552H82.0727C82.126 117.552 82.1687 117.573 82.2007 117.616C82.2434 117.648 82.2647 117.691 82.2647 117.744V118.96C82.2647 119.013 82.2434 119.061 82.2007 119.104C82.1687 119.136 82.126 119.152 82.0727 119.152H78.4087C78.3554 119.152 78.3287 119.179 78.3287 119.232V122.32C78.3287 122.373 78.3554 122.4 78.4087 122.4H83.8647C83.918 122.4 83.9607 122.421 83.9927 122.464C84.0354 122.496 84.0567 122.539 84.0567 122.592V123.808C84.0567 123.861 84.0354 123.909 83.9927 123.952C83.9607 123.984 83.918 124 83.8647 124H76.6647C76.6114 124 76.5634 123.984 76.5207 123.952C76.4887 123.909 76.4727 123.861 76.4727 123.808V112.992C76.4727 112.939 76.4887 112.896 76.5207 112.864C76.5634 112.821 76.6114 112.8 76.6647 112.8H83.8647C83.918 112.8 83.9607 112.821 83.9927 112.864C84.0354 112.896 84.0567 112.939 84.0567 112.992V114.208ZM92.4534 112.992C92.4534 112.939 92.4694 112.896 92.5014 112.864C92.5441 112.821 92.5921 112.8 92.6454 112.8H94.1174C94.1708 112.8 94.2134 112.821 94.2454 112.864C94.2881 112.896 94.3094 112.939 94.3094 112.992V123.808C94.3094 123.861 94.2881 123.909 94.2454 123.952C94.2134 123.984 94.1708 124 94.1174 124H92.6934C92.5868 124 92.5121 123.957 92.4694 123.872L87.8614 116.32C87.8401 116.288 87.8188 116.277 87.7974 116.288C87.7761 116.288 87.7654 116.309 87.7654 116.352L87.7974 123.808C87.7974 123.861 87.7761 123.909 87.7334 123.952C87.7014 123.984 87.6588 124 87.6054 124H86.1334C86.0801 124 86.0321 123.984 85.9894 123.952C85.9574 123.909 85.9414 123.861 85.9414 123.808V112.992C85.9414 112.939 85.9574 112.896 85.9894 112.864C86.0321 112.821 86.0801 112.8 86.1334 112.8H87.5574C87.6641 112.8 87.7388 112.843 87.7814 112.928L92.3734 120.48C92.3948 120.512 92.4161 120.528 92.4374 120.528C92.4588 120.517 92.4694 120.491 92.4694 120.448L92.4534 112.992ZM100.565 124.128C99.7752 124.128 99.0766 123.973 98.4686 123.664C97.8606 123.355 97.3859 122.917 97.0446 122.352C96.7139 121.776 96.5486 121.115 96.5486 120.368V112.992C96.5486 112.939 96.5646 112.896 96.5966 112.864C96.6392 112.821 96.6872 112.8 96.7406 112.8H98.2126C98.2659 112.8 98.3086 112.821 98.3406 112.864C98.3832 112.896 98.4046 112.939 98.4046 112.992V120.4C98.4046 121.029 98.6019 121.541 98.9966 121.936C99.3912 122.331 99.9139 122.528 100.565 122.528C101.215 122.528 101.738 122.331 102.133 121.936C102.527 121.541 102.725 121.029 102.725 120.4V112.992C102.725 112.939 102.741 112.896 102.773 112.864C102.815 112.821 102.863 112.8 102.917 112.8H104.389C104.442 112.8 104.485 112.821 104.517 112.864C104.559 112.896 104.581 112.939 104.581 112.992V120.368C104.581 121.115 104.415 121.776 104.085 122.352C103.754 122.917 103.285 123.355 102.677 123.664C102.069 123.973 101.365 124.128 100.565 124.128ZM117.38 112.8C117.433 112.8 117.476 112.821 117.508 112.864C117.55 112.896 117.572 112.939 117.572 112.992V114.224C117.572 114.277 117.55 114.325 117.508 114.368C117.476 114.4 117.433 114.416 117.38 114.416H114.436C114.382 114.416 114.356 114.443 114.356 114.496V123.808C114.356 123.861 114.334 123.909 114.292 123.952C114.26 123.984 114.217 124 114.164 124H112.692C112.638 124 112.59 123.984 112.548 123.952C112.516 123.909 112.5 123.861 112.5 123.808V114.496C112.5 114.443 112.473 114.416 112.42 114.416H109.588C109.534 114.416 109.486 114.4 109.444 114.368C109.412 114.325 109.396 114.277 109.396 114.224V112.992C109.396 112.939 109.412 112.896 109.444 112.864C109.486 112.821 109.534 112.8 109.588 112.8H117.38ZM122.515 124.16C121.715 124.16 121.005 124 120.387 123.68C119.768 123.349 119.288 122.885 118.947 122.288C118.616 121.691 118.451 121.003 118.451 120.224V116.576C118.451 115.808 118.621 115.131 118.963 114.544C119.304 113.947 119.779 113.488 120.387 113.168C121.005 112.837 121.715 112.672 122.515 112.672C123.325 112.672 124.035 112.837 124.643 113.168C125.261 113.488 125.741 113.947 126.083 114.544C126.424 115.131 126.595 115.808 126.595 116.576V120.224C126.595 121.003 126.424 121.691 126.083 122.288C125.741 122.885 125.261 123.349 124.643 123.68C124.035 124 123.325 124.16 122.515 124.16ZM122.515 122.56C123.187 122.56 123.725 122.352 124.131 121.936C124.536 121.52 124.739 120.971 124.739 120.288V116.56C124.739 115.867 124.536 115.312 124.131 114.896C123.725 114.48 123.187 114.272 122.515 114.272C121.853 114.272 121.32 114.48 120.915 114.896C120.509 115.312 120.307 115.867 120.307 116.56V120.288C120.307 120.971 120.509 121.52 120.915 121.936C121.32 122.352 121.853 122.56 122.515 122.56ZM135.655 124.16C134.855 124.16 134.146 124 133.527 123.68C132.909 123.349 132.429 122.885 132.087 122.288C131.757 121.691 131.591 121.003 131.591 120.224V116.576C131.591 115.808 131.762 115.131 132.103 114.544C132.445 113.947 132.919 113.488 133.527 113.168C134.146 112.837 134.855 112.672 135.655 112.672C136.466 112.672 137.175 112.837 137.783 113.168C138.402 113.488 138.882 113.947 139.223 114.544C139.565 115.131 139.735 115.808 139.735 116.576V120.224C139.735 121.003 139.565 121.691 139.223 122.288C138.882 122.885 138.402 123.349 137.783 123.68C137.175 124 136.466 124.16 135.655 124.16ZM135.655 122.56C136.327 122.56 136.866 122.352 137.271 121.936C137.677 121.52 137.879 120.971 137.879 120.288V116.56C137.879 115.867 137.677 115.312 137.271 114.896C136.866 114.48 136.327 114.272 135.655 114.272C134.994 114.272 134.461 114.48 134.055 114.896C133.65 115.312 133.447 115.867 133.447 116.56V120.288C133.447 120.971 133.65 121.52 134.055 121.936C134.461 122.352 134.994 122.56 135.655 122.56ZM148.089 124C147.982 124 147.907 123.952 147.865 123.856L145.753 119.248C145.731 119.205 145.699 119.184 145.657 119.184H143.737C143.683 119.184 143.657 119.211 143.657 119.264V123.808C143.657 123.861 143.635 123.909 143.593 123.952C143.561 123.984 143.518 124 143.465 124H141.993C141.939 124 141.891 123.984 141.849 123.952C141.817 123.909 141.801 123.861 141.801 123.808V112.992C141.801 112.939 141.817 112.896 141.849 112.864C141.891 112.821 141.939 112.8 141.993 112.8H146.393C147.043 112.8 147.619 112.939 148.121 113.216C148.622 113.483 149.011 113.867 149.289 114.368C149.566 114.859 149.705 115.424 149.705 116.064C149.705 116.8 149.513 117.429 149.129 117.952C148.755 118.464 148.233 118.821 147.561 119.024C147.539 119.024 147.523 119.035 147.513 119.056C147.502 119.077 147.502 119.099 147.513 119.12L149.769 123.776C149.79 123.819 149.801 123.851 149.801 123.872C149.801 123.957 149.742 124 149.625 124H148.089ZM143.737 114.4C143.683 114.4 143.657 114.427 143.657 114.48V117.664C143.657 117.717 143.683 117.744 143.737 117.744H146.137C146.649 117.744 147.059 117.595 147.369 117.296C147.689 116.987 147.849 116.581 147.849 116.08C147.849 115.579 147.689 115.173 147.369 114.864C147.059 114.555 146.649 114.4 146.137 114.4H143.737ZM151.805 124C151.752 124 151.704 123.984 151.661 123.952C151.629 123.909 151.613 123.861 151.613 123.808V112.992C151.613 112.939 151.629 112.896 151.661 112.864C151.704 112.821 151.752 112.8 151.805 112.8H155.709C156.467 112.8 157.133 112.933 157.709 113.2C158.285 113.467 158.728 113.851 159.037 114.352C159.357 114.843 159.517 115.419 159.517 116.08V120.72C159.517 121.381 159.357 121.963 159.037 122.464C158.728 122.955 158.285 123.333 157.709 123.6C157.133 123.867 156.467 124 155.709 124H151.805ZM153.469 122.32C153.469 122.373 153.496 122.4 153.549 122.4H155.789C156.355 122.4 156.803 122.224 157.133 121.872C157.475 121.509 157.651 121.029 157.661 120.432V116.384C157.661 115.776 157.491 115.296 157.149 114.944C156.808 114.581 156.349 114.4 155.773 114.4H153.549C153.496 114.4 153.469 114.427 153.469 114.48V122.32ZM169.088 114.208C169.088 114.261 169.067 114.309 169.024 114.352C168.992 114.384 168.949 114.4 168.896 114.4H163.44C163.387 114.4 163.36 114.427 163.36 114.48V117.472C163.36 117.525 163.387 117.552 163.44 117.552H167.104C167.157 117.552 167.2 117.573 167.232 117.616C167.275 117.648 167.296 117.691 167.296 117.744V118.96C167.296 119.013 167.275 119.061 167.232 119.104C167.2 119.136 167.157 119.152 167.104 119.152H163.44C163.387 119.152 163.36 119.179 163.36 119.232V122.32C163.36 122.373 163.387 122.4 163.44 122.4H168.896C168.949 122.4 168.992 122.421 169.024 122.464C169.067 122.496 169.088 122.539 169.088 122.592V123.808C169.088 123.861 169.067 123.909 169.024 123.952C168.992 123.984 168.949 124 168.896 124H161.696C161.643 124 161.595 123.984 161.552 123.952C161.52 123.909 161.504 123.861 161.504 123.808V112.992C161.504 112.939 161.52 112.896 161.552 112.864C161.595 112.821 161.643 112.8 161.696 112.8H168.896C168.949 112.8 168.992 112.821 169.024 112.864C169.067 112.896 169.088 112.939 169.088 112.992V114.208ZM177.261 124C177.154 124 177.079 123.952 177.037 123.856L174.925 119.248C174.903 119.205 174.871 119.184 174.829 119.184H172.909C172.855 119.184 172.829 119.211 172.829 119.264V123.808C172.829 123.861 172.807 123.909 172.765 123.952C172.733 123.984 172.69 124 172.637 124H171.165C171.111 124 171.063 123.984 171.021 123.952C170.989 123.909 170.973 123.861 170.973 123.808V112.992C170.973 112.939 170.989 112.896 171.021 112.864C171.063 112.821 171.111 112.8 171.165 112.8H175.565C176.215 112.8 176.791 112.939 177.293 113.216C177.794 113.483 178.183 113.867 178.461 114.368C178.738 114.859 178.877 115.424 178.877 116.064C178.877 116.8 178.685 117.429 178.301 117.952C177.927 118.464 177.405 118.821 176.733 119.024C176.711 119.024 176.695 119.035 176.685 119.056C176.674 119.077 176.674 119.099 176.685 119.12L178.941 123.776C178.962 123.819 178.973 123.851 178.973 123.872C178.973 123.957 178.914 124 178.797 124H177.261ZM172.909 114.4C172.855 114.4 172.829 114.427 172.829 114.48V117.664C172.829 117.717 172.855 117.744 172.909 117.744H175.309C175.821 117.744 176.231 117.595 176.541 117.296C176.861 116.987 177.021 116.581 177.021 116.08C177.021 115.579 176.861 115.173 176.541 114.864C176.231 114.555 175.821 114.4 175.309 114.4H172.909Z" fill="#801426"/>
<path d="M184.964 125.536C184.858 125.536 184.783 125.499 184.74 125.424C184.154 124.624 183.679 123.653 183.316 122.512C182.964 121.36 182.788 120.096 182.788 118.72C182.788 117.333 182.964 116.064 183.316 114.912C183.679 113.749 184.159 112.763 184.756 111.952C184.799 111.877 184.874 111.84 184.98 111.84H186.388C186.463 111.84 186.511 111.861 186.532 111.904C186.564 111.947 186.564 112 186.532 112.064C186.042 112.917 185.642 113.915 185.332 115.056C185.023 116.187 184.868 117.408 184.868 118.72C184.868 120.021 185.023 121.232 185.332 122.352C185.642 123.472 186.042 124.459 186.532 125.312C186.554 125.355 186.564 125.387 186.564 125.408C186.564 125.493 186.506 125.536 186.388 125.536H184.964ZM196.267 112.928C196.32 112.843 196.395 112.8 196.491 112.8H197.963C198.016 112.8 198.059 112.821 198.091 112.864C198.133 112.896 198.155 112.939 198.155 112.992V123.808C198.155 123.861 198.133 123.909 198.091 123.952C198.059 123.984 198.016 124 197.963 124H196.491C196.437 124 196.389 123.984 196.347 123.952C196.315 123.909 196.299 123.861 196.299 123.808V116.176C196.299 116.144 196.283 116.123 196.251 116.112C196.229 116.101 196.213 116.112 196.203 116.144L194.203 119.216C194.149 119.301 194.075 119.344 193.979 119.344H193.243C193.147 119.344 193.072 119.301 193.019 119.216L191.003 116.16C190.992 116.128 190.971 116.117 190.939 116.128C190.917 116.139 190.907 116.16 190.907 116.192V123.808C190.907 123.861 190.885 123.909 190.843 123.952C190.811 123.984 190.768 124 190.715 124H189.243C189.189 124 189.141 123.984 189.099 123.952C189.067 123.909 189.051 123.861 189.051 123.808V112.992C189.051 112.939 189.067 112.896 189.099 112.864C189.141 112.821 189.189 112.8 189.243 112.8H190.715C190.811 112.8 190.885 112.843 190.939 112.928L193.547 116.88C193.568 116.901 193.589 116.912 193.611 116.912C193.632 116.912 193.648 116.901 193.659 116.88L196.267 112.928ZM202.6 122.304C202.579 122.325 202.568 122.347 202.568 122.368C202.579 122.389 202.6 122.4 202.632 122.4H207.192C207.246 122.4 207.288 122.421 207.32 122.464C207.363 122.496 207.384 122.539 207.384 122.592V123.808C207.384 123.861 207.363 123.909 207.32 123.952C207.288 123.984 207.246 124 207.192 124H200.312C200.259 124 200.211 123.984 200.168 123.952C200.136 123.909 200.12 123.861 200.12 123.808V122.656C200.12 122.56 200.152 122.48 200.216 122.416C201.027 121.552 201.966 120.491 203.032 119.232L203.784 118.352C204.766 117.211 205.256 116.347 205.256 115.76C205.256 115.323 205.102 114.965 204.792 114.688C204.483 114.411 204.083 114.272 203.592 114.272C203.102 114.272 202.702 114.411 202.392 114.688C202.094 114.965 201.944 115.333 201.944 115.792V116.208C201.944 116.261 201.923 116.309 201.88 116.352C201.848 116.384 201.806 116.4 201.752 116.4H200.264C200.211 116.4 200.163 116.384 200.12 116.352C200.088 116.309 200.072 116.261 200.072 116.208V115.52C200.094 114.944 200.259 114.443 200.568 114.016C200.878 113.589 201.294 113.259 201.816 113.024C202.35 112.789 202.942 112.672 203.592 112.672C204.307 112.672 204.931 112.805 205.464 113.072C205.998 113.339 206.408 113.707 206.696 114.176C206.984 114.635 207.128 115.152 207.128 115.728C207.128 116.603 206.664 117.611 205.736 118.752C205.224 119.392 204.382 120.352 203.208 121.632L202.6 122.304ZM213.093 124.16C212.293 124.16 211.583 124 210.965 123.68C210.346 123.349 209.866 122.885 209.525 122.288C209.194 121.691 209.029 121.003 209.029 120.224V116.576C209.029 115.808 209.199 115.131 209.541 114.544C209.882 113.947 210.357 113.488 210.965 113.168C211.583 112.837 212.293 112.672 213.093 112.672C213.903 112.672 214.613 112.837 215.221 113.168C215.839 113.488 216.319 113.947 216.661 114.544C217.002 115.131 217.173 115.808 217.173 116.576V120.224C217.173 121.003 217.002 121.691 216.661 122.288C216.319 122.885 215.839 123.349 215.221 123.68C214.613 124 213.903 124.16 213.093 124.16ZM213.093 122.56C213.765 122.56 214.303 122.352 214.709 121.936C215.114 121.52 215.317 120.971 215.317 120.288V116.56C215.317 115.867 215.114 115.312 214.709 114.896C214.303 114.48 213.765 114.272 213.093 114.272C212.431 114.272 211.898 114.48 211.493 114.896C211.087 115.312 210.885 115.867 210.885 116.56V120.288C210.885 120.971 211.087 121.52 211.493 121.936C211.898 122.352 212.431 122.56 213.093 122.56ZM220.998 111.84C221.105 111.84 221.18 111.877 221.222 111.952C221.809 112.752 222.278 113.728 222.63 114.88C222.993 116.021 223.174 117.275 223.174 118.64C223.174 120.016 222.993 121.291 222.63 122.464C222.268 123.627 221.788 124.613 221.19 125.424C221.148 125.499 221.073 125.536 220.966 125.536H219.558C219.484 125.536 219.43 125.515 219.398 125.472C219.377 125.429 219.382 125.376 219.414 125.312C219.905 124.459 220.305 123.467 220.614 122.336C220.924 121.195 221.078 119.968 221.078 118.656C221.078 117.344 220.924 116.128 220.614 115.008C220.305 113.888 219.905 112.907 219.414 112.064C219.393 112.021 219.382 111.989 219.382 111.968C219.382 111.883 219.441 111.84 219.558 111.84H220.998Z" fill="#212121" fill-opacity="0.6"/>
</svg>
