<svg width="247" height="168" viewBox="0 0 247 168" fill="none" xmlns="http://www.w3.org/2000/svg">
<path d="M26.36 16C26.3067 16 26.2587 15.984 26.216 15.952C26.184 15.9093 26.168 15.8613 26.168 15.808V4.992C26.168 4.93867 26.184 4.896 26.216 4.864C26.2587 4.82133 26.3067 4.8 26.36 4.8H27.832C27.8853 4.8 27.928 4.82133 27.96 4.864C28.0027 4.896 28.024 4.93867 28.024 4.992V15.808C28.024 15.8613 28.0027 15.9093 27.96 15.952C27.928 15.984 27.8853 16 27.832 16H26.36ZM37.5715 4.928C37.6248 4.84267 37.6995 4.8 37.7955 4.8H39.2675C39.3208 4.8 39.3635 4.82133 39.3955 4.864C39.4382 4.896 39.4595 4.93867 39.4595 4.992V15.808C39.4595 15.8613 39.4382 15.9093 39.3955 15.952C39.3635 15.984 39.3208 16 39.2675 16H37.7955C37.7422 16 37.6942 15.984 37.6515 15.952C37.6195 15.9093 37.6035 15.8613 37.6035 15.808V8.176C37.6035 8.144 37.5875 8.12267 37.5555 8.112C37.5342 8.10133 37.5182 8.112 37.5075 8.144L35.5075 11.216C35.4542 11.3013 35.3795 11.344 35.2835 11.344H34.5475C34.4515 11.344 34.3768 11.3013 34.3235 11.216L32.3075 8.16C32.2968 8.128 32.2755 8.11733 32.2435 8.128C32.2222 8.13867 32.2115 8.16 32.2115 8.192V15.808C32.2115 15.8613 32.1902 15.9093 32.1475 15.952C32.1155 15.984 32.0728 16 32.0195 16H30.5475C30.4942 16 30.4462 15.984 30.4035 15.952C30.3715 15.9093 30.3555 15.8613 30.3555 15.808V4.992C30.3555 4.93867 30.3715 4.896 30.4035 4.864C30.4462 4.82133 30.4942 4.8 30.5475 4.8H32.0195C32.1155 4.8 32.1902 4.84267 32.2435 4.928L34.8515 8.88C34.8728 8.90133 34.8942 8.912 34.9155 8.912C34.9368 8.912 34.9528 8.90133 34.9635 8.88L37.5715 4.928ZM46.289 4.784C46.961 4.784 47.553 4.92267 48.065 5.2C48.577 5.47733 48.9717 5.872 49.249 6.384C49.537 6.88533 49.681 7.46667 49.681 8.128C49.681 8.77867 49.537 9.35467 49.249 9.856C48.961 10.3573 48.5503 10.7467 48.017 11.024C47.4943 11.2907 46.8863 11.424 46.193 11.424H43.633C43.5797 11.424 43.553 11.4507 43.553 11.504V15.808C43.553 15.8613 43.5317 15.9093 43.489 15.952C43.457 15.984 43.4143 16 43.361 16H41.889C41.8357 16 41.7877 15.984 41.745 15.952C41.713 15.9093 41.697 15.8613 41.697 15.808V4.976C41.697 4.92267 41.713 4.88 41.745 4.848C41.7877 4.80533 41.8357 4.784 41.889 4.784H46.289ZM46.017 9.92C46.561 9.92 46.9983 9.76 47.329 9.44C47.6597 9.12 47.825 8.69867 47.825 8.176C47.825 7.64267 47.6597 7.21067 47.329 6.88C46.9983 6.54933 46.561 6.384 46.017 6.384H43.633C43.5797 6.384 43.553 6.41067 43.553 6.464V9.84C43.553 9.89333 43.5797 9.92 43.633 9.92H46.017ZM57.5966 16C57.49 16 57.4153 15.952 57.3726 15.856L55.2606 11.248C55.2393 11.2053 55.2073 11.184 55.1646 11.184H53.2446C53.1913 11.184 53.1646 11.2107 53.1646 11.264V15.808C53.1646 15.8613 53.1433 15.9093 53.1006 15.952C53.0686 15.984 53.026 16 52.9726 16H51.5006C51.4473 16 51.3993 15.984 51.3566 15.952C51.3246 15.9093 51.3086 15.8613 51.3086 15.808V4.992C51.3086 4.93867 51.3246 4.896 51.3566 4.864C51.3993 4.82133 51.4473 4.8 51.5006 4.8H55.9006C56.5513 4.8 57.1273 4.93867 57.6286 5.216C58.13 5.48267 58.5193 5.86667 58.7966 6.368C59.074 6.85867 59.2126 7.424 59.2126 8.064C59.2126 8.8 59.0206 9.42933 58.6366 9.952C58.2633 10.464 57.7406 10.8213 57.0686 11.024C57.0473 11.024 57.0313 11.0347 57.0206 11.056C57.01 11.0773 57.01 11.0987 57.0206 11.12L59.2766 15.776C59.298 15.8187 59.3086 15.8507 59.3086 15.872C59.3086 15.9573 59.25 16 59.1326 16H57.5966ZM53.2446 6.4C53.1913 6.4 53.1646 6.42667 53.1646 6.48V9.664C53.1646 9.71733 53.1913 9.744 53.2446 9.744H55.6446C56.1566 9.744 56.5673 9.59467 56.8766 9.296C57.1966 8.98667 57.3566 8.58133 57.3566 8.08C57.3566 7.57867 57.1966 7.17333 56.8766 6.864C56.5673 6.55467 56.1566 6.4 55.6446 6.4H53.2446ZM68.7051 6.208C68.7051 6.26133 68.6838 6.30933 68.6411 6.352C68.6091 6.384 68.5665 6.4 68.5131 6.4H63.0571C63.0038 6.4 62.9771 6.42667 62.9771 6.48V9.472C62.9771 9.52533 63.0038 9.552 63.0571 9.552H66.7211C66.7745 9.552 66.8171 9.57333 66.8491 9.616C66.8918 9.648 66.9131 9.69067 66.9131 9.744V10.96C66.9131 11.0133 66.8918 11.0613 66.8491 11.104C66.8171 11.136 66.7745 11.152 66.7211 11.152H63.0571C63.0038 11.152 62.9771 11.1787 62.9771 11.232V14.32C62.9771 14.3733 63.0038 14.4 63.0571 14.4H68.5131C68.5665 14.4 68.6091 14.4213 68.6411 14.464C68.6838 14.496 68.7051 14.5387 68.7051 14.592V15.808C68.7051 15.8613 68.6838 15.9093 68.6411 15.952C68.6091 15.984 68.5665 16 68.5131 16H61.3131C61.2598 16 61.2118 15.984 61.1691 15.952C61.1371 15.9093 61.1211 15.8613 61.1211 15.808V4.992C61.1211 4.93867 61.1371 4.896 61.1691 4.864C61.2118 4.82133 61.2598 4.8 61.3131 4.8H68.5131C68.5665 4.8 68.6091 4.82133 68.6411 4.864C68.6838 4.896 68.7051 4.93867 68.7051 4.992V6.208ZM74.2059 16.128C73.3739 16.128 72.6485 15.9947 72.0299 15.728C71.4112 15.4613 70.9312 15.088 70.5899 14.608C70.2592 14.128 70.0939 13.5627 70.0939 12.912V12.512C70.0939 12.4587 70.1099 12.416 70.1419 12.384C70.1845 12.3413 70.2325 12.32 70.2859 12.32H71.7099C71.7632 12.32 71.8059 12.3413 71.8379 12.384C71.8805 12.416 71.9019 12.4587 71.9019 12.512V12.816C71.9019 13.3067 72.1205 13.7173 72.5579 14.048C72.9952 14.368 73.5925 14.528 74.3499 14.528C75.0005 14.528 75.4912 14.3893 75.8219 14.112C76.1525 13.8347 76.3179 13.4773 76.3179 13.04C76.3179 12.7413 76.2272 12.4907 76.0459 12.288C75.8645 12.0747 75.6032 11.8827 75.2619 11.712C74.9312 11.5413 74.4299 11.328 73.7579 11.072C73.0005 10.7947 72.3872 10.5333 71.9179 10.288C71.4485 10.0427 71.0539 9.712 70.7339 9.296C70.4245 8.86933 70.2699 8.34133 70.2699 7.712C70.2699 6.77333 70.6112 6.032 71.2939 5.488C71.9765 4.944 72.8885 4.672 74.0299 4.672C74.8299 4.672 75.5339 4.81067 76.1419 5.088C76.7605 5.36533 77.2405 5.75467 77.5819 6.256C77.9232 6.74667 78.0939 7.31733 78.0939 7.968V8.24C78.0939 8.29333 78.0725 8.34133 78.0299 8.384C77.9979 8.416 77.9552 8.432 77.9019 8.432H76.4619C76.4085 8.432 76.3605 8.416 76.3179 8.384C76.2859 8.34133 76.2699 8.29333 76.2699 8.24V8.064C76.2699 7.56267 76.0619 7.14133 75.6459 6.8C75.2405 6.448 74.6752 6.272 73.9499 6.272C73.3632 6.272 72.9045 6.39467 72.5739 6.64C72.2539 6.88533 72.0939 7.232 72.0939 7.68C72.0939 8 72.1792 8.26133 72.3499 8.464C72.5205 8.66667 72.7765 8.85333 73.1179 9.024C73.4592 9.184 73.9872 9.392 74.7019 9.648C75.4592 9.936 76.0619 10.1973 76.5099 10.432C76.9685 10.6667 77.3579 10.9973 77.6779 11.424C78.0085 11.84 78.1739 12.3627 78.1739 12.992C78.1739 13.952 77.8165 14.7147 77.1019 15.28C76.3979 15.8453 75.4325 16.128 74.2059 16.128ZM83.659 16.128C82.827 16.128 82.1017 15.9947 81.483 15.728C80.8643 15.4613 80.3843 15.088 80.043 14.608C79.7123 14.128 79.547 13.5627 79.547 12.912V12.512C79.547 12.4587 79.563 12.416 79.595 12.384C79.6377 12.3413 79.6857 12.32 79.739 12.32H81.163C81.2163 12.32 81.259 12.3413 81.291 12.384C81.3337 12.416 81.355 12.4587 81.355 12.512V12.816C81.355 13.3067 81.5737 13.7173 82.011 14.048C82.4483 14.368 83.0457 14.528 83.803 14.528C84.4537 14.528 84.9443 14.3893 85.275 14.112C85.6057 13.8347 85.771 13.4773 85.771 13.04C85.771 12.7413 85.6803 12.4907 85.499 12.288C85.3177 12.0747 85.0563 11.8827 84.715 11.712C84.3843 11.5413 83.883 11.328 83.211 11.072C82.4537 10.7947 81.8403 10.5333 81.371 10.288C80.9017 10.0427 80.507 9.712 80.187 9.296C79.8777 8.86933 79.723 8.34133 79.723 7.712C79.723 6.77333 80.0643 6.032 80.747 5.488C81.4297 4.944 82.3417 4.672 83.483 4.672C84.283 4.672 84.987 4.81067 85.595 5.088C86.2137 5.36533 86.6937 5.75467 87.035 6.256C87.3763 6.74667 87.547 7.31733 87.547 7.968V8.24C87.547 8.29333 87.5257 8.34133 87.483 8.384C87.451 8.416 87.4083 8.432 87.355 8.432H85.915C85.8617 8.432 85.8137 8.416 85.771 8.384C85.739 8.34133 85.723 8.29333 85.723 8.24V8.064C85.723 7.56267 85.515 7.14133 85.099 6.8C84.6937 6.448 84.1283 6.272 83.403 6.272C82.8163 6.272 82.3577 6.39467 82.027 6.64C81.707 6.88533 81.547 7.232 81.547 7.68C81.547 8 81.6323 8.26133 81.803 8.464C81.9737 8.66667 82.2297 8.85333 82.571 9.024C82.9123 9.184 83.4403 9.392 84.155 9.648C84.9123 9.936 85.515 10.1973 85.963 10.432C86.4217 10.6667 86.811 10.9973 87.131 11.424C87.4617 11.84 87.627 12.3627 87.627 12.992C87.627 13.952 87.2697 14.7147 86.555 15.28C85.851 15.8453 84.8857 16.128 83.659 16.128ZM89.6881 16C89.6348 16 89.5868 15.984 89.5441 15.952C89.5121 15.9093 89.4961 15.8613 89.4961 15.808V4.992C89.4961 4.93867 89.5121 4.896 89.5441 4.864C89.5868 4.82133 89.6348 4.8 89.6881 4.8H91.1601C91.2135 4.8 91.2561 4.82133 91.2881 4.864C91.3308 4.896 91.3521 4.93867 91.3521 4.992V15.808C91.3521 15.8613 91.3308 15.9093 91.2881 15.952C91.2561 15.984 91.2135 16 91.1601 16H89.6881ZM97.4756 16.16C96.6756 16.16 95.9663 16 95.3476 15.68C94.729 15.3493 94.249 14.8853 93.9076 14.288C93.577 13.6907 93.4116 13.0027 93.4116 12.224V8.576C93.4116 7.808 93.5823 7.13067 93.9236 6.544C94.265 5.94667 94.7396 5.488 95.3476 5.168C95.9663 4.83733 96.6756 4.672 97.4756 4.672C98.2863 4.672 98.9956 4.83733 99.6036 5.168C100.222 5.488 100.702 5.94667 101.044 6.544C101.385 7.13067 101.556 7.808 101.556 8.576V12.224C101.556 13.0027 101.385 13.6907 101.044 14.288C100.702 14.8853 100.222 15.3493 99.6036 15.68C98.9956 16 98.2863 16.16 97.4756 16.16ZM97.4756 14.56C98.1476 14.56 98.6863 14.352 99.0916 13.936C99.497 13.52 99.6996 12.9707 99.6996 12.288V8.56C99.6996 7.86667 99.497 7.312 99.0916 6.896C98.6863 6.48 98.1476 6.272 97.4756 6.272C96.8143 6.272 96.281 6.48 95.8756 6.896C95.4703 7.312 95.2676 7.86667 95.2676 8.56V12.288C95.2676 12.9707 95.4703 13.52 95.8756 13.936C96.281 14.352 96.8143 14.56 97.4756 14.56ZM110.133 4.992C110.133 4.93867 110.149 4.896 110.181 4.864C110.224 4.82133 110.272 4.8 110.325 4.8H111.797C111.85 4.8 111.893 4.82133 111.925 4.864C111.968 4.896 111.989 4.93867 111.989 4.992V15.808C111.989 15.8613 111.968 15.9093 111.925 15.952C111.893 15.984 111.85 16 111.797 16H110.373C110.266 16 110.192 15.9573 110.149 15.872L105.541 8.32C105.52 8.288 105.498 8.27733 105.477 8.288C105.456 8.288 105.445 8.30933 105.445 8.352L105.477 15.808C105.477 15.8613 105.456 15.9093 105.413 15.952C105.381 15.984 105.338 16 105.285 16H103.813C103.76 16 103.712 15.984 103.669 15.952C103.637 15.9093 103.621 15.8613 103.621 15.808V4.992C103.621 4.93867 103.637 4.896 103.669 4.864C103.712 4.82133 103.76 4.8 103.813 4.8H105.237C105.344 4.8 105.418 4.84267 105.461 4.928L110.053 12.48C110.074 12.512 110.096 12.528 110.117 12.528C110.138 12.5173 110.149 12.4907 110.149 12.448L110.133 4.992ZM124.887 4.8C124.941 4.8 124.983 4.82133 125.015 4.864C125.058 4.896 125.079 4.93867 125.079 4.992V6.224C125.079 6.27733 125.058 6.32533 125.015 6.368C124.983 6.4 124.941 6.416 124.887 6.416H121.943C121.89 6.416 121.863 6.44267 121.863 6.496V15.808C121.863 15.8613 121.842 15.9093 121.799 15.952C121.767 15.984 121.725 16 121.671 16H120.199C120.146 16 120.098 15.984 120.055 15.952C120.023 15.9093 120.007 15.8613 120.007 15.808V6.496C120.007 6.44267 119.981 6.416 119.927 6.416H117.095C117.042 6.416 116.994 6.4 116.951 6.368C116.919 6.32533 116.903 6.27733 116.903 6.224V4.992C116.903 4.93867 116.919 4.896 116.951 4.864C116.994 4.82133 117.042 4.8 117.095 4.8H124.887ZM130.023 16.16C129.223 16.16 128.513 16 127.895 15.68C127.276 15.3493 126.796 14.8853 126.455 14.288C126.124 13.6907 125.959 13.0027 125.959 12.224V8.576C125.959 7.808 126.129 7.13067 126.471 6.544C126.812 5.94667 127.287 5.488 127.895 5.168C128.513 4.83733 129.223 4.672 130.023 4.672C130.833 4.672 131.543 4.83733 132.151 5.168C132.769 5.488 133.249 5.94667 133.591 6.544C133.932 7.13067 134.102 7.808 134.102 8.576V12.224C134.102 13.0027 133.932 13.6907 133.591 14.288C133.249 14.8853 132.769 15.3493 132.151 15.68C131.543 16 130.833 16.16 130.023 16.16ZM130.023 14.56C130.695 14.56 131.233 14.352 131.639 13.936C132.044 13.52 132.247 12.9707 132.247 12.288V8.56C132.247 7.86667 132.044 7.312 131.639 6.896C131.233 6.48 130.695 6.272 130.023 6.272C129.361 6.272 128.828 6.48 128.423 6.896C128.017 7.312 127.815 7.86667 127.815 8.56V12.288C127.815 12.9707 128.017 13.52 128.423 13.936C128.828 14.352 129.361 14.56 130.023 14.56ZM146.587 4.928C146.64 4.84267 146.715 4.8 146.811 4.8H148.283C148.336 4.8 148.379 4.82133 148.411 4.864C148.454 4.896 148.475 4.93867 148.475 4.992V15.808C148.475 15.8613 148.454 15.9093 148.411 15.952C148.379 15.984 148.336 16 148.283 16H146.811C146.758 16 146.71 15.984 146.667 15.952C146.635 15.9093 146.619 15.8613 146.619 15.808V8.176C146.619 8.144 146.603 8.12267 146.571 8.112C146.55 8.10133 146.534 8.112 146.523 8.144L144.523 11.216C144.47 11.3013 144.395 11.344 144.299 11.344H143.563C143.467 11.344 143.392 11.3013 143.339 11.216L141.323 8.16C141.312 8.128 141.291 8.11733 141.259 8.128C141.238 8.13867 141.227 8.16 141.227 8.192V15.808C141.227 15.8613 141.206 15.9093 141.163 15.952C141.131 15.984 141.088 16 141.035 16H139.563C139.51 16 139.462 15.984 139.419 15.952C139.387 15.9093 139.371 15.8613 139.371 15.808V4.992C139.371 4.93867 139.387 4.896 139.419 4.864C139.462 4.82133 139.51 4.8 139.563 4.8H141.035C141.131 4.8 141.206 4.84267 141.259 4.928L143.867 8.88C143.888 8.90133 143.91 8.912 143.931 8.912C143.952 8.912 143.968 8.90133 143.979 8.88L146.587 4.928ZM158.393 6.208C158.393 6.26133 158.371 6.30933 158.329 6.352C158.297 6.384 158.254 6.4 158.201 6.4H152.745C152.691 6.4 152.665 6.42667 152.665 6.48V9.472C152.665 9.52533 152.691 9.552 152.745 9.552H156.409C156.462 9.552 156.505 9.57333 156.537 9.616C156.579 9.648 156.601 9.69067 156.601 9.744V10.96C156.601 11.0133 156.579 11.0613 156.537 11.104C156.505 11.136 156.462 11.152 156.409 11.152H152.745C152.691 11.152 152.665 11.1787 152.665 11.232V14.32C152.665 14.3733 152.691 14.4 152.745 14.4H158.201C158.254 14.4 158.297 14.4213 158.329 14.464C158.371 14.496 158.393 14.5387 158.393 14.592V15.808C158.393 15.8613 158.371 15.9093 158.329 15.952C158.297 15.984 158.254 16 158.201 16H151.001C150.947 16 150.899 15.984 150.857 15.952C150.825 15.9093 150.809 15.8613 150.809 15.808V4.992C150.809 4.93867 150.825 4.896 150.857 4.864C150.899 4.82133 150.947 4.8 151.001 4.8H158.201C158.254 4.8 158.297 4.82133 158.329 4.864C158.371 4.896 158.393 4.93867 158.393 4.992V6.208ZM166.789 4.992C166.789 4.93867 166.805 4.896 166.837 4.864C166.88 4.82133 166.928 4.8 166.981 4.8H168.453C168.507 4.8 168.549 4.82133 168.581 4.864C168.624 4.896 168.645 4.93867 168.645 4.992V15.808C168.645 15.8613 168.624 15.9093 168.581 15.952C168.549 15.984 168.507 16 168.453 16H167.029C166.923 16 166.848 15.9573 166.805 15.872L162.197 8.32C162.176 8.288 162.155 8.27733 162.133 8.288C162.112 8.288 162.101 8.30933 162.101 8.352L162.133 15.808C162.133 15.8613 162.112 15.9093 162.069 15.952C162.037 15.984 161.995 16 161.941 16H160.469C160.416 16 160.368 15.984 160.325 15.952C160.293 15.9093 160.277 15.8613 160.277 15.808V4.992C160.277 4.93867 160.293 4.896 160.325 4.864C160.368 4.82133 160.416 4.8 160.469 4.8H161.893C162 4.8 162.075 4.84267 162.117 4.928L166.709 12.48C166.731 12.512 166.752 12.528 166.773 12.528C166.795 12.5173 166.805 12.4907 166.805 12.448L166.789 4.992ZM174.901 16.128C174.111 16.128 173.413 15.9733 172.805 15.664C172.197 15.3547 171.722 14.9173 171.381 14.352C171.05 13.776 170.885 13.1147 170.885 12.368V4.992C170.885 4.93867 170.901 4.896 170.933 4.864C170.975 4.82133 171.023 4.8 171.077 4.8H172.549C172.602 4.8 172.645 4.82133 172.677 4.864C172.719 4.896 172.741 4.93867 172.741 4.992V12.4C172.741 13.0293 172.938 13.5413 173.333 13.936C173.727 14.3307 174.25 14.528 174.901 14.528C175.551 14.528 176.074 14.3307 176.469 13.936C176.863 13.5413 177.061 13.0293 177.061 12.4V4.992C177.061 4.93867 177.077 4.896 177.109 4.864C177.151 4.82133 177.199 4.8 177.253 4.8H178.725C178.778 4.8 178.821 4.82133 178.852 4.864C178.895 4.896 178.917 4.93867 178.917 4.992V12.368C178.917 13.1147 178.751 13.776 178.421 14.352C178.09 14.9173 177.621 15.3547 177.013 15.664C176.405 15.9733 175.701 16.128 174.901 16.128Z" fill="#801426"/>
<path d="M185.332 17.536C185.225 17.536 185.15 17.4987 185.108 17.424C184.521 16.624 184.046 15.6533 183.684 14.512C183.332 13.36 183.155 12.096 183.155 10.72C183.155 9.33333 183.332 8.064 183.684 6.912C184.046 5.74933 184.526 4.76267 185.124 3.952C185.166 3.87733 185.241 3.84 185.348 3.84H186.756C186.83 3.84 186.878 3.86133 186.9 3.904C186.932 3.94667 186.932 4 186.9 4.064C186.409 4.91733 186.009 5.91467 185.7 7.056C185.39 8.18667 185.236 9.408 185.236 10.72C185.236 12.0213 185.39 13.232 185.7 14.352C186.009 15.472 186.409 16.4587 186.9 17.312C186.921 17.3547 186.932 17.3867 186.932 17.408C186.932 17.4933 186.873 17.536 186.756 17.536H185.332ZM189.61 16C189.557 16 189.509 15.984 189.466 15.952C189.434 15.9093 189.418 15.8613 189.418 15.808V4.992C189.418 4.93867 189.434 4.896 189.466 4.864C189.509 4.82133 189.557 4.8 189.61 4.8H191.082C191.135 4.8 191.178 4.82133 191.21 4.864C191.253 4.896 191.274 4.93867 191.274 4.992V15.808C191.274 15.8613 191.253 15.9093 191.21 15.952C191.178 15.984 191.135 16 191.082 16H189.61ZM195.718 14.304C195.696 14.3253 195.686 14.3467 195.686 14.368C195.696 14.3893 195.718 14.4 195.75 14.4H200.31C200.363 14.4 200.406 14.4213 200.438 14.464C200.48 14.496 200.502 14.5387 200.502 14.592V15.808C200.502 15.8613 200.48 15.9093 200.438 15.952C200.406 15.984 200.363 16 200.31 16H193.43C193.376 16 193.328 15.984 193.286 15.952C193.254 15.9093 193.238 15.8613 193.238 15.808V14.656C193.238 14.56 193.27 14.48 193.334 14.416C194.144 13.552 195.083 12.4907 196.15 11.232L196.902 10.352C197.883 9.21067 198.374 8.34667 198.374 7.76C198.374 7.32267 198.219 6.96533 197.91 6.688C197.6 6.41067 197.2 6.272 196.71 6.272C196.219 6.272 195.819 6.41067 195.51 6.688C195.211 6.96533 195.062 7.33333 195.062 7.792V8.208C195.062 8.26133 195.04 8.30933 194.998 8.352C194.966 8.384 194.923 8.4 194.87 8.4H193.382C193.328 8.4 193.28 8.384 193.238 8.352C193.206 8.30933 193.19 8.26133 193.19 8.208V7.52C193.211 6.944 193.376 6.44267 193.686 6.016C193.995 5.58933 194.411 5.25867 194.934 5.024C195.467 4.78933 196.059 4.672 196.71 4.672C197.424 4.672 198.048 4.80533 198.582 5.072C199.115 5.33867 199.526 5.70667 199.814 6.176C200.102 6.63467 200.246 7.152 200.246 7.728C200.246 8.60267 199.782 9.61067 198.854 10.752C198.342 11.392 197.499 12.352 196.326 13.632L195.718 14.304ZM209.634 4.928C209.687 4.84267 209.762 4.8 209.858 4.8H211.33C211.383 4.8 211.426 4.82133 211.458 4.864C211.501 4.896 211.522 4.93867 211.522 4.992V15.808C211.522 15.8613 211.501 15.9093 211.458 15.952C211.426 15.984 211.383 16 211.33 16H209.858C209.805 16 209.757 15.984 209.714 15.952C209.682 15.9093 209.666 15.8613 209.666 15.808V8.176C209.666 8.144 209.65 8.12267 209.618 8.112C209.597 8.10133 209.581 8.112 209.57 8.144L207.57 11.216C207.517 11.3013 207.442 11.344 207.346 11.344H206.61C206.514 11.344 206.439 11.3013 206.386 11.216L204.37 8.16C204.359 8.128 204.338 8.11733 204.306 8.128C204.285 8.13867 204.274 8.16 204.274 8.192V15.808C204.274 15.8613 204.253 15.9093 204.21 15.952C204.178 15.984 204.135 16 204.082 16H202.61C202.557 16 202.509 15.984 202.466 15.952C202.434 15.9093 202.418 15.8613 202.418 15.808V4.992C202.418 4.93867 202.434 4.896 202.466 4.864C202.509 4.82133 202.557 4.8 202.61 4.8H204.082C204.178 4.8 204.253 4.84267 204.306 4.928L206.914 8.88C206.935 8.90133 206.957 8.912 206.978 8.912C206.999 8.912 207.015 8.90133 207.026 8.88L209.634 4.928ZM215.616 3.84C215.722 3.84 215.797 3.87733 215.84 3.952C216.426 4.752 216.896 5.728 217.248 6.88C217.61 8.02133 217.792 9.27467 217.792 10.64C217.792 12.016 217.61 13.2907 217.248 14.464C216.885 15.6267 216.405 16.6133 215.808 17.424C215.765 17.4987 215.69 17.536 215.584 17.536H214.176C214.101 17.536 214.048 17.5147 214.016 17.472C213.994 17.4293 214 17.376 214.032 17.312C214.522 16.4587 214.922 15.4667 215.232 14.336C215.541 13.1947 215.696 11.968 215.696 10.656C215.696 9.344 215.541 8.128 215.232 7.008C214.922 5.888 214.522 4.90667 214.032 4.064C214.01 4.02133 214 3.98933 214 3.968C214 3.88267 214.058 3.84 214.176 3.84H215.616Z" fill="#212121" fill-opacity="0.6"/>
<circle cx="4" cy="31" r="4" fill="#C41E3A"/>
<line x1="247" y1="31.5" x2="8" y2="31.5" stroke="#7D1425" stroke-dasharray="3 3"/>
<path d="M25.6553 47.2C25.7487 47.2 25.7953 47.2467 25.7953 47.34V48.236C25.7953 48.3293 25.7487 48.376 25.6553 48.376H22.9673C22.93 48.376 22.9113 48.3947 22.9113 48.432V56.86C22.9113 56.9533 22.8647 57 22.7713 57H21.7073C21.614 57 21.5673 56.9533 21.5673 56.86V48.432C21.5673 48.3947 21.5487 48.376 21.5113 48.376H18.9493C18.856 48.376 18.8093 48.3293 18.8093 48.236V47.34C18.8093 47.2467 18.856 47.2 18.9493 47.2H25.6553ZM30.9232 50.014C30.9232 49.9207 30.9698 49.874 31.0632 49.874H32.1132C32.2065 49.874 32.2532 49.9207 32.2532 50.014V56.86C32.2532 56.9533 32.2065 57 32.1132 57H31.0632C30.9698 57 30.9232 56.9533 30.9232 56.86V56.342C30.9232 56.3233 30.9138 56.314 30.8952 56.314C30.8858 56.3047 30.8718 56.3093 30.8532 56.328C30.4798 56.8413 29.9058 57.098 29.1312 57.098C28.6738 57.098 28.2492 57.0093 27.8572 56.832C27.4745 56.6547 27.1665 56.3933 26.9332 56.048C26.6998 55.7027 26.5832 55.2827 26.5832 54.788V50.014C26.5832 49.9207 26.6298 49.874 26.7232 49.874H27.7732C27.8665 49.874 27.9132 49.9207 27.9132 50.014V54.368C27.9132 54.8533 28.0392 55.236 28.2912 55.516C28.5525 55.796 28.9165 55.936 29.3832 55.936C29.8498 55.936 30.2232 55.796 30.5032 55.516C30.7832 55.2267 30.9232 54.844 30.9232 54.368V50.014ZM37.3364 49.804C37.635 49.804 37.9057 49.8647 38.1484 49.986C38.2137 50.014 38.237 50.07 38.2184 50.154L37.9944 51.204C37.985 51.288 37.929 51.316 37.8264 51.288C37.6677 51.2227 37.481 51.19 37.2664 51.19L37.0704 51.204C36.6317 51.2227 36.2677 51.3767 35.9784 51.666C35.6984 51.946 35.5584 52.3147 35.5584 52.772V56.86C35.5584 56.9533 35.5117 57 35.4184 57H34.3544C34.261 57 34.2144 56.9533 34.2144 56.86V50.014C34.2144 49.9207 34.261 49.874 34.3544 49.874H35.4184C35.5117 49.874 35.5584 49.9207 35.5584 50.014V50.756C35.5584 50.784 35.563 50.8027 35.5724 50.812C35.591 50.812 35.605 50.8027 35.6144 50.784C36.0344 50.1307 36.6084 49.804 37.3364 49.804ZM42.5877 49.776C43.353 49.776 43.9597 50 44.4077 50.448C44.8557 50.8867 45.0797 51.484 45.0797 52.24V56.86C45.0797 56.9533 45.033 57 44.9397 57H43.8757C43.7824 57 43.7357 56.9533 43.7357 56.86V52.506C43.7357 52.0393 43.6004 51.6613 43.3297 51.372C43.059 51.0827 42.6997 50.938 42.2517 50.938C41.813 50.938 41.4537 51.0827 41.1737 51.372C40.8937 51.6613 40.7537 52.0347 40.7537 52.492V56.86C40.7537 56.9533 40.707 57 40.6137 57H39.5497C39.4564 57 39.4097 56.9533 39.4097 56.86V50.014C39.4097 49.9207 39.4564 49.874 39.5497 49.874H40.6137C40.707 49.874 40.7537 49.9207 40.7537 50.014V50.518C40.7537 50.5367 40.7584 50.5507 40.7677 50.56C40.7864 50.5693 40.8004 50.5647 40.8097 50.546C41.211 50.0327 41.8037 49.776 42.5877 49.776ZM47.8096 48.754C47.5482 48.754 47.3336 48.67 47.1656 48.502C46.9976 48.334 46.9136 48.1193 46.9136 47.858C46.9136 47.5967 46.9976 47.382 47.1656 47.214C47.3336 47.046 47.5482 46.962 47.8096 46.962C48.0709 46.962 48.2856 47.046 48.4536 47.214C48.6216 47.382 48.7056 47.5967 48.7056 47.858C48.7056 48.1193 48.6216 48.334 48.4536 48.502C48.2856 48.67 48.0709 48.754 47.8096 48.754ZM47.2496 56.986C47.1562 56.986 47.1096 56.9393 47.1096 56.846V50.014C47.1096 49.9207 47.1562 49.874 47.2496 49.874H48.3136C48.4069 49.874 48.4536 49.9207 48.4536 50.014V56.846C48.4536 56.9393 48.4069 56.986 48.3136 56.986H47.2496ZM53.7439 49.776C54.5093 49.776 55.1159 50 55.5639 50.448C56.0119 50.8867 56.2359 51.484 56.2359 52.24V56.86C56.2359 56.9533 56.1893 57 56.0959 57H55.0319C54.9386 57 54.8919 56.9533 54.8919 56.86V52.506C54.8919 52.0393 54.7566 51.6613 54.4859 51.372C54.2153 51.0827 53.8559 50.938 53.4079 50.938C52.9693 50.938 52.6099 51.0827 52.3299 51.372C52.0499 51.6613 51.9099 52.0347 51.9099 52.492V56.86C51.9099 56.9533 51.8633 57 51.7699 57H50.7059C50.6126 57 50.5659 56.9533 50.5659 56.86V50.014C50.5659 49.9207 50.6126 49.874 50.7059 49.874H51.7699C51.8633 49.874 51.9099 49.9207 51.9099 50.014V50.518C51.9099 50.5367 51.9146 50.5507 51.9239 50.56C51.9426 50.5693 51.9566 50.5647 51.9659 50.546C52.3673 50.0327 52.9599 49.776 53.7439 49.776ZM62.5358 50.014C62.5358 49.9207 62.5825 49.874 62.6758 49.874H63.7398C63.8332 49.874 63.8798 49.9207 63.8798 50.014V56.636C63.8798 57.7653 63.5578 58.5727 62.9138 59.058C62.2792 59.5433 61.4252 59.786 60.3518 59.786C60.2025 59.786 59.9692 59.7767 59.6518 59.758C59.5585 59.7487 59.5118 59.6973 59.5118 59.604L59.5538 58.638C59.5538 58.6007 59.5678 58.568 59.5958 58.54C59.6238 58.512 59.6612 58.5027 59.7078 58.512C59.8385 58.5213 60.0298 58.526 60.2818 58.526C61.0752 58.526 61.6492 58.3767 62.0038 58.078C62.3585 57.7887 62.5358 57.294 62.5358 56.594V56.342C62.5358 56.3233 62.5265 56.3093 62.5078 56.3C62.4985 56.2907 62.4845 56.2953 62.4658 56.314C62.0738 56.7713 61.4998 57 60.7438 57C60.1372 57 59.5865 56.8413 59.0918 56.524C58.6065 56.2067 58.2705 55.74 58.0838 55.124C57.9625 54.7133 57.9018 54.144 57.9018 53.416C57.9018 52.6413 57.9718 52.044 58.1118 51.624C58.2892 51.064 58.6018 50.616 59.0498 50.28C59.5072 49.9347 60.0438 49.762 60.6598 49.762C61.4252 49.762 62.0272 49.9953 62.4658 50.462C62.4845 50.4807 62.4985 50.49 62.5078 50.49C62.5265 50.4807 62.5358 50.4667 62.5358 50.448V50.014ZM62.4518 54.718C62.4798 54.5687 62.4985 54.41 62.5078 54.242C62.5265 54.074 62.5358 53.794 62.5358 53.402C62.5358 53.01 62.5265 52.7347 62.5078 52.576C62.4985 52.408 62.4752 52.2493 62.4378 52.1C62.3632 51.7547 62.1952 51.4747 61.9338 51.26C61.6725 51.036 61.3458 50.924 60.9538 50.924C60.5618 50.924 60.2352 51.036 59.9738 51.26C59.7125 51.4747 59.5258 51.7547 59.4138 52.1C59.3112 52.38 59.2598 52.814 59.2598 53.402C59.2598 54.046 59.3065 54.4847 59.3998 54.718C59.4932 55.0633 59.6752 55.348 59.9458 55.572C60.2258 55.7867 60.5618 55.894 60.9538 55.894C61.3645 55.894 61.6958 55.7867 61.9478 55.572C62.2092 55.348 62.3772 55.0633 62.4518 54.718ZM70.4341 57C70.3501 57 70.2941 56.9627 70.2661 56.888L67.9841 50.028L67.9701 49.972C67.9701 49.9067 68.0121 49.874 68.0961 49.874H69.2721C69.3561 49.874 69.4121 49.9113 69.4401 49.986L70.9801 55.054C70.9895 55.0727 71.0035 55.082 71.0221 55.082C71.0408 55.082 71.0548 55.0727 71.0641 55.054L72.5901 49.986C72.6181 49.9113 72.6741 49.874 72.7581 49.874L73.9341 49.888C74.0368 49.888 74.0741 49.9393 74.0461 50.042L71.7781 56.888C71.7501 56.9627 71.6941 57 71.6101 57H70.4341ZM76.2471 48.754C75.9857 48.754 75.7711 48.67 75.6031 48.502C75.4351 48.334 75.3511 48.1193 75.3511 47.858C75.3511 47.5967 75.4351 47.382 75.6031 47.214C75.7711 47.046 75.9857 46.962 76.2471 46.962C76.5084 46.962 76.7231 47.046 76.8911 47.214C77.0591 47.382 77.1431 47.5967 77.1431 47.858C77.1431 48.1193 77.0591 48.334 76.8911 48.502C76.7231 48.67 76.5084 48.754 76.2471 48.754ZM75.6871 56.986C75.5937 56.986 75.5471 56.9393 75.5471 56.846V50.014C75.5471 49.9207 75.5937 49.874 75.6871 49.874H76.7511C76.8444 49.874 76.8911 49.9207 76.8911 50.014V56.846C76.8911 56.9393 76.8444 56.986 76.7511 56.986H75.6871ZM81.5094 57.084C80.9494 57.084 80.4548 57 80.0254 56.832C79.6054 56.664 79.2788 56.4353 79.0454 56.146C78.8121 55.8473 78.6954 55.5207 78.6954 55.166V55.012C78.6954 54.9187 78.7421 54.872 78.8354 54.872H79.8434C79.9368 54.872 79.9834 54.9187 79.9834 55.012V55.082C79.9834 55.3433 80.1234 55.572 80.4034 55.768C80.6928 55.964 81.0568 56.062 81.4954 56.062C81.9154 56.062 82.2561 55.9733 82.5174 55.796C82.7788 55.6093 82.9094 55.376 82.9094 55.096C82.9094 54.8253 82.7881 54.6247 82.5454 54.494C82.3028 54.354 81.9108 54.2093 81.3694 54.06C80.8374 53.9107 80.3894 53.7613 80.0254 53.612C79.6708 53.4533 79.3674 53.234 79.1154 52.954C78.8728 52.6647 78.7514 52.296 78.7514 51.848C78.7514 51.2227 78.9941 50.728 79.4794 50.364C79.9741 49.9907 80.6274 49.804 81.4394 49.804C81.9808 49.804 82.4568 49.8927 82.8674 50.07C83.2874 50.238 83.6094 50.476 83.8334 50.784C84.0574 51.092 84.1694 51.4373 84.1694 51.82V51.862C84.1694 51.9553 84.1228 52.002 84.0294 52.002H83.0494C82.9561 52.002 82.9094 51.9553 82.9094 51.862V51.82C82.9094 51.5493 82.7741 51.3253 82.5034 51.148C82.2421 50.9613 81.8828 50.868 81.4254 50.868C81.0148 50.868 80.6788 50.9473 80.4174 51.106C80.1654 51.2647 80.0394 51.4793 80.0394 51.75C80.0394 52.0207 80.1608 52.226 80.4034 52.366C80.6554 52.506 81.0568 52.6553 81.6074 52.814C82.1488 52.9633 82.5968 53.1127 82.9514 53.262C83.3154 53.402 83.6234 53.6167 83.8754 53.906C84.1274 54.186 84.2534 54.5547 84.2534 55.012C84.2534 55.6467 84.0014 56.1507 83.4974 56.524C83.0028 56.8973 82.3401 57.084 81.5094 57.084ZM86.6377 48.754C86.3764 48.754 86.1617 48.67 85.9937 48.502C85.8257 48.334 85.7417 48.1193 85.7417 47.858C85.7417 47.5967 85.8257 47.382 85.9937 47.214C86.1617 47.046 86.3764 46.962 86.6377 46.962C86.899 46.962 87.1137 47.046 87.2817 47.214C87.4497 47.382 87.5337 47.5967 87.5337 47.858C87.5337 48.1193 87.4497 48.334 87.2817 48.502C87.1137 48.67 86.899 48.754 86.6377 48.754ZM86.0777 56.986C85.9844 56.986 85.9377 56.9393 85.9377 56.846V50.014C85.9377 49.9207 85.9844 49.874 86.0777 49.874H87.1417C87.235 49.874 87.2817 49.9207 87.2817 50.014V56.846C87.2817 56.9393 87.235 56.986 87.1417 56.986H86.0777ZM95.1481 51.722C95.2974 52.198 95.3721 52.7627 95.3721 53.416C95.3721 54.116 95.2834 54.7133 95.1061 55.208C94.9007 55.8147 94.5741 56.286 94.1261 56.622C93.6874 56.9487 93.1321 57.112 92.4601 57.112C92.1334 57.112 91.8301 57.0467 91.5501 56.916C91.2701 56.7853 91.0274 56.6033 90.8221 56.37C90.8034 56.3513 90.7847 56.3467 90.7661 56.356C90.7567 56.3653 90.7521 56.3793 90.7521 56.398V56.86C90.7521 56.9533 90.7054 57 90.6121 57H89.5481C89.4547 57 89.4081 56.9533 89.4081 56.86V47.34C89.4081 47.2467 89.4547 47.2 89.5481 47.2H90.6121C90.7054 47.2 90.7521 47.2467 90.7521 47.34V50.462C90.7521 50.4807 90.7567 50.4947 90.7661 50.504C90.7847 50.5133 90.8034 50.5087 90.8221 50.49C91.0274 50.2567 91.2701 50.0793 91.5501 49.958C91.8394 49.8273 92.1427 49.762 92.4601 49.762C93.1601 49.762 93.7341 49.9347 94.1821 50.28C94.6301 50.6253 94.9521 51.106 95.1481 51.722ZM93.6641 55.18C93.8974 54.7413 94.0141 54.1627 94.0141 53.444C94.0141 52.6787 93.8647 52.0627 93.5661 51.596C93.2954 51.148 92.8801 50.924 92.3201 50.924C91.7974 50.924 91.4007 51.162 91.1301 51.638C90.8874 52.0673 90.7661 52.6647 90.7661 53.43C90.7661 54.1953 90.8781 54.7833 91.1021 55.194C91.3821 55.698 91.7927 55.95 92.3341 55.95C92.9501 55.95 93.3934 55.6933 93.6641 55.18ZM97.9443 48.754C97.683 48.754 97.4683 48.67 97.3003 48.502C97.1323 48.334 97.0483 48.1193 97.0483 47.858C97.0483 47.5967 97.1323 47.382 97.3003 47.214C97.4683 47.046 97.683 46.962 97.9443 46.962C98.2057 46.962 98.4203 47.046 98.5883 47.214C98.7563 47.382 98.8403 47.5967 98.8403 47.858C98.8403 48.1193 98.7563 48.334 98.5883 48.502C98.4203 48.67 98.2057 48.754 97.9443 48.754ZM97.3843 56.986C97.291 56.986 97.2443 56.9393 97.2443 56.846V50.014C97.2443 49.9207 97.291 49.874 97.3843 49.874H98.4483C98.5417 49.874 98.5883 49.9207 98.5883 50.014V56.846C98.5883 56.9393 98.5417 56.986 98.4483 56.986H97.3843ZM100.841 57C100.747 57 100.701 56.9533 100.701 56.86V47.34C100.701 47.2467 100.747 47.2 100.841 47.2H101.905C101.998 47.2 102.045 47.2467 102.045 47.34V56.86C102.045 56.9533 101.998 57 101.905 57H100.841ZM104.808 48.754C104.546 48.754 104.332 48.67 104.164 48.502C103.996 48.334 103.912 48.1193 103.912 47.858C103.912 47.5967 103.996 47.382 104.164 47.214C104.332 47.046 104.546 46.962 104.808 46.962C105.069 46.962 105.284 47.046 105.452 47.214C105.62 47.382 105.704 47.5967 105.704 47.858C105.704 48.1193 105.62 48.334 105.452 48.502C105.284 48.67 105.069 48.754 104.808 48.754ZM104.248 56.986C104.154 56.986 104.108 56.9393 104.108 56.846V50.014C104.108 49.9207 104.154 49.874 104.248 49.874H105.312C105.405 49.874 105.452 49.9207 105.452 50.014V56.846C105.452 56.9393 105.405 56.986 105.312 56.986H104.248ZM111.078 50.84C111.078 50.9333 111.031 50.98 110.938 50.98H109.426C109.389 50.98 109.37 50.9987 109.37 51.036V54.746C109.37 55.138 109.459 55.4227 109.636 55.6C109.813 55.768 110.089 55.852 110.462 55.852H110.868C110.961 55.852 111.008 55.8987 111.008 55.992V56.86C111.008 56.9533 110.961 57 110.868 57C110.569 57.0187 110.355 57.028 110.224 57.028C109.515 57.028 108.978 56.902 108.614 56.65C108.259 56.3887 108.082 55.9127 108.082 55.222V51.036C108.082 50.9987 108.063 50.98 108.026 50.98H107.172C107.079 50.98 107.032 50.9333 107.032 50.84V50.014C107.032 49.9207 107.079 49.874 107.172 49.874H108.026C108.063 49.874 108.082 49.8553 108.082 49.818V48.166C108.082 48.0727 108.129 48.026 108.222 48.026H109.23C109.323 48.026 109.37 48.0727 109.37 48.166V49.818C109.37 49.8553 109.389 49.874 109.426 49.874H110.938C111.031 49.874 111.078 49.9207 111.078 50.014V50.84ZM112.522 59.786C112.457 59.786 112.424 59.7393 112.424 59.646V58.82C112.424 58.7267 112.471 58.68 112.564 58.68H112.592C112.965 58.6707 113.259 58.624 113.474 58.54C113.689 58.456 113.866 58.2973 114.006 58.064C114.146 57.84 114.281 57.4993 114.412 57.042C114.421 57.0327 114.421 57.0187 114.412 57C114.412 56.972 114.412 56.958 114.412 56.958L112.074 50.028L112.06 49.972C112.06 49.9067 112.102 49.874 112.186 49.874H113.32C113.404 49.874 113.46 49.9113 113.488 49.986L115.07 55.264C115.079 55.2827 115.093 55.292 115.112 55.292C115.131 55.292 115.145 55.2827 115.154 55.264L116.722 49.986C116.75 49.9113 116.806 49.874 116.89 49.874H117.996C118.099 49.874 118.136 49.9253 118.108 50.028L115.56 57.49C115.345 58.134 115.131 58.61 114.916 58.918C114.701 59.2353 114.421 59.4593 114.076 59.59C113.731 59.7207 113.245 59.786 112.62 59.786H112.522ZM123.005 48.754C122.744 48.754 122.529 48.67 122.361 48.502C122.193 48.334 122.109 48.1193 122.109 47.858C122.109 47.5967 122.193 47.382 122.361 47.214C122.529 47.046 122.744 46.962 123.005 46.962C123.266 46.962 123.481 47.046 123.649 47.214C123.817 47.382 123.901 47.5967 123.901 47.858C123.901 48.1193 123.817 48.334 123.649 48.502C123.481 48.67 123.266 48.754 123.005 48.754ZM122.445 56.986C122.352 56.986 122.305 56.9393 122.305 56.846V50.014C122.305 49.9207 122.352 49.874 122.445 49.874H123.509C123.602 49.874 123.649 49.9207 123.649 50.014V56.846C123.649 56.9393 123.602 56.986 123.509 56.986H122.445ZM128.939 49.776C129.705 49.776 130.311 50 130.759 50.448C131.207 50.8867 131.431 51.484 131.431 52.24V56.86C131.431 56.9533 131.385 57 131.291 57H130.227C130.134 57 130.087 56.9533 130.087 56.86V52.506C130.087 52.0393 129.952 51.6613 129.681 51.372C129.411 51.0827 129.051 50.938 128.603 50.938C128.165 50.938 127.805 51.0827 127.525 51.372C127.245 51.6613 127.105 52.0347 127.105 52.492V56.86C127.105 56.9533 127.059 57 126.965 57H125.901C125.808 57 125.761 56.9533 125.761 56.86V50.014C125.761 49.9207 125.808 49.874 125.901 49.874H126.965C127.059 49.874 127.105 49.9207 127.105 50.014V50.518C127.105 50.5367 127.11 50.5507 127.119 50.56C127.138 50.5693 127.152 50.5647 127.161 50.546C127.563 50.0327 128.155 49.776 128.939 49.776ZM136.863 50.84C136.863 50.9333 136.816 50.98 136.723 50.98H135.211C135.174 50.98 135.155 50.9987 135.155 51.036V54.746C135.155 55.138 135.244 55.4227 135.421 55.6C135.598 55.768 135.874 55.852 136.247 55.852H136.653C136.746 55.852 136.793 55.8987 136.793 55.992V56.86C136.793 56.9533 136.746 57 136.653 57C136.354 57.0187 136.14 57.028 136.009 57.028C135.3 57.028 134.763 56.902 134.399 56.65C134.044 56.3887 133.867 55.9127 133.867 55.222V51.036C133.867 50.9987 133.848 50.98 133.811 50.98H132.957C132.864 50.98 132.817 50.9333 132.817 50.84V50.014C132.817 49.9207 132.864 49.874 132.957 49.874H133.811C133.848 49.874 133.867 49.8553 133.867 49.818V48.166C133.867 48.0727 133.914 48.026 134.007 48.026H135.015C135.108 48.026 135.155 48.0727 135.155 48.166V49.818C135.155 49.8553 135.174 49.874 135.211 49.874H136.723C136.816 49.874 136.863 49.9207 136.863 50.014V50.84ZM141.265 57.112C140.574 57.112 139.972 56.9393 139.459 56.594C138.946 56.2393 138.586 55.7493 138.381 55.124C138.213 54.62 138.129 54.0507 138.129 53.416C138.129 52.7533 138.208 52.1933 138.367 51.736C138.572 51.12 138.932 50.6393 139.445 50.294C139.958 49.9393 140.57 49.762 141.279 49.762C141.951 49.762 142.534 49.9393 143.029 50.294C143.533 50.6393 143.892 51.1153 144.107 51.722C144.275 52.198 144.359 52.758 144.359 53.402C144.359 54.0553 144.275 54.6293 144.107 55.124C143.902 55.7493 143.547 56.2393 143.043 56.594C142.539 56.9393 141.946 57.112 141.265 57.112ZM141.265 55.95C141.638 55.95 141.965 55.8473 142.245 55.642C142.525 55.4273 142.726 55.1287 142.847 54.746C142.95 54.3913 143.001 53.9527 143.001 53.43C143.001 52.9073 142.954 52.4733 142.861 52.128C142.74 51.7453 142.539 51.4513 142.259 51.246C141.979 51.0313 141.638 50.924 141.237 50.924C140.854 50.924 140.523 51.0313 140.243 51.246C139.963 51.4513 139.762 51.7453 139.641 52.128C139.538 52.4547 139.487 52.8887 139.487 53.43C139.487 53.9713 139.538 54.41 139.641 54.746C139.753 55.1287 139.949 55.4273 140.229 55.642C140.518 55.8473 140.864 55.95 141.265 55.95ZM154.689 52.548C154.727 52.9307 154.741 53.36 154.731 53.836C154.731 53.9293 154.685 53.976 154.591 53.976H150.125C150.088 53.976 150.069 53.9947 150.069 54.032C150.069 54.3493 150.097 54.592 150.153 54.76C150.256 55.1333 150.461 55.4273 150.769 55.642C151.087 55.8473 151.483 55.95 151.959 55.95C152.65 55.95 153.182 55.6653 153.555 55.096C153.602 55.0027 153.663 54.9887 153.737 55.054L154.535 55.586C154.601 55.642 154.615 55.7027 154.577 55.768C154.316 56.188 153.943 56.5193 153.457 56.762C152.981 57.0047 152.44 57.126 151.833 57.126C151.152 57.126 150.578 56.9767 150.111 56.678C149.645 56.3793 149.295 55.9547 149.061 55.404C148.837 54.8533 148.725 54.186 148.725 53.402C148.725 52.7207 148.777 52.2027 148.879 51.848C149.047 51.204 149.383 50.6953 149.887 50.322C150.391 49.9487 151.003 49.762 151.721 49.762C152.664 49.762 153.369 50 153.835 50.476C154.302 50.9427 154.587 51.6333 154.689 52.548ZM151.721 50.924C151.32 50.924 150.989 51.0267 150.727 51.232C150.466 51.428 150.289 51.694 150.195 52.03C150.13 52.2353 150.088 52.4967 150.069 52.814C150.069 52.8513 150.088 52.87 150.125 52.87H153.331C153.369 52.87 153.387 52.8513 153.387 52.814C153.369 52.506 153.341 52.2773 153.303 52.128C153.21 51.764 153.023 51.4747 152.743 51.26C152.473 51.036 152.132 50.924 151.721 50.924ZM159.605 49.776C160.371 49.776 160.977 50 161.425 50.448C161.873 50.8867 162.097 51.484 162.097 52.24V56.86C162.097 56.9533 162.051 57 161.957 57H160.893C160.8 57 160.753 56.9533 160.753 56.86V52.506C160.753 52.0393 160.618 51.6613 160.347 51.372C160.077 51.0827 159.717 50.938 159.269 50.938C158.831 50.938 158.471 51.0827 158.191 51.372C157.911 51.6613 157.771 52.0347 157.771 52.492V56.86C157.771 56.9533 157.725 57 157.631 57H156.567C156.474 57 156.427 56.9533 156.427 56.86V50.014C156.427 49.9207 156.474 49.874 156.567 49.874H157.631C157.725 49.874 157.771 49.9207 157.771 50.014V50.518C157.771 50.5367 157.776 50.5507 157.785 50.56C157.804 50.5693 157.818 50.5647 157.827 50.546C158.229 50.0327 158.821 49.776 159.605 49.776ZM168.397 50.014C168.397 49.9207 168.444 49.874 168.537 49.874H169.601C169.694 49.874 169.741 49.9207 169.741 50.014V56.636C169.741 57.7653 169.419 58.5727 168.775 59.058C168.14 59.5433 167.286 59.786 166.213 59.786C166.064 59.786 165.83 59.7767 165.513 59.758C165.42 59.7487 165.373 59.6973 165.373 59.604L165.415 58.638C165.415 58.6007 165.429 58.568 165.457 58.54C165.485 58.512 165.522 58.5027 165.569 58.512C165.7 58.5213 165.891 58.526 166.143 58.526C166.936 58.526 167.51 58.3767 167.865 58.078C168.22 57.7887 168.397 57.294 168.397 56.594V56.342C168.397 56.3233 168.388 56.3093 168.369 56.3C168.36 56.2907 168.346 56.2953 168.327 56.314C167.935 56.7713 167.361 57 166.605 57C165.998 57 165.448 56.8413 164.953 56.524C164.468 56.2067 164.132 55.74 163.945 55.124C163.824 54.7133 163.763 54.144 163.763 53.416C163.763 52.6413 163.833 52.044 163.973 51.624C164.15 51.064 164.463 50.616 164.911 50.28C165.368 49.9347 165.905 49.762 166.521 49.762C167.286 49.762 167.888 49.9953 168.327 50.462C168.346 50.4807 168.36 50.49 168.369 50.49C168.388 50.4807 168.397 50.4667 168.397 50.448V50.014ZM168.313 54.718C168.341 54.5687 168.36 54.41 168.369 54.242C168.388 54.074 168.397 53.794 168.397 53.402C168.397 53.01 168.388 52.7347 168.369 52.576C168.36 52.408 168.336 52.2493 168.299 52.1C168.224 51.7547 168.056 51.4747 167.795 51.26C167.534 51.036 167.207 50.924 166.815 50.924C166.423 50.924 166.096 51.036 165.835 51.26C165.574 51.4747 165.387 51.7547 165.275 52.1C165.172 52.38 165.121 52.814 165.121 53.402C165.121 54.046 165.168 54.4847 165.261 54.718C165.354 55.0633 165.536 55.348 165.807 55.572C166.087 55.7867 166.423 55.894 166.815 55.894C167.226 55.894 167.557 55.7867 167.809 55.572C168.07 55.348 168.238 55.0633 168.313 54.718ZM174.221 49.762C174.79 49.762 175.285 49.8647 175.705 50.07C176.134 50.266 176.461 50.546 176.685 50.91C176.918 51.2647 177.035 51.6707 177.035 52.128V56.86C177.035 56.9533 176.988 57 176.895 57H175.831C175.737 57 175.691 56.9533 175.691 56.86V56.356C175.691 56.3093 175.667 56.3 175.621 56.328C175.378 56.58 175.079 56.776 174.725 56.916C174.379 57.0467 173.992 57.112 173.563 57.112C172.872 57.112 172.298 56.9393 171.841 56.594C171.393 56.2393 171.169 55.7073 171.169 54.998C171.169 54.27 171.421 53.7007 171.925 53.29C172.438 52.87 173.152 52.66 174.067 52.66H175.635C175.672 52.66 175.691 52.6413 175.691 52.604V52.226C175.691 51.8153 175.569 51.498 175.327 51.274C175.093 51.0407 174.734 50.924 174.249 50.924C173.857 50.924 173.535 51.0033 173.283 51.162C173.04 51.3113 172.891 51.5167 172.835 51.778C172.807 51.8713 172.751 51.9133 172.667 51.904L171.533 51.75C171.439 51.7313 171.397 51.694 171.407 51.638C171.481 51.0873 171.775 50.6393 172.289 50.294C172.802 49.9393 173.446 49.762 174.221 49.762ZM173.857 55.978C174.351 55.978 174.781 55.8473 175.145 55.586C175.509 55.3247 175.691 54.9933 175.691 54.592V53.766C175.691 53.7287 175.672 53.71 175.635 53.71H174.319C173.768 53.71 173.329 53.8173 173.003 54.032C172.676 54.2467 172.513 54.5453 172.513 54.928C172.513 55.2733 172.634 55.5347 172.877 55.712C173.129 55.8893 173.455 55.978 173.857 55.978ZM183.231 50.014C183.231 49.9207 183.278 49.874 183.371 49.874H184.435C184.528 49.874 184.575 49.9207 184.575 50.014V56.636C184.575 57.7653 184.253 58.5727 183.609 59.058C182.974 59.5433 182.12 59.786 181.047 59.786C180.898 59.786 180.664 59.7767 180.347 59.758C180.254 59.7487 180.207 59.6973 180.207 59.604L180.249 58.638C180.249 58.6007 180.263 58.568 180.291 58.54C180.319 58.512 180.356 58.5027 180.403 58.512C180.534 58.5213 180.725 58.526 180.977 58.526C181.77 58.526 182.344 58.3767 182.699 58.078C183.054 57.7887 183.231 57.294 183.231 56.594V56.342C183.231 56.3233 183.222 56.3093 183.203 56.3C183.194 56.2907 183.18 56.2953 183.161 56.314C182.769 56.7713 182.195 57 181.439 57C180.832 57 180.282 56.8413 179.787 56.524C179.302 56.2067 178.966 55.74 178.779 55.124C178.658 54.7133 178.597 54.144 178.597 53.416C178.597 52.6413 178.667 52.044 178.807 51.624C178.984 51.064 179.297 50.616 179.745 50.28C180.202 49.9347 180.739 49.762 181.355 49.762C182.12 49.762 182.722 49.9953 183.161 50.462C183.18 50.4807 183.194 50.49 183.203 50.49C183.222 50.4807 183.231 50.4667 183.231 50.448V50.014ZM183.147 54.718C183.175 54.5687 183.194 54.41 183.203 54.242C183.222 54.074 183.231 53.794 183.231 53.402C183.231 53.01 183.222 52.7347 183.203 52.576C183.194 52.408 183.17 52.2493 183.133 52.1C183.058 51.7547 182.89 51.4747 182.629 51.26C182.368 51.036 182.041 50.924 181.649 50.924C181.257 50.924 180.93 51.036 180.669 51.26C180.408 51.4747 180.221 51.7547 180.109 52.1C180.006 52.38 179.955 52.814 179.955 53.402C179.955 54.046 180.002 54.4847 180.095 54.718C180.188 55.0633 180.37 55.348 180.641 55.572C180.921 55.7867 181.257 55.894 181.649 55.894C182.06 55.894 182.391 55.7867 182.643 55.572C182.904 55.348 183.072 55.0633 183.147 54.718ZM192.219 52.548C192.256 52.9307 192.27 53.36 192.261 53.836C192.261 53.9293 192.214 53.976 192.121 53.976H187.655C187.617 53.976 187.599 53.9947 187.599 54.032C187.599 54.3493 187.627 54.592 187.683 54.76C187.785 55.1333 187.991 55.4273 188.299 55.642C188.616 55.8473 189.013 55.95 189.489 55.95C190.179 55.95 190.711 55.6653 191.085 55.096C191.131 55.0027 191.192 54.9887 191.267 55.054L192.065 55.586C192.13 55.642 192.144 55.7027 192.107 55.768C191.845 56.188 191.472 56.5193 190.987 56.762C190.511 57.0047 189.969 57.126 189.363 57.126C188.681 57.126 188.107 56.9767 187.641 56.678C187.174 56.3793 186.824 55.9547 186.591 55.404C186.367 54.8533 186.255 54.186 186.255 53.402C186.255 52.7207 186.306 52.2027 186.409 51.848C186.577 51.204 186.913 50.6953 187.417 50.322C187.921 49.9487 188.532 49.762 189.251 49.762C190.193 49.762 190.898 50 191.365 50.476C191.831 50.9427 192.116 51.6333 192.219 52.548ZM189.251 50.924C188.849 50.924 188.518 51.0267 188.257 51.232C187.995 51.428 187.818 51.694 187.725 52.03C187.659 52.2353 187.617 52.4967 187.599 52.814C187.599 52.8513 187.617 52.87 187.655 52.87H190.861C190.898 52.87 190.917 52.8513 190.917 52.814C190.898 52.506 190.87 52.2773 190.833 52.128C190.739 51.764 190.553 51.4747 190.273 51.26C190.002 51.036 189.661 50.924 189.251 50.924ZM201.363 49.776C202.072 49.776 202.632 49.9907 203.043 50.42C203.453 50.84 203.659 51.428 203.659 52.184V56.86C203.659 56.9533 203.612 57 203.519 57H202.469C202.375 57 202.329 56.9533 202.329 56.86V52.464C202.329 51.9973 202.198 51.6287 201.937 51.358C201.685 51.078 201.344 50.938 200.915 50.938C200.485 50.938 200.135 51.0733 199.865 51.344C199.594 51.6147 199.459 51.9787 199.459 52.436V56.86C199.459 56.9533 199.412 57 199.319 57H198.269C198.175 57 198.129 56.9533 198.129 56.86V52.464C198.129 51.9973 197.998 51.6287 197.737 51.358C197.485 51.078 197.144 50.938 196.715 50.938C196.285 50.938 195.94 51.0733 195.679 51.344C195.427 51.6147 195.301 51.9787 195.301 52.436V56.86C195.301 56.9533 195.254 57 195.161 57H194.097C194.003 57 193.957 56.9533 193.957 56.86V50.014C193.957 49.9207 194.003 49.874 194.097 49.874H195.161C195.254 49.874 195.301 49.9207 195.301 50.014V50.49C195.301 50.5087 195.305 50.5227 195.315 50.532C195.333 50.5413 195.352 50.5367 195.371 50.518C195.781 50.0233 196.379 49.776 197.163 49.776C197.639 49.776 198.045 49.8693 198.381 50.056C198.717 50.2333 198.978 50.4993 199.165 50.854C199.193 50.8913 199.221 50.8913 199.249 50.854C199.473 50.49 199.767 50.2193 200.131 50.042C200.504 49.8647 200.915 49.776 201.363 49.776ZM211.209 52.548C211.246 52.9307 211.26 53.36 211.251 53.836C211.251 53.9293 211.204 53.976 211.111 53.976H206.645C206.608 53.976 206.589 53.9947 206.589 54.032C206.589 54.3493 206.617 54.592 206.673 54.76C206.776 55.1333 206.981 55.4273 207.289 55.642C207.606 55.8473 208.003 55.95 208.479 55.95C209.17 55.95 209.702 55.6653 210.075 55.096C210.122 55.0027 210.182 54.9887 210.257 55.054L211.055 55.586C211.12 55.642 211.134 55.7027 211.097 55.768C210.836 56.188 210.462 56.5193 209.977 56.762C209.501 57.0047 208.96 57.126 208.353 57.126C207.672 57.126 207.098 56.9767 206.631 56.678C206.164 56.3793 205.814 55.9547 205.581 55.404C205.357 54.8533 205.245 54.186 205.245 53.402C205.245 52.7207 205.296 52.2027 205.399 51.848C205.567 51.204 205.903 50.6953 206.407 50.322C206.911 49.9487 207.522 49.762 208.241 49.762C209.184 49.762 209.888 50 210.355 50.476C210.822 50.9427 211.106 51.6333 211.209 52.548ZM208.241 50.924C207.84 50.924 207.508 51.0267 207.247 51.232C206.986 51.428 206.808 51.694 206.715 52.03C206.65 52.2353 206.608 52.4967 206.589 52.814C206.589 52.8513 206.608 52.87 206.645 52.87H209.851C209.888 52.87 209.907 52.8513 209.907 52.814C209.888 52.506 209.86 52.2773 209.823 52.128C209.73 51.764 209.543 51.4747 209.263 51.26C208.992 51.036 208.652 50.924 208.241 50.924ZM216.125 49.776C216.89 49.776 217.497 50 217.945 50.448C218.393 50.8867 218.617 51.484 218.617 52.24V56.86C218.617 56.9533 218.57 57 218.477 57H217.413C217.319 57 217.273 56.9533 217.273 56.86V52.506C217.273 52.0393 217.137 51.6613 216.867 51.372C216.596 51.0827 216.237 50.938 215.789 50.938C215.35 50.938 214.991 51.0827 214.711 51.372C214.431 51.6613 214.291 52.0347 214.291 52.492V56.86C214.291 56.9533 214.244 57 214.151 57H213.087C212.993 57 212.947 56.9533 212.947 56.86V50.014C212.947 49.9207 212.993 49.874 213.087 49.874H214.151C214.244 49.874 214.291 49.9207 214.291 50.014V50.518C214.291 50.5367 214.295 50.5507 214.305 50.56C214.323 50.5693 214.337 50.5647 214.347 50.546C214.748 50.0327 215.341 49.776 216.125 49.776ZM224.049 50.84C224.049 50.9333 224.002 50.98 223.909 50.98H222.397C222.359 50.98 222.341 50.9987 222.341 51.036V54.746C222.341 55.138 222.429 55.4227 222.607 55.6C222.784 55.768 223.059 55.852 223.433 55.852H223.839C223.932 55.852 223.979 55.8987 223.979 55.992V56.86C223.979 56.9533 223.932 57 223.839 57C223.54 57.0187 223.325 57.028 223.195 57.028C222.485 57.028 221.949 56.902 221.585 56.65C221.23 56.3887 221.053 55.9127 221.053 55.222V51.036C221.053 50.9987 221.034 50.98 220.997 50.98H220.143C220.049 50.98 220.003 50.9333 220.003 50.84V50.014C220.003 49.9207 220.049 49.874 220.143 49.874H220.997C221.034 49.874 221.053 49.8553 221.053 49.818V48.166C221.053 48.0727 221.099 48.026 221.193 48.026H222.201C222.294 48.026 222.341 48.0727 222.341 48.166V49.818C222.341 49.8553 222.359 49.874 222.397 49.874H223.909C224.002 49.874 224.049 49.9207 224.049 50.014V50.84Z" fill="#212121" fill-opacity="0.7"/>
<path d="M6.594 155.34C6.594 155.247 6.64067 155.2 6.734 155.2H7.798C7.89133 155.2 7.938 155.247 7.938 155.34V164.86C7.938 164.953 7.89133 165 7.798 165H6.734C6.64067 165 6.594 164.953 6.594 164.86V160.702C6.594 160.665 6.57533 160.646 6.538 160.646H2.548C2.51067 160.646 2.492 160.665 2.492 160.702V164.86C2.492 164.953 2.44533 165 2.352 165H1.288C1.19467 165 1.148 164.953 1.148 164.86V155.34C1.148 155.247 1.19467 155.2 1.288 155.2H2.352C2.44533 155.2 2.492 155.247 2.492 155.34V159.428C2.492 159.465 2.51067 159.484 2.548 159.484H6.538C6.57533 159.484 6.594 159.465 6.594 159.428V155.34ZM15.7714 160.548C15.8088 160.931 15.8228 161.36 15.8134 161.836C15.8134 161.929 15.7668 161.976 15.6734 161.976H11.2074C11.1701 161.976 11.1514 161.995 11.1514 162.032C11.1514 162.349 11.1794 162.592 11.2354 162.76C11.3381 163.133 11.5434 163.427 11.8514 163.642C12.1688 163.847 12.5654 163.95 13.0414 163.95C13.7321 163.95 14.2641 163.665 14.6374 163.096C14.6841 163.003 14.7448 162.989 14.8194 163.054L15.6174 163.586C15.6828 163.642 15.6968 163.703 15.6594 163.768C15.3981 164.188 15.0248 164.519 14.5394 164.762C14.0634 165.005 13.5221 165.126 12.9154 165.126C12.2341 165.126 11.6601 164.977 11.1934 164.678C10.7268 164.379 10.3768 163.955 10.1434 163.404C9.91944 162.853 9.80744 162.186 9.80744 161.402C9.80744 160.721 9.85877 160.203 9.96144 159.848C10.1294 159.204 10.4654 158.695 10.9694 158.322C11.4734 157.949 12.0848 157.762 12.8034 157.762C13.7461 157.762 14.4508 158 14.9174 158.476C15.3841 158.943 15.6688 159.633 15.7714 160.548ZM12.8034 158.924C12.4021 158.924 12.0708 159.027 11.8094 159.232C11.5481 159.428 11.3708 159.694 11.2774 160.03C11.2121 160.235 11.1701 160.497 11.1514 160.814C11.1514 160.851 11.1701 160.87 11.2074 160.87H14.4134C14.4508 160.87 14.4694 160.851 14.4694 160.814C14.4508 160.506 14.4228 160.277 14.3854 160.128C14.2921 159.764 14.1054 159.475 13.8254 159.26C13.5548 159.036 13.2141 158.924 12.8034 158.924ZM17.6493 165C17.556 165 17.5093 164.953 17.5093 164.86V155.34C17.5093 155.247 17.556 155.2 17.6493 155.2H18.7133C18.8066 155.2 18.8533 155.247 18.8533 155.34V164.86C18.8533 164.953 18.8066 165 18.7133 165H17.6493ZM26.5862 159.666C26.7636 160.17 26.8522 160.767 26.8522 161.458C26.8522 162.111 26.7776 162.676 26.6282 163.152C26.4322 163.777 26.1102 164.263 25.6622 164.608C25.2142 164.944 24.6402 165.112 23.9402 165.112C23.6229 165.112 23.3196 165.051 23.0302 164.93C22.7502 164.799 22.5076 164.617 22.3022 164.384C22.2836 164.365 22.2649 164.361 22.2462 164.37C22.2369 164.379 22.2322 164.393 22.2322 164.412V167.534C22.2322 167.627 22.1856 167.674 22.0922 167.674H21.0282C20.9349 167.674 20.8882 167.627 20.8882 167.534V158.014C20.8882 157.921 20.9349 157.874 21.0282 157.874H22.0922C22.1856 157.874 22.2322 157.921 22.2322 158.014V158.476C22.2322 158.495 22.2369 158.509 22.2462 158.518C22.2649 158.527 22.2836 158.523 22.3022 158.504C22.5076 158.271 22.7502 158.089 23.0302 157.958C23.3102 157.827 23.6136 157.762 23.9402 157.762C24.6122 157.762 25.1676 157.93 25.6062 158.266C26.0542 158.593 26.3809 159.059 26.5862 159.666ZM25.0462 163.278C25.3449 162.83 25.4942 162.214 25.4942 161.43C25.4942 160.711 25.3776 160.133 25.1442 159.694C24.8736 159.181 24.4302 158.924 23.8142 158.924C23.2729 158.924 22.8622 159.176 22.5822 159.68C22.3582 160.081 22.2462 160.669 22.2462 161.444C22.2462 162.228 22.3676 162.825 22.6102 163.236C22.8809 163.712 23.2776 163.95 23.8002 163.95C24.3602 163.95 24.7756 163.726 25.0462 163.278ZM29.4229 156.754C29.1615 156.754 28.9469 156.67 28.7789 156.502C28.6109 156.334 28.5269 156.119 28.5269 155.858C28.5269 155.597 28.6109 155.382 28.7789 155.214C28.9469 155.046 29.1615 154.962 29.4229 154.962C29.6842 154.962 29.8989 155.046 30.0669 155.214C30.2349 155.382 30.3189 155.597 30.3189 155.858C30.3189 156.119 30.2349 156.334 30.0669 156.502C29.8989 156.67 29.6842 156.754 29.4229 156.754ZM28.8629 164.986C28.7695 164.986 28.7229 164.939 28.7229 164.846V158.014C28.7229 157.921 28.7695 157.874 28.8629 157.874H29.9269C30.0202 157.874 30.0669 157.921 30.0669 158.014V164.846C30.0669 164.939 30.0202 164.986 29.9269 164.986H28.8629ZM35.3572 157.776C36.1226 157.776 36.7292 158 37.1772 158.448C37.6252 158.887 37.8492 159.484 37.8492 160.24V164.86C37.8492 164.953 37.8026 165 37.7092 165H36.6452C36.5519 165 36.5052 164.953 36.5052 164.86V160.506C36.5052 160.039 36.3699 159.661 36.0992 159.372C35.8286 159.083 35.4692 158.938 35.0212 158.938C34.5826 158.938 34.2232 159.083 33.9432 159.372C33.6632 159.661 33.5232 160.035 33.5232 160.492V164.86C33.5232 164.953 33.4766 165 33.3832 165H32.3192C32.2259 165 32.1792 164.953 32.1792 164.86V158.014C32.1792 157.921 32.2259 157.874 32.3192 157.874H33.3832C33.4766 157.874 33.5232 157.921 33.5232 158.014V158.518C33.5232 158.537 33.5279 158.551 33.5372 158.56C33.5559 158.569 33.5699 158.565 33.5792 158.546C33.9806 158.033 34.5732 157.776 35.3572 157.776ZM44.1491 158.014C44.1491 157.921 44.1958 157.874 44.2891 157.874H45.3531C45.4464 157.874 45.4931 157.921 45.4931 158.014V164.636C45.4931 165.765 45.1711 166.573 44.5271 167.058C43.8924 167.543 43.0384 167.786 41.9651 167.786C41.8158 167.786 41.5824 167.777 41.2651 167.758C41.1718 167.749 41.1251 167.697 41.1251 167.604L41.1671 166.638C41.1671 166.601 41.1811 166.568 41.2091 166.54C41.2371 166.512 41.2744 166.503 41.3211 166.512C41.4518 166.521 41.6431 166.526 41.8951 166.526C42.6884 166.526 43.2624 166.377 43.6171 166.078C43.9718 165.789 44.1491 165.294 44.1491 164.594V164.342C44.1491 164.323 44.1398 164.309 44.1211 164.3C44.1118 164.291 44.0978 164.295 44.0791 164.314C43.6871 164.771 43.1131 165 42.3571 165C41.7504 165 41.1998 164.841 40.7051 164.524C40.2198 164.207 39.8838 163.74 39.6971 163.124C39.5758 162.713 39.5151 162.144 39.5151 161.416C39.5151 160.641 39.5851 160.044 39.7251 159.624C39.9024 159.064 40.2151 158.616 40.6631 158.28C41.1204 157.935 41.6571 157.762 42.2731 157.762C43.0384 157.762 43.6404 157.995 44.0791 158.462C44.0978 158.481 44.1118 158.49 44.1211 158.49C44.1398 158.481 44.1491 158.467 44.1491 158.448V158.014ZM44.0651 162.718C44.0931 162.569 44.1118 162.41 44.1211 162.242C44.1398 162.074 44.1491 161.794 44.1491 161.402C44.1491 161.01 44.1398 160.735 44.1211 160.576C44.1118 160.408 44.0884 160.249 44.0511 160.1C43.9764 159.755 43.8084 159.475 43.5471 159.26C43.2858 159.036 42.9591 158.924 42.5671 158.924C42.1751 158.924 41.8484 159.036 41.5871 159.26C41.3258 159.475 41.1391 159.755 41.0271 160.1C40.9244 160.38 40.8731 160.814 40.8731 161.402C40.8731 162.046 40.9198 162.485 41.0131 162.718C41.1064 163.063 41.2884 163.348 41.5591 163.572C41.8391 163.787 42.1751 163.894 42.5671 163.894C42.9778 163.894 43.3091 163.787 43.5611 163.572C43.8224 163.348 43.9904 163.063 44.0651 162.718ZM54.4134 158.014C54.4134 157.921 54.4601 157.874 54.5534 157.874H55.6034C55.6967 157.874 55.7434 157.921 55.7434 158.014V164.86C55.7434 164.953 55.6967 165 55.6034 165H54.5534C54.4601 165 54.4134 164.953 54.4134 164.86V164.342C54.4134 164.323 54.4041 164.314 54.3854 164.314C54.3761 164.305 54.3621 164.309 54.3434 164.328C53.9701 164.841 53.3961 165.098 52.6214 165.098C52.1641 165.098 51.7394 165.009 51.3474 164.832C50.9647 164.655 50.6567 164.393 50.4234 164.048C50.1901 163.703 50.0734 163.283 50.0734 162.788V158.014C50.0734 157.921 50.1201 157.874 50.2134 157.874H51.2634C51.3567 157.874 51.4034 157.921 51.4034 158.014V162.368C51.4034 162.853 51.5294 163.236 51.7814 163.516C52.0427 163.796 52.4067 163.936 52.8734 163.936C53.3401 163.936 53.7134 163.796 53.9934 163.516C54.2734 163.227 54.4134 162.844 54.4134 162.368V158.014ZM60.2106 165.084C59.6506 165.084 59.1559 165 58.7266 164.832C58.3066 164.664 57.9799 164.435 57.7466 164.146C57.5133 163.847 57.3966 163.521 57.3966 163.166V163.012C57.3966 162.919 57.4433 162.872 57.5366 162.872H58.5446C58.6379 162.872 58.6846 162.919 58.6846 163.012V163.082C58.6846 163.343 58.8246 163.572 59.1046 163.768C59.3939 163.964 59.7579 164.062 60.1966 164.062C60.6166 164.062 60.9573 163.973 61.2186 163.796C61.4799 163.609 61.6106 163.376 61.6106 163.096C61.6106 162.825 61.4893 162.625 61.2466 162.494C61.0039 162.354 60.6119 162.209 60.0706 162.06C59.5386 161.911 59.0906 161.761 58.7266 161.612C58.3719 161.453 58.0686 161.234 57.8166 160.954C57.5739 160.665 57.4526 160.296 57.4526 159.848C57.4526 159.223 57.6953 158.728 58.1806 158.364C58.6753 157.991 59.3286 157.804 60.1406 157.804C60.6819 157.804 61.1579 157.893 61.5686 158.07C61.9886 158.238 62.3106 158.476 62.5346 158.784C62.7586 159.092 62.8706 159.437 62.8706 159.82V159.862C62.8706 159.955 62.8239 160.002 62.7306 160.002H61.7506C61.6573 160.002 61.6106 159.955 61.6106 159.862V159.82C61.6106 159.549 61.4753 159.325 61.2046 159.148C60.9433 158.961 60.5839 158.868 60.1266 158.868C59.7159 158.868 59.3799 158.947 59.1186 159.106C58.8666 159.265 58.7406 159.479 58.7406 159.75C58.7406 160.021 58.8619 160.226 59.1046 160.366C59.3566 160.506 59.7579 160.655 60.3086 160.814C60.8499 160.963 61.2979 161.113 61.6526 161.262C62.0166 161.402 62.3246 161.617 62.5766 161.906C62.8286 162.186 62.9546 162.555 62.9546 163.012C62.9546 163.647 62.7026 164.151 62.1986 164.524C61.7039 164.897 61.0413 165.084 60.2106 165.084ZM70.2949 160.548C70.3322 160.931 70.3462 161.36 70.3369 161.836C70.3369 161.929 70.2902 161.976 70.1969 161.976H65.7309C65.6935 161.976 65.6749 161.995 65.6749 162.032C65.6749 162.349 65.7029 162.592 65.7589 162.76C65.8615 163.133 66.0669 163.427 66.3749 163.642C66.6922 163.847 67.0889 163.95 67.5649 163.95C68.2555 163.95 68.7875 163.665 69.1609 163.096C69.2075 163.003 69.2682 162.989 69.3429 163.054L70.1409 163.586C70.2062 163.642 70.2202 163.703 70.1829 163.768C69.9215 164.188 69.5482 164.519 69.0629 164.762C68.5869 165.005 68.0455 165.126 67.4389 165.126C66.7575 165.126 66.1835 164.977 65.7169 164.678C65.2502 164.379 64.9002 163.955 64.6669 163.404C64.4429 162.853 64.3309 162.186 64.3309 161.402C64.3309 160.721 64.3822 160.203 64.4849 159.848C64.6529 159.204 64.9889 158.695 65.4929 158.322C65.9969 157.949 66.6082 157.762 67.3269 157.762C68.2695 157.762 68.9742 158 69.4409 158.476C69.9075 158.943 70.1922 159.633 70.2949 160.548ZM67.3269 158.924C66.9255 158.924 66.5942 159.027 66.3329 159.232C66.0715 159.428 65.8942 159.694 65.8009 160.03C65.7355 160.235 65.6935 160.497 65.6749 160.814C65.6749 160.851 65.6935 160.87 65.7309 160.87H68.9369C68.9742 160.87 68.9929 160.851 68.9929 160.814C68.9742 160.506 68.9462 160.277 68.9089 160.128C68.8155 159.764 68.6289 159.475 68.3489 159.26C68.0782 159.036 67.7375 158.924 67.3269 158.924ZM75.1547 157.804C75.4534 157.804 75.7241 157.865 75.9667 157.986C76.0321 158.014 76.0554 158.07 76.0367 158.154L75.8127 159.204C75.8034 159.288 75.7474 159.316 75.6447 159.288C75.4861 159.223 75.2994 159.19 75.0847 159.19L74.8887 159.204C74.4501 159.223 74.0861 159.377 73.7967 159.666C73.5167 159.946 73.3767 160.315 73.3767 160.772V164.86C73.3767 164.953 73.3301 165 73.2367 165H72.1727C72.0794 165 72.0327 164.953 72.0327 164.86V158.014C72.0327 157.921 72.0794 157.874 72.1727 157.874H73.2367C73.3301 157.874 73.3767 157.921 73.3767 158.014V158.756C73.3767 158.784 73.3814 158.803 73.3907 158.812C73.4094 158.812 73.4234 158.803 73.4327 158.784C73.8527 158.131 74.4267 157.804 75.1547 157.804ZM79.6657 165.084C79.1057 165.084 78.611 165 78.1817 164.832C77.7617 164.664 77.435 164.435 77.2017 164.146C76.9684 163.847 76.8517 163.521 76.8517 163.166V163.012C76.8517 162.919 76.8984 162.872 76.9917 162.872H77.9997C78.093 162.872 78.1397 162.919 78.1397 163.012V163.082C78.1397 163.343 78.2797 163.572 78.5597 163.768C78.849 163.964 79.213 164.062 79.6517 164.062C80.0717 164.062 80.4124 163.973 80.6737 163.796C80.935 163.609 81.0657 163.376 81.0657 163.096C81.0657 162.825 80.9444 162.625 80.7017 162.494C80.459 162.354 80.067 162.209 79.5257 162.06C78.9937 161.911 78.5457 161.761 78.1817 161.612C77.827 161.453 77.5237 161.234 77.2717 160.954C77.029 160.665 76.9077 160.296 76.9077 159.848C76.9077 159.223 77.1504 158.728 77.6357 158.364C78.1304 157.991 78.7837 157.804 79.5957 157.804C80.137 157.804 80.613 157.893 81.0237 158.07C81.4437 158.238 81.7657 158.476 81.9897 158.784C82.2137 159.092 82.3257 159.437 82.3257 159.82V159.862C82.3257 159.955 82.279 160.002 82.1857 160.002H81.2057C81.1124 160.002 81.0657 159.955 81.0657 159.862V159.82C81.0657 159.549 80.9304 159.325 80.6597 159.148C80.3984 158.961 80.039 158.868 79.5817 158.868C79.171 158.868 78.835 158.947 78.5737 159.106C78.3217 159.265 78.1957 159.479 78.1957 159.75C78.1957 160.021 78.317 160.226 78.5597 160.366C78.8117 160.506 79.213 160.655 79.7637 160.814C80.305 160.963 80.753 161.113 81.1077 161.262C81.4717 161.402 81.7797 161.617 82.0317 161.906C82.2837 162.186 82.4097 162.555 82.4097 163.012C82.4097 163.647 82.1577 164.151 81.6537 164.524C81.159 164.897 80.4964 165.084 79.6657 165.084ZM89.9207 156.376C89.454 156.376 89.1367 156.465 88.9687 156.642C88.8007 156.819 88.7167 157.155 88.7167 157.65V157.818C88.7167 157.855 88.7354 157.874 88.7727 157.874H90.2427C90.336 157.874 90.3827 157.921 90.3827 158.014V158.966C90.3827 159.059 90.336 159.106 90.2427 159.106H88.7727C88.7354 159.106 88.7167 159.125 88.7167 159.162V164.86C88.7167 164.953 88.67 165 88.5767 165H87.5127C87.4194 165 87.3727 164.953 87.3727 164.86V159.162C87.3727 159.125 87.354 159.106 87.3167 159.106H86.3787C86.2854 159.106 86.2387 159.059 86.2387 158.966V158.014C86.2387 157.921 86.2854 157.874 86.3787 157.874H87.3167C87.354 157.874 87.3727 157.855 87.3727 157.818V157.566C87.3727 156.95 87.4427 156.474 87.5827 156.138C87.732 155.802 87.9794 155.564 88.3247 155.424C88.67 155.275 89.1554 155.2 89.7807 155.2H90.2567C90.35 155.2 90.3967 155.247 90.3967 155.34V156.236C90.3967 156.329 90.35 156.376 90.2567 156.376H89.9207ZM92.7347 156.754C92.4734 156.754 92.2587 156.67 92.0907 156.502C91.9227 156.334 91.8387 156.119 91.8387 155.858C91.8387 155.597 91.9227 155.382 92.0907 155.214C92.2587 155.046 92.4734 154.962 92.7347 154.962C92.996 154.962 93.2107 155.046 93.3787 155.214C93.5467 155.382 93.6307 155.597 93.6307 155.858C93.6307 156.119 93.5467 156.334 93.3787 156.502C93.2107 156.67 92.996 156.754 92.7347 156.754ZM92.1747 164.986C92.0814 164.986 92.0347 164.939 92.0347 164.846V158.014C92.0347 157.921 92.0814 157.874 92.1747 157.874H93.2387C93.332 157.874 93.3787 157.921 93.3787 158.014V164.846C93.3787 164.939 93.332 164.986 93.2387 164.986H92.1747ZM98.6717 157.776C99.437 157.776 100.044 158 100.492 158.448C100.94 158.887 101.164 159.484 101.164 160.24V164.86C101.164 164.953 101.117 165 101.024 165H99.9597C99.8663 165 99.8197 164.953 99.8197 164.86V160.506C99.8197 160.039 99.6843 159.661 99.4137 159.372C99.143 159.083 98.7837 158.938 98.3357 158.938C97.897 158.938 97.5377 159.083 97.2577 159.372C96.9777 159.661 96.8377 160.035 96.8377 160.492V164.86C96.8377 164.953 96.791 165 96.6977 165H95.6337C95.5403 165 95.4937 164.953 95.4937 164.86V158.014C95.4937 157.921 95.5403 157.874 95.6337 157.874H96.6977C96.791 157.874 96.8377 157.921 96.8377 158.014V158.518C96.8377 158.537 96.8423 158.551 96.8517 158.56C96.8703 158.569 96.8843 158.565 96.8937 158.546C97.295 158.033 97.8877 157.776 98.6717 157.776ZM107.424 155.34C107.424 155.247 107.47 155.2 107.564 155.2H108.628C108.721 155.2 108.768 155.247 108.768 155.34V164.86C108.768 164.953 108.721 165 108.628 165H107.564C107.47 165 107.424 164.953 107.424 164.86V164.398C107.424 164.379 107.414 164.365 107.396 164.356C107.386 164.347 107.372 164.351 107.354 164.37C107.148 164.603 106.906 164.785 106.626 164.916C106.346 165.047 106.042 165.112 105.716 165.112C105.044 165.112 104.484 164.949 104.036 164.622C103.597 164.286 103.275 163.815 103.07 163.208C102.892 162.713 102.804 162.116 102.804 161.416C102.804 160.763 102.878 160.198 103.028 159.722C103.224 159.106 103.546 158.625 103.994 158.28C104.442 157.935 105.016 157.762 105.716 157.762C106.033 157.762 106.332 157.827 106.612 157.958C106.901 158.079 107.148 158.257 107.354 158.49C107.372 158.509 107.386 158.513 107.396 158.504C107.414 158.495 107.424 158.481 107.424 158.462V155.34ZM107.074 163.194C107.288 162.802 107.396 162.214 107.396 161.43C107.396 160.646 107.279 160.049 107.046 159.638C106.775 159.162 106.378 158.924 105.856 158.924C105.296 158.924 104.88 159.148 104.61 159.596C104.311 160.063 104.162 160.679 104.162 161.444C104.162 162.163 104.278 162.741 104.512 163.18C104.782 163.693 105.226 163.95 105.842 163.95C106.383 163.95 106.794 163.698 107.074 163.194ZM121.171 164.832C121.199 164.86 121.213 164.888 121.213 164.916C121.213 164.972 121.175 165 121.101 165H119.897C119.831 165 119.775 164.972 119.729 164.916L119.015 164.104C118.996 164.076 118.968 164.071 118.931 164.09C118.492 164.445 118.039 164.706 117.573 164.874C117.106 165.033 116.611 165.112 116.089 165.112C115.249 165.112 114.558 164.916 114.017 164.524C113.485 164.123 113.219 163.539 113.219 162.774C113.219 162.13 113.396 161.589 113.751 161.15C114.115 160.702 114.609 160.273 115.235 159.862C115.272 159.843 115.277 159.82 115.249 159.792C114.726 159.157 114.381 158.677 114.213 158.35C114.045 158.014 113.961 157.669 113.961 157.314C113.961 156.894 114.063 156.516 114.269 156.18C114.483 155.835 114.782 155.569 115.165 155.382C115.557 155.186 116 155.088 116.495 155.088C117.26 155.088 117.89 155.298 118.385 155.718C118.879 156.138 119.127 156.689 119.127 157.37C119.127 157.939 118.954 158.439 118.609 158.868C118.273 159.288 117.806 159.699 117.209 160.1C117.171 160.109 117.167 160.133 117.195 160.17C117.549 160.599 118.133 161.276 118.945 162.2L119.001 162.27C119.01 162.289 119.024 162.298 119.043 162.298C119.061 162.298 119.075 162.293 119.085 162.284C119.495 161.771 119.799 161.374 119.995 161.094C120.041 161.019 120.102 161.005 120.177 161.052L120.975 161.5C121.059 161.547 121.073 161.612 121.017 161.696C120.606 162.321 120.219 162.825 119.855 163.208V163.236C119.855 163.255 119.869 163.287 119.897 163.334C120.223 163.726 120.648 164.225 121.171 164.832ZM116.537 156.32C116.163 156.32 115.865 156.423 115.641 156.628C115.417 156.824 115.305 157.09 115.305 157.426C115.305 157.613 115.365 157.818 115.487 158.042C115.617 158.257 115.888 158.621 116.299 159.134C116.327 159.162 116.355 159.167 116.383 159.148C116.84 158.849 117.185 158.565 117.419 158.294C117.661 158.023 117.783 157.725 117.783 157.398C117.783 157.071 117.666 156.81 117.433 156.614C117.199 156.418 116.901 156.32 116.537 156.32ZM116.103 163.964C116.765 163.964 117.442 163.707 118.133 163.194C118.161 163.166 118.161 163.138 118.133 163.11L117.657 162.536C117.377 162.219 117.209 162.032 117.153 161.976L116.131 160.828C116.121 160.8 116.098 160.795 116.061 160.814C115.575 161.131 115.207 161.439 114.955 161.738C114.703 162.037 114.577 162.377 114.577 162.76C114.577 163.133 114.712 163.427 114.983 163.642C115.263 163.857 115.636 163.964 116.103 163.964ZM128.647 165.112C127.937 165.112 127.331 164.935 126.827 164.58C126.323 164.216 125.977 163.726 125.791 163.11C125.651 162.681 125.581 162.116 125.581 161.416C125.581 160.772 125.651 160.207 125.791 159.722C125.977 159.125 126.323 158.649 126.827 158.294C127.34 157.939 127.947 157.762 128.647 157.762C129.347 157.762 129.958 157.939 130.481 158.294C131.003 158.649 131.344 159.097 131.503 159.638C131.559 159.787 131.596 159.941 131.615 160.1C131.615 160.175 131.573 160.221 131.489 160.24L130.439 160.394H130.411C130.345 160.394 130.299 160.352 130.271 160.268L130.229 160.044C130.154 159.727 129.972 159.461 129.683 159.246C129.393 159.031 129.043 158.924 128.633 158.924C128.231 158.924 127.891 159.031 127.611 159.246C127.331 159.461 127.149 159.745 127.065 160.1C126.981 160.436 126.939 160.879 126.939 161.43C126.939 161.971 126.981 162.41 127.065 162.746C127.158 163.119 127.34 163.413 127.611 163.628C127.891 163.843 128.231 163.95 128.633 163.95C129.043 163.95 129.393 163.843 129.683 163.628C129.981 163.413 130.168 163.133 130.243 162.788C130.252 162.779 130.252 162.769 130.243 162.76C130.243 162.741 130.247 162.727 130.257 162.718V162.662C130.285 162.587 130.336 162.559 130.411 162.578L131.461 162.746C131.535 162.765 131.573 162.802 131.573 162.858V162.914C131.573 162.998 131.549 163.101 131.503 163.222C131.344 163.791 131.003 164.249 130.481 164.594C129.958 164.939 129.347 165.112 128.647 165.112ZM136.338 157.776C137.103 157.776 137.71 158 138.158 158.448C138.606 158.887 138.83 159.484 138.83 160.24V164.86C138.83 164.953 138.783 165 138.69 165H137.626C137.532 165 137.486 164.953 137.486 164.86V160.506C137.486 160.039 137.35 159.661 137.08 159.372C136.809 159.083 136.45 158.938 136.002 158.938C135.563 158.938 135.204 159.083 134.924 159.372C134.644 159.661 134.504 160.035 134.504 160.492V164.86C134.504 164.953 134.457 165 134.364 165H133.3C133.206 165 133.16 164.953 133.16 164.86V155.34C133.16 155.247 133.206 155.2 133.3 155.2H134.364C134.457 155.2 134.504 155.247 134.504 155.34V158.518C134.504 158.537 134.508 158.551 134.518 158.56C134.536 158.569 134.55 158.565 134.56 158.546C134.961 158.033 135.554 157.776 136.338 157.776ZM143.578 165.112C142.887 165.112 142.285 164.939 141.772 164.594C141.258 164.239 140.899 163.749 140.694 163.124C140.526 162.62 140.442 162.051 140.442 161.416C140.442 160.753 140.521 160.193 140.68 159.736C140.885 159.12 141.244 158.639 141.758 158.294C142.271 157.939 142.882 157.762 143.592 157.762C144.264 157.762 144.847 157.939 145.342 158.294C145.846 158.639 146.205 159.115 146.42 159.722C146.588 160.198 146.672 160.758 146.672 161.402C146.672 162.055 146.588 162.629 146.42 163.124C146.214 163.749 145.86 164.239 145.356 164.594C144.852 164.939 144.259 165.112 143.578 165.112ZM143.578 163.95C143.951 163.95 144.278 163.847 144.558 163.642C144.838 163.427 145.038 163.129 145.16 162.746C145.262 162.391 145.314 161.953 145.314 161.43C145.314 160.907 145.267 160.473 145.174 160.128C145.052 159.745 144.852 159.451 144.572 159.246C144.292 159.031 143.951 158.924 143.55 158.924C143.167 158.924 142.836 159.031 142.556 159.246C142.276 159.451 142.075 159.745 141.954 160.128C141.851 160.455 141.8 160.889 141.8 161.43C141.8 161.971 141.851 162.41 141.954 162.746C142.066 163.129 142.262 163.427 142.542 163.642C142.831 163.847 143.176 163.95 143.578 163.95ZM151.343 165.112C150.653 165.112 150.051 164.939 149.537 164.594C149.024 164.239 148.665 163.749 148.459 163.124C148.291 162.62 148.207 162.051 148.207 161.416C148.207 160.753 148.287 160.193 148.445 159.736C148.651 159.12 149.01 158.639 149.523 158.294C150.037 157.939 150.648 157.762 151.357 157.762C152.029 157.762 152.613 157.939 153.107 158.294C153.611 158.639 153.971 159.115 154.185 159.722C154.353 160.198 154.437 160.758 154.437 161.402C154.437 162.055 154.353 162.629 154.185 163.124C153.98 163.749 153.625 164.239 153.121 164.594C152.617 164.939 152.025 165.112 151.343 165.112ZM151.343 163.95C151.717 163.95 152.043 163.847 152.323 163.642C152.603 163.427 152.804 163.129 152.925 162.746C153.028 162.391 153.079 161.953 153.079 161.43C153.079 160.907 153.033 160.473 152.939 160.128C152.818 159.745 152.617 159.451 152.337 159.246C152.057 159.031 151.717 158.924 151.315 158.924C150.933 158.924 150.601 159.031 150.321 159.246C150.041 159.451 149.841 159.745 149.719 160.128C149.617 160.455 149.565 160.889 149.565 161.43C149.565 161.971 149.617 162.41 149.719 162.746C149.831 163.129 150.027 163.427 150.307 163.642C150.597 163.847 150.942 163.95 151.343 163.95ZM158.703 165.084C158.143 165.084 157.648 165 157.219 164.832C156.799 164.664 156.472 164.435 156.239 164.146C156.005 163.847 155.889 163.521 155.889 163.166V163.012C155.889 162.919 155.935 162.872 156.029 162.872H157.037C157.13 162.872 157.177 162.919 157.177 163.012V163.082C157.177 163.343 157.317 163.572 157.597 163.768C157.886 163.964 158.25 164.062 158.689 164.062C159.109 164.062 159.449 163.973 159.711 163.796C159.972 163.609 160.103 163.376 160.103 163.096C160.103 162.825 159.981 162.625 159.739 162.494C159.496 162.354 159.104 162.209 158.563 162.06C158.031 161.911 157.583 161.761 157.219 161.612C156.864 161.453 156.561 161.234 156.309 160.954C156.066 160.665 155.945 160.296 155.945 159.848C155.945 159.223 156.187 158.728 156.673 158.364C157.167 157.991 157.821 157.804 158.633 157.804C159.174 157.804 159.65 157.893 160.061 158.07C160.481 158.238 160.803 158.476 161.027 158.784C161.251 159.092 161.363 159.437 161.363 159.82V159.862C161.363 159.955 161.316 160.002 161.223 160.002H160.243C160.149 160.002 160.103 159.955 160.103 159.862V159.82C160.103 159.549 159.967 159.325 159.697 159.148C159.435 158.961 159.076 158.868 158.619 158.868C158.208 158.868 157.872 158.947 157.611 159.106C157.359 159.265 157.233 159.479 157.233 159.75C157.233 160.021 157.354 160.226 157.597 160.366C157.849 160.506 158.25 160.655 158.801 160.814C159.342 160.963 159.79 161.113 160.145 161.262C160.509 161.402 160.817 161.617 161.069 161.906C161.321 162.186 161.447 162.555 161.447 163.012C161.447 163.647 161.195 164.151 160.691 164.524C160.196 164.897 159.533 165.084 158.703 165.084ZM168.787 160.548C168.824 160.931 168.838 161.36 168.829 161.836C168.829 161.929 168.782 161.976 168.689 161.976H164.223C164.186 161.976 164.167 161.995 164.167 162.032C164.167 162.349 164.195 162.592 164.251 162.76C164.354 163.133 164.559 163.427 164.867 163.642C165.184 163.847 165.581 163.95 166.057 163.95C166.748 163.95 167.28 163.665 167.653 163.096C167.7 163.003 167.76 162.989 167.835 163.054L168.633 163.586C168.698 163.642 168.712 163.703 168.675 163.768C168.414 164.188 168.04 164.519 167.555 164.762C167.079 165.005 166.538 165.126 165.931 165.126C165.25 165.126 164.676 164.977 164.209 164.678C163.742 164.379 163.392 163.955 163.159 163.404C162.935 162.853 162.823 162.186 162.823 161.402C162.823 160.721 162.874 160.203 162.977 159.848C163.145 159.204 163.481 158.695 163.985 158.322C164.489 157.949 165.1 157.762 165.819 157.762C166.762 157.762 167.466 158 167.933 158.476C168.4 158.943 168.684 159.633 168.787 160.548ZM165.819 158.924C165.418 158.924 165.086 159.027 164.825 159.232C164.564 159.428 164.386 159.694 164.293 160.03C164.228 160.235 164.186 160.497 164.167 160.814C164.167 160.851 164.186 160.87 164.223 160.87H167.429C167.466 160.87 167.485 160.851 167.485 160.814C167.466 160.506 167.438 160.277 167.401 160.128C167.308 159.764 167.121 159.475 166.841 159.26C166.57 159.036 166.23 158.924 165.819 158.924ZM176.464 156.376C175.997 156.376 175.68 156.465 175.512 156.642C175.344 156.819 175.26 157.155 175.26 157.65V157.818C175.26 157.855 175.278 157.874 175.316 157.874H176.786C176.879 157.874 176.926 157.921 176.926 158.014V158.966C176.926 159.059 176.879 159.106 176.786 159.106H175.316C175.278 159.106 175.26 159.125 175.26 159.162V164.86C175.26 164.953 175.213 165 175.12 165H174.056C173.962 165 173.916 164.953 173.916 164.86V159.162C173.916 159.125 173.897 159.106 173.86 159.106H172.922C172.828 159.106 172.782 159.059 172.782 158.966V158.014C172.782 157.921 172.828 157.874 172.922 157.874H173.86C173.897 157.874 173.916 157.855 173.916 157.818V157.566C173.916 156.95 173.986 156.474 174.126 156.138C174.275 155.802 174.522 155.564 174.868 155.424C175.213 155.275 175.698 155.2 176.324 155.2H176.8C176.893 155.2 176.94 155.247 176.94 155.34V156.236C176.94 156.329 176.893 156.376 176.8 156.376H176.464ZM180.881 157.762C181.45 157.762 181.945 157.865 182.365 158.07C182.794 158.266 183.121 158.546 183.345 158.91C183.578 159.265 183.695 159.671 183.695 160.128V164.86C183.695 164.953 183.648 165 183.555 165H182.491C182.398 165 182.351 164.953 182.351 164.86V164.356C182.351 164.309 182.328 164.3 182.281 164.328C182.038 164.58 181.74 164.776 181.385 164.916C181.04 165.047 180.652 165.112 180.223 165.112C179.532 165.112 178.958 164.939 178.501 164.594C178.053 164.239 177.829 163.707 177.829 162.998C177.829 162.27 178.081 161.701 178.585 161.29C179.098 160.87 179.812 160.66 180.727 160.66H182.295C182.332 160.66 182.351 160.641 182.351 160.604V160.226C182.351 159.815 182.23 159.498 181.987 159.274C181.754 159.041 181.394 158.924 180.909 158.924C180.517 158.924 180.195 159.003 179.943 159.162C179.7 159.311 179.551 159.517 179.495 159.778C179.467 159.871 179.411 159.913 179.327 159.904L178.193 159.75C178.1 159.731 178.058 159.694 178.067 159.638C178.142 159.087 178.436 158.639 178.949 158.294C179.462 157.939 180.106 157.762 180.881 157.762ZM180.517 163.978C181.012 163.978 181.441 163.847 181.805 163.586C182.169 163.325 182.351 162.993 182.351 162.592V161.766C182.351 161.729 182.332 161.71 182.295 161.71H180.979C180.428 161.71 179.99 161.817 179.663 162.032C179.336 162.247 179.173 162.545 179.173 162.928C179.173 163.273 179.294 163.535 179.537 163.712C179.789 163.889 180.116 163.978 180.517 163.978ZM188.015 165.084C187.455 165.084 186.961 165 186.531 164.832C186.111 164.664 185.785 164.435 185.551 164.146C185.318 163.847 185.201 163.521 185.201 163.166V163.012C185.201 162.919 185.248 162.872 185.341 162.872H186.349C186.443 162.872 186.489 162.919 186.489 163.012V163.082C186.489 163.343 186.629 163.572 186.909 163.768C187.199 163.964 187.563 164.062 188.001 164.062C188.421 164.062 188.762 163.973 189.023 163.796C189.285 163.609 189.415 163.376 189.415 163.096C189.415 162.825 189.294 162.625 189.051 162.494C188.809 162.354 188.417 162.209 187.875 162.06C187.343 161.911 186.895 161.761 186.531 161.612C186.177 161.453 185.873 161.234 185.621 160.954C185.379 160.665 185.257 160.296 185.257 159.848C185.257 159.223 185.5 158.728 185.985 158.364C186.48 157.991 187.133 157.804 187.945 157.804C188.487 157.804 188.963 157.893 189.373 158.07C189.793 158.238 190.115 158.476 190.339 158.784C190.563 159.092 190.675 159.437 190.675 159.82V159.862C190.675 159.955 190.629 160.002 190.535 160.002H189.555C189.462 160.002 189.415 159.955 189.415 159.862V159.82C189.415 159.549 189.28 159.325 189.009 159.148C188.748 158.961 188.389 158.868 187.931 158.868C187.521 158.868 187.185 158.947 186.923 159.106C186.671 159.265 186.545 159.479 186.545 159.75C186.545 160.021 186.667 160.226 186.909 160.366C187.161 160.506 187.563 160.655 188.113 160.814C188.655 160.963 189.103 161.113 189.457 161.262C189.821 161.402 190.129 161.617 190.381 161.906C190.633 162.186 190.759 162.555 190.759 163.012C190.759 163.647 190.507 164.151 190.003 164.524C189.509 164.897 188.846 165.084 188.015 165.084ZM195.832 158.84C195.832 158.933 195.785 158.98 195.692 158.98H194.18C194.143 158.98 194.124 158.999 194.124 159.036V162.746C194.124 163.138 194.213 163.423 194.39 163.6C194.567 163.768 194.843 163.852 195.216 163.852H195.622C195.715 163.852 195.762 163.899 195.762 163.992V164.86C195.762 164.953 195.715 165 195.622 165C195.323 165.019 195.109 165.028 194.978 165.028C194.269 165.028 193.732 164.902 193.368 164.65C193.013 164.389 192.836 163.913 192.836 163.222V159.036C192.836 158.999 192.817 158.98 192.78 158.98H191.926C191.833 158.98 191.786 158.933 191.786 158.84V158.014C191.786 157.921 191.833 157.874 191.926 157.874H192.78C192.817 157.874 192.836 157.855 192.836 157.818V156.166C192.836 156.073 192.883 156.026 192.976 156.026H193.984C194.077 156.026 194.124 156.073 194.124 156.166V157.818C194.124 157.855 194.143 157.874 194.18 157.874H195.692C195.785 157.874 195.832 157.921 195.832 158.014V158.84ZM203.09 160.548C203.127 160.931 203.141 161.36 203.132 161.836C203.132 161.929 203.085 161.976 202.992 161.976H198.526C198.488 161.976 198.47 161.995 198.47 162.032C198.47 162.349 198.498 162.592 198.554 162.76C198.656 163.133 198.862 163.427 199.17 163.642C199.487 163.847 199.884 163.95 200.36 163.95C201.05 163.95 201.582 163.665 201.956 163.096C202.002 163.003 202.063 162.989 202.138 163.054L202.936 163.586C203.001 163.642 203.015 163.703 202.978 163.768C202.716 164.188 202.343 164.519 201.858 164.762C201.382 165.005 200.84 165.126 200.234 165.126C199.552 165.126 198.978 164.977 198.512 164.678C198.045 164.379 197.695 163.955 197.462 163.404C197.238 162.853 197.126 162.186 197.126 161.402C197.126 160.721 197.177 160.203 197.28 159.848C197.448 159.204 197.784 158.695 198.288 158.322C198.792 157.949 199.403 157.762 200.122 157.762C201.064 157.762 201.769 158 202.236 158.476C202.702 158.943 202.987 159.633 203.09 160.548ZM200.122 158.924C199.72 158.924 199.389 159.027 199.128 159.232C198.866 159.428 198.689 159.694 198.596 160.03C198.53 160.235 198.488 160.497 198.47 160.814C198.47 160.851 198.488 160.87 198.526 160.87H201.732C201.769 160.87 201.788 160.851 201.788 160.814C201.769 160.506 201.741 160.277 201.704 160.128C201.61 159.764 201.424 159.475 201.144 159.26C200.873 159.036 200.532 158.924 200.122 158.924ZM207.95 157.804C208.248 157.804 208.519 157.865 208.762 157.986C208.827 158.014 208.85 158.07 208.832 158.154L208.608 159.204C208.598 159.288 208.542 159.316 208.44 159.288C208.281 159.223 208.094 159.19 207.88 159.19L207.684 159.204C207.245 159.223 206.881 159.377 206.592 159.666C206.312 159.946 206.172 160.315 206.172 160.772V164.86C206.172 164.953 206.125 165 206.032 165H204.968C204.874 165 204.828 164.953 204.828 164.86V158.014C204.828 157.921 204.874 157.874 204.968 157.874H206.032C206.125 157.874 206.172 157.921 206.172 158.014V158.756C206.172 158.784 206.176 158.803 206.186 158.812C206.204 158.812 206.218 158.803 206.228 158.784C206.648 158.131 207.222 157.804 207.95 157.804Z" fill="#212121" fill-opacity="0.7"/>
<circle cx="4" cy="4" r="4" transform="matrix(1 0 0 -1 0 143)" fill="#C41E3A"/>
<line y1="-0.5" x2="239" y2="-0.5" transform="matrix(-1 0 0 1 247 139)" stroke="#7D1425" stroke-dasharray="3 3"/>
<path d="M55.3059 112.928C55.3592 112.843 55.4339 112.8 55.5299 112.8H57.0019C57.0552 112.8 57.0979 112.821 57.1299 112.864C57.1725 112.896 57.1939 112.939 57.1939 112.992V123.808C57.1939 123.861 57.1725 123.909 57.1299 123.952C57.0979 123.984 57.0552 124 57.0019 124H55.5299C55.4765 124 55.4285 123.984 55.3859 123.952C55.3539 123.909 55.3379 123.861 55.3379 123.808V116.176C55.3379 116.144 55.3219 116.123 55.2899 116.112C55.2685 116.101 55.2525 116.112 55.2419 116.144L53.2419 119.216C53.1885 119.301 53.1139 119.344 53.0179 119.344H52.2819C52.1859 119.344 52.1112 119.301 52.0579 119.216L50.0419 116.16C50.0312 116.128 50.0099 116.117 49.9779 116.128C49.9565 116.139 49.9459 116.16 49.9459 116.192V123.808C49.9459 123.861 49.9245 123.909 49.8819 123.952C49.8499 123.984 49.8072 124 49.7539 124H48.2819C48.2285 124 48.1805 123.984 48.1379 123.952C48.1059 123.909 48.0899 123.861 48.0899 123.808V112.992C48.0899 112.939 48.1059 112.896 48.1379 112.864C48.1805 112.821 48.2285 112.8 48.2819 112.8H49.7539C49.8499 112.8 49.9245 112.843 49.9779 112.928L52.5859 116.88C52.6072 116.901 52.6285 116.912 52.6499 116.912C52.6712 116.912 52.6872 116.901 52.6979 116.88L55.3059 112.928ZM67.1114 114.208C67.1114 114.261 67.09 114.309 67.0474 114.352C67.0154 114.384 66.9727 114.4 66.9194 114.4H61.4634C61.41 114.4 61.3834 114.427 61.3834 114.48V117.472C61.3834 117.525 61.41 117.552 61.4634 117.552H65.1274C65.1807 117.552 65.2234 117.573 65.2554 117.616C65.298 117.648 65.3194 117.691 65.3194 117.744V118.96C65.3194 119.013 65.298 119.061 65.2554 119.104C65.2234 119.136 65.1807 119.152 65.1274 119.152H61.4634C61.41 119.152 61.3834 119.179 61.3834 119.232V122.32C61.3834 122.373 61.41 122.4 61.4634 122.4H66.9194C66.9727 122.4 67.0154 122.421 67.0474 122.464C67.09 122.496 67.1114 122.539 67.1114 122.592V123.808C67.1114 123.861 67.09 123.909 67.0474 123.952C67.0154 123.984 66.9727 124 66.9194 124H59.7194C59.666 124 59.618 123.984 59.5754 123.952C59.5434 123.909 59.5274 123.861 59.5274 123.808V112.992C59.5274 112.939 59.5434 112.896 59.5754 112.864C59.618 112.821 59.666 112.8 59.7194 112.8H66.9194C66.9727 112.8 67.0154 112.821 67.0474 112.864C67.09 112.896 67.1114 112.939 67.1114 112.992V114.208ZM75.5081 112.992C75.5081 112.939 75.5241 112.896 75.5561 112.864C75.5988 112.821 75.6468 112.8 75.7001 112.8H77.1721C77.2255 112.8 77.2681 112.821 77.3001 112.864C77.3428 112.896 77.3641 112.939 77.3641 112.992V123.808C77.3641 123.861 77.3428 123.909 77.3001 123.952C77.2681 123.984 77.2255 124 77.1721 124H75.7481C75.6415 124 75.5668 123.957 75.5241 123.872L70.9161 116.32C70.8948 116.288 70.8735 116.277 70.8521 116.288C70.8308 116.288 70.8201 116.309 70.8201 116.352L70.8521 123.808C70.8521 123.861 70.8308 123.909 70.7881 123.952C70.7561 123.984 70.7135 124 70.6601 124H69.1881C69.1348 124 69.0868 123.984 69.0441 123.952C69.0121 123.909 68.9961 123.861 68.9961 123.808V112.992C68.9961 112.939 69.0121 112.896 69.0441 112.864C69.0868 112.821 69.1348 112.8 69.1881 112.8H70.6121C70.7188 112.8 70.7935 112.843 70.8361 112.928L75.4281 120.48C75.4495 120.512 75.4708 120.528 75.4921 120.528C75.5135 120.517 75.5241 120.491 75.5241 120.448L75.5081 112.992ZM83.6193 124.128C82.8299 124.128 82.1313 123.973 81.5233 123.664C80.9153 123.355 80.4406 122.917 80.0993 122.352C79.7686 121.776 79.6033 121.115 79.6033 120.368V112.992C79.6033 112.939 79.6193 112.896 79.6513 112.864C79.6939 112.821 79.7419 112.8 79.7953 112.8H81.2673C81.3206 112.8 81.3633 112.821 81.3953 112.864C81.4379 112.896 81.4593 112.939 81.4593 112.992V120.4C81.4593 121.029 81.6566 121.541 82.0513 121.936C82.4459 122.331 82.9686 122.528 83.6193 122.528C84.2699 122.528 84.7926 122.331 85.1873 121.936C85.5819 121.541 85.7793 121.029 85.7793 120.4V112.992C85.7793 112.939 85.7953 112.896 85.8273 112.864C85.8699 112.821 85.9179 112.8 85.9713 112.8H87.4433C87.4966 112.8 87.5393 112.821 87.5712 112.864C87.6139 112.896 87.6353 112.939 87.6353 112.992V120.368C87.6353 121.115 87.4699 121.776 87.1393 122.352C86.8086 122.917 86.3393 123.355 85.7313 123.664C85.1233 123.973 84.4193 124.128 83.6193 124.128ZM100.434 112.8C100.488 112.8 100.53 112.821 100.562 112.864C100.605 112.896 100.626 112.939 100.626 112.992V114.224C100.626 114.277 100.605 114.325 100.562 114.368C100.53 114.4 100.488 114.416 100.434 114.416H97.4903C97.4369 114.416 97.4103 114.443 97.4103 114.496V123.808C97.4103 123.861 97.3889 123.909 97.3463 123.952C97.3143 123.984 97.2716 124 97.2183 124H95.7463C95.6929 124 95.6449 123.984 95.6023 123.952C95.5703 123.909 95.5543 123.861 95.5543 123.808V114.496C95.5543 114.443 95.5276 114.416 95.4743 114.416H92.6423C92.5889 114.416 92.5409 114.4 92.4983 114.368C92.4663 114.325 92.4503 114.277 92.4503 114.224V112.992C92.4503 112.939 92.4663 112.896 92.4983 112.864C92.5409 112.821 92.5889 112.8 92.6423 112.8H100.434ZM105.569 124.16C104.769 124.16 104.06 124 103.441 123.68C102.823 123.349 102.343 122.885 102.001 122.288C101.671 121.691 101.505 121.003 101.505 120.224V116.576C101.505 115.808 101.676 115.131 102.017 114.544C102.359 113.947 102.833 113.488 103.441 113.168C104.06 112.837 104.769 112.672 105.569 112.672C106.38 112.672 107.089 112.837 107.697 113.168C108.316 113.488 108.796 113.947 109.137 114.544C109.479 115.131 109.649 115.808 109.649 116.576V120.224C109.649 121.003 109.479 121.691 109.137 122.288C108.796 122.885 108.316 123.349 107.697 123.68C107.089 124 106.38 124.16 105.569 124.16ZM105.569 122.56C106.241 122.56 106.78 122.352 107.185 121.936C107.591 121.52 107.793 120.971 107.793 120.288V116.56C107.793 115.867 107.591 115.312 107.185 114.896C106.78 114.48 106.241 114.272 105.569 114.272C104.908 114.272 104.375 114.48 103.969 114.896C103.564 115.312 103.361 115.867 103.361 116.56V120.288C103.361 120.971 103.564 121.52 103.969 121.936C104.375 122.352 104.908 122.56 105.569 122.56ZM118.662 124.128C117.862 124.128 117.158 123.973 116.55 123.664C115.942 123.344 115.473 122.901 115.142 122.336C114.811 121.771 114.646 121.115 114.646 120.368V116.416C114.646 115.669 114.811 115.013 115.142 114.448C115.473 113.883 115.942 113.445 116.55 113.136C117.158 112.827 117.862 112.672 118.662 112.672C119.451 112.672 120.15 112.821 120.758 113.12C121.366 113.419 121.835 113.84 122.166 114.384C122.497 114.928 122.662 115.557 122.662 116.272C122.662 116.325 122.641 116.373 122.598 116.416C122.566 116.448 122.523 116.464 122.47 116.464L120.998 116.544C120.87 116.544 120.806 116.485 120.806 116.368C120.806 115.739 120.609 115.232 120.214 114.848C119.83 114.464 119.313 114.272 118.662 114.272C118.011 114.272 117.489 114.464 117.094 114.848C116.699 115.232 116.502 115.739 116.502 116.368V120.448C116.502 121.067 116.699 121.568 117.094 121.952C117.489 122.336 118.011 122.528 118.662 122.528C119.313 122.528 119.83 122.341 120.214 121.968C120.609 121.584 120.806 121.077 120.806 120.448C120.806 120.331 120.87 120.272 120.998 120.272L122.47 120.336C122.523 120.336 122.566 120.352 122.598 120.384C122.641 120.416 122.662 120.453 122.662 120.496C122.662 121.221 122.497 121.861 122.166 122.416C121.835 122.96 121.366 123.381 120.758 123.68C120.15 123.979 119.451 124.128 118.662 124.128ZM131.44 124C131.333 124 131.264 123.947 131.232 123.84L130.704 122.128C130.683 122.085 130.656 122.064 130.624 122.064H126.4C126.368 122.064 126.341 122.085 126.32 122.128L125.792 123.84C125.76 123.947 125.691 124 125.584 124H123.984C123.92 124 123.872 123.984 123.84 123.952C123.808 123.909 123.803 123.851 123.824 123.776L127.296 112.96C127.328 112.853 127.397 112.8 127.504 112.8H129.504C129.611 112.8 129.68 112.853 129.712 112.96L133.2 123.776C133.211 123.797 133.216 123.824 133.216 123.856C133.216 123.952 133.157 124 133.04 124H131.44ZM126.816 120.512C126.805 120.576 126.827 120.608 126.88 120.608H130.128C130.192 120.608 130.213 120.576 130.192 120.512L128.544 115.152C128.533 115.109 128.517 115.088 128.496 115.088C128.475 115.088 128.459 115.109 128.448 115.152L126.816 120.512ZM141.159 124C141.052 124 140.978 123.952 140.935 123.856L138.823 119.248C138.802 119.205 138.77 119.184 138.727 119.184H136.807C136.754 119.184 136.727 119.211 136.727 119.264V123.808C136.727 123.861 136.706 123.909 136.663 123.952C136.631 123.984 136.588 124 136.535 124H135.063C135.01 124 134.962 123.984 134.919 123.952C134.887 123.909 134.871 123.861 134.871 123.808V112.992C134.871 112.939 134.887 112.896 134.919 112.864C134.962 112.821 135.01 112.8 135.063 112.8H139.463C140.114 112.8 140.69 112.939 141.191 113.216C141.692 113.483 142.082 113.867 142.359 114.368C142.636 114.859 142.775 115.424 142.775 116.064C142.775 116.8 142.583 117.429 142.199 117.952C141.826 118.464 141.303 118.821 140.631 119.024C140.61 119.024 140.594 119.035 140.583 119.056C140.572 119.077 140.572 119.099 140.583 119.12L142.839 123.776C142.86 123.819 142.871 123.851 142.871 123.872C142.871 123.957 142.812 124 142.695 124H141.159ZM136.807 114.4C136.754 114.4 136.727 114.427 136.727 114.48V117.664C136.727 117.717 136.754 117.744 136.807 117.744H139.207C139.719 117.744 140.13 117.595 140.439 117.296C140.759 116.987 140.919 116.581 140.919 116.08C140.919 115.579 140.759 115.173 140.439 114.864C140.13 114.555 139.719 114.4 139.207 114.4H136.807ZM152.028 112.8C152.081 112.8 152.124 112.821 152.156 112.864C152.199 112.896 152.22 112.939 152.22 112.992V114.224C152.22 114.277 152.199 114.325 152.156 114.368C152.124 114.4 152.081 114.416 152.028 114.416H149.084C149.031 114.416 149.004 114.443 149.004 114.496V123.808C149.004 123.861 148.983 123.909 148.94 123.952C148.908 123.984 148.865 124 148.812 124H147.34C147.287 124 147.239 123.984 147.196 123.952C147.164 123.909 147.148 123.861 147.148 123.808V114.496C147.148 114.443 147.121 114.416 147.068 114.416H144.236C144.183 114.416 144.135 114.4 144.092 114.368C144.06 114.325 144.044 114.277 144.044 114.224V112.992C144.044 112.939 144.06 112.896 144.092 112.864C144.135 112.821 144.183 112.8 144.236 112.8H152.028Z" fill="#801426"/>
<path d="M158.113 125.536C158.006 125.536 157.931 125.499 157.889 125.424C157.302 124.624 156.827 123.653 156.465 122.512C156.113 121.36 155.937 120.096 155.937 118.72C155.937 117.333 156.113 116.064 156.465 114.912C156.827 113.749 157.307 112.763 157.905 111.952C157.947 111.877 158.022 111.84 158.129 111.84H159.537C159.611 111.84 159.659 111.861 159.681 111.904C159.713 111.947 159.713 112 159.681 112.064C159.19 112.917 158.79 113.915 158.481 115.056C158.171 116.187 158.017 117.408 158.017 118.72C158.017 120.021 158.171 121.232 158.481 122.352C158.79 123.472 159.19 124.459 159.681 125.312C159.702 125.355 159.713 125.387 159.713 125.408C159.713 125.493 159.654 125.536 159.537 125.536H158.113ZM169.415 112.928C169.469 112.843 169.543 112.8 169.639 112.8H171.111C171.165 112.8 171.207 112.821 171.239 112.864C171.282 112.896 171.303 112.939 171.303 112.992V123.808C171.303 123.861 171.282 123.909 171.239 123.952C171.207 123.984 171.165 124 171.111 124H169.639C169.586 124 169.538 123.984 169.495 123.952C169.463 123.909 169.447 123.861 169.447 123.808V116.176C169.447 116.144 169.431 116.123 169.399 116.112C169.378 116.101 169.362 116.112 169.351 116.144L167.351 119.216C167.298 119.301 167.223 119.344 167.127 119.344H166.391C166.295 119.344 166.221 119.301 166.167 119.216L164.151 116.16C164.141 116.128 164.119 116.117 164.087 116.128C164.066 116.139 164.055 116.16 164.055 116.192V123.808C164.055 123.861 164.034 123.909 163.991 123.952C163.959 123.984 163.917 124 163.863 124H162.391C162.338 124 162.29 123.984 162.247 123.952C162.215 123.909 162.199 123.861 162.199 123.808V112.992C162.199 112.939 162.215 112.896 162.247 112.864C162.29 112.821 162.338 112.8 162.391 112.8H163.863C163.959 112.8 164.034 112.843 164.087 112.928L166.695 116.88C166.717 116.901 166.738 116.912 166.759 116.912C166.781 116.912 166.797 116.901 166.807 116.88L169.415 112.928ZM175.749 122.304C175.727 122.325 175.717 122.347 175.717 122.368C175.727 122.389 175.749 122.4 175.781 122.4H180.341C180.394 122.4 180.437 122.421 180.469 122.464C180.511 122.496 180.533 122.539 180.533 122.592V123.808C180.533 123.861 180.511 123.909 180.469 123.952C180.437 123.984 180.394 124 180.341 124H173.461C173.407 124 173.359 123.984 173.317 123.952C173.285 123.909 173.269 123.861 173.269 123.808V122.656C173.269 122.56 173.301 122.48 173.365 122.416C174.175 121.552 175.114 120.491 176.181 119.232L176.933 118.352C177.914 117.211 178.405 116.347 178.405 115.76C178.405 115.323 178.25 114.965 177.941 114.688C177.631 114.411 177.231 114.272 176.741 114.272C176.25 114.272 175.85 114.411 175.541 114.688C175.242 114.965 175.093 115.333 175.093 115.792V116.208C175.093 116.261 175.071 116.309 175.029 116.352C174.997 116.384 174.954 116.4 174.901 116.4H173.413C173.359 116.4 173.311 116.384 173.269 116.352C173.237 116.309 173.221 116.261 173.221 116.208V115.52C173.242 114.944 173.407 114.443 173.717 114.016C174.026 113.589 174.442 113.259 174.965 113.024C175.498 112.789 176.09 112.672 176.741 112.672C177.455 112.672 178.079 112.805 178.613 113.072C179.146 113.339 179.557 113.707 179.845 114.176C180.133 114.635 180.277 115.152 180.277 115.728C180.277 116.603 179.813 117.611 178.885 118.752C178.373 119.392 177.53 120.352 176.357 121.632L175.749 122.304ZM186.193 124.128C185.393 124.128 184.689 123.973 184.081 123.664C183.473 123.344 183.004 122.901 182.673 122.336C182.343 121.771 182.177 121.115 182.177 120.368V116.416C182.177 115.669 182.343 115.013 182.673 114.448C183.004 113.883 183.473 113.445 184.081 113.136C184.689 112.827 185.393 112.672 186.193 112.672C186.983 112.672 187.681 112.821 188.289 113.12C188.897 113.419 189.367 113.84 189.697 114.384C190.028 114.928 190.193 115.557 190.193 116.272C190.193 116.325 190.172 116.373 190.129 116.416C190.097 116.448 190.055 116.464 190.001 116.464L188.529 116.544C188.401 116.544 188.337 116.485 188.337 116.368C188.337 115.739 188.14 115.232 187.745 114.848C187.361 114.464 186.844 114.272 186.193 114.272C185.543 114.272 185.02 114.464 184.625 114.848C184.231 115.232 184.033 115.739 184.033 116.368V120.448C184.033 121.067 184.231 121.568 184.625 121.952C185.02 122.336 185.543 122.528 186.193 122.528C186.844 122.528 187.361 122.341 187.745 121.968C188.14 121.584 188.337 121.077 188.337 120.448C188.337 120.331 188.401 120.272 188.529 120.272L190.001 120.336C190.055 120.336 190.097 120.352 190.129 120.384C190.172 120.416 190.193 120.453 190.193 120.496C190.193 121.221 190.028 121.861 189.697 122.416C189.367 122.96 188.897 123.381 188.289 123.68C187.681 123.979 186.983 124.128 186.193 124.128ZM193.944 111.84C194.05 111.84 194.125 111.877 194.168 111.952C194.754 112.752 195.224 113.728 195.576 114.88C195.938 116.021 196.12 117.275 196.12 118.64C196.12 120.016 195.938 121.291 195.576 122.464C195.213 123.627 194.733 124.613 194.136 125.424C194.093 125.499 194.018 125.536 193.912 125.536H192.504C192.429 125.536 192.376 125.515 192.344 125.472C192.322 125.429 192.328 125.376 192.36 125.312C192.85 124.459 193.25 123.467 193.56 122.336C193.869 121.195 194.024 119.968 194.024 118.656C194.024 117.344 193.869 116.128 193.56 115.008C193.25 113.888 192.85 112.907 192.36 112.064C192.338 112.021 192.328 111.989 192.328 111.968C192.328 111.883 192.386 111.84 192.504 111.84H193.944Z" fill="#212121" fill-opacity="0.6"/>
</svg>
